<?xml version="1.0" encoding="UTF-8"?>
<svg width="300px" height="45px" viewBox="0 0 300 45" version="1.1" xmlns="http://www.w3.org/2000/svg" xmlns:xlink="http://www.w3.org/1999/xlink">
    <title>disabilitylogo</title>
    <g id="Page-1" stroke="none" stroke-width="1" fill="none" fill-rule="evenodd">
        <g id="disabilitylogo">
            <g id="carbon:accessibility-alt">
                <rect id="ViewBox" x="0" y="0" width="44.9768161" height="44.9768161"></rect>
                <path d="M5.56414219,22.488408 L22.2565688,22.488408 L13.3017633,36.6306028 C8.14334924,33.3227505 5.56414219,28.6086856 5.56414219,22.488408 Z" id="Shape-Copy" fill="#5B1E6A" fill-rule="nonzero"></path>
                <path d="M22.2680824,39.4126739 C18.9926977,39.4126739 15.8976698,38.5047906 12.9829985,36.6890241 L22.2565688,22.488408 L31.5301391,36.7381311 C28.8600007,38.429994 25.6772434,39.4126739 22.2680824,39.4126739 Z" id="Shape-Copy-2" fill="#4DB7C5" fill-rule="nonzero"></path>
                <path d="M22.2565688,22.488408 L39.4126739,22.488408 L30.1391036,36.7381311 C24.8840804,33.3585933 22.2565688,28.6086856 22.2565688,22.488408 Z" id="Shape-Copy-5" fill="#BA0A87" fill-rule="nonzero" transform="translate(30.834621, 29.613270) scale(-1, 1) translate(-30.834621, -29.613270) "></path>
                <path d="M5.56416022,22.488408 C5.56416022,11.0470437 15.1427713,5.56414219 22.4885269,5.56414219 C29.777788,5.56414219 39.0972367,10.810313 39.4126739,22.488408 L5.56416022,22.488408 Z" id="Shape-Copy-3" fill="#3D506E" fill-rule="nonzero"></path>
                <path d="M28.3801454,22.5420093 C29.4889469,22.5420093 29.4889469,20.8874262 28.3801454,20.8874262 L16.4989451,20.8655332 C15.5204444,20.8655332 15.5204444,22.5420093 16.4989451,22.5420093 L20.0481896,22.5420093 L20.0481896,25.8531919 L16.4989451,31.2484906 C15.4485537,32.9707943 17.5155202,34.1552355 18.4611279,32.580396 L22.0064123,27.2324459 L23.0343464,27.2324459 L26.3927437,32.6473809 C27.3145913,34.0201278 29.3053277,32.8307692 28.3801454,31.4030472 L24.888671,25.8641383 L24.888671,22.5293952 L28.3801454,22.5420093 Z" id="Path" fill="#FFFFFF" fill-rule="nonzero"></path>
                <circle id="Oval" fill="#FFFFFF" fill-rule="nonzero" cx="22.2565688" cy="17.6197836" r="2.31839258"></circle>
                <path d="M22.488408,42.194745 C11.6048987,42.194745 2.7820711,33.3719174 2.7820711,22.488408 C2.7820711,11.6048987 11.6048987,2.7820711 22.488408,2.7820711 C33.3719174,2.7820711 42.194745,11.6048987 42.194745,22.488408 C42.1823338,33.3667724 33.3667724,42.1823338 22.488408,42.194745 Z M22.488408,5.59726209 C13.1596857,5.59726209 5.59726209,13.1596857 5.59726209,22.488408 C5.59726209,31.8171304 13.1596857,39.379554 22.488408,39.379554 C31.8171304,39.379554 39.379554,31.8171304 39.379554,22.488408 C39.3686947,13.1641875 31.8126286,5.60812135 22.488408,5.59726209 Z" id="Shape" fill="#FFFFFF" fill-rule="nonzero"></path>
            </g>
            <path d="M61.07017,32.9211747 C66.2114374,32.9211747 70.6794436,30.1669243 70.6794436,23.6485317 C70.6794436,17.1913447 66.272643,14.9267388 60.6417311,14.9267388 L53.6948995,14.9267388 L53.4806801,15.9060278 L55.4392581,16.6098918 L55.4392581,31.2380216 L53.4806801,31.9418856 L53.6948995,32.9211747 L61.07017,32.9211747 Z M60.794745,31.5440495 L59.6012365,31.0850077 L59.6012365,16.4262751 L60.3969088,16.4262751 C64.2528594,16.4262751 66.2420402,18.5990726 66.2420402,23.8321484 C66.2420402,28.8816074 64.8343122,31.4522411 60.794745,31.5440495 Z M76.2185471,17.6503864 C77.5956723,17.6503864 78.6973725,16.579289 78.6973725,15.2021638 C78.6973725,13.7944359 77.5956723,12.6927357 76.2185471,12.6927357 C74.8108192,12.6927357 73.7397218,13.7944359 73.7397218,15.2021638 C73.7397218,16.579289 74.8108192,17.6503864 76.2185471,17.6503864 Z M79.6460587,32.9211747 L80.0438949,32.033694 L78.2383308,31.4522411 L78.2383308,19.2723338 L77.5650696,19.2723338 L72.9440495,20.7718702 L72.9440495,21.1085008 L74.2293663,23.1282844 L74.2293663,31.5134467 L72.9746522,32.0642968 L72.9746522,32.9211747 L79.6460587,32.9211747 Z M86.9295209,33.2272025 C90.2652241,33.2272025 92.3462133,31.9724884 92.3462133,29.0040185 C92.3462133,26.6782071 91.2139104,25.3928903 88.7044822,24.5666151 L86.5010819,23.8321484 C85.4299845,23.464915 84.9709428,22.9752705 84.9709428,22.1183926 C84.9709428,21.2309119 85.644204,20.649459 86.7459042,20.649459 C88.2760433,20.649459 89.438949,21.5369397 90.6630603,23.4955178 L91.397527,23.3119011 L91.3057187,19.3029366 L89.6225657,19.8843895 C88.9187017,19.5171561 87.755796,19.2723338 86.7153014,19.2723338 C83.961051,19.2723338 81.9106646,20.5882535 81.9106646,23.5567233 C81.9106646,25.8213292 83.0735703,27.0454405 85.1851623,27.6880989 L87.1743431,28.3307573 C88.5514683,28.7591963 89.1329212,29.3100464 89.1329212,30.2893354 C89.1329212,31.5134467 88.2454405,31.9112828 87.0213292,31.9112828 C85.3075734,31.9112828 84.1752705,31.2380216 82.553323,28.5449768 L81.7270479,28.7285935 L82.0636785,33.2272025 L83.6550232,32.5233385 C84.5425039,32.9211747 85.7666151,33.2272025 86.9295209,33.2272025 Z M104.464915,33.2272025 C105.903246,33.2272025 106.913138,32.8599691 107.678207,32.1255023 L107.586399,31.5134467 C106.148068,31.6664606 105.658423,31.3604328 105.658423,29.9833076 L105.658423,24.1381762 C105.658423,20.4046368 103.179598,19.2723338 100.639567,19.2723338 C98.1301391,19.2723338 96.0185471,20.2210201 94.7026275,21.9959815 L95.0698609,22.8834621 C96.3551777,22.2102009 97.4262751,21.9653787 98.711592,21.9653787 C100.517156,21.9653787 101.649459,22.8528594 101.649459,24.6278207 L101.649459,25.7907264 C101.159815,25.6683153 100.455951,25.5459042 99.8132921,25.5459042 C96.4163833,25.5459042 94.2741886,26.8618238 94.2741886,29.5548686 C94.2741886,32.0948995 95.9573416,33.2272025 98.007728,33.2272025 C99.6602782,33.2272025 101.068006,32.6151468 101.710665,31.2380216 L101.802473,31.2686244 C102.047295,32.6763524 103.148995,33.2272025 104.464915,33.2272025 Z M99.8744977,30.9319938 C98.8034003,30.9319938 98.1301391,30.1669243 98.1301391,29.0346213 C98.1301391,27.4126739 99.1706337,26.9536321 100.976198,26.9536321 L101.649459,26.9536321 L101.649459,30.2893354 C101.098609,30.7789799 100.547759,30.9319938 99.8744977,30.9319938 Z M115.145286,33.2272025 C119.215456,33.2272025 123.316229,31.2686244 123.316229,25.6989181 C123.316229,21.5369397 120.959815,19.2723338 117.868934,19.2723338 C115.971561,19.2723338 114.594436,20.0068006 113.829366,21.1697063 L113.706955,21.1697063 L113.706955,12.0806801 L113.033694,12.0806801 L108.25966,13.3659969 L108.25966,13.7026275 L109.697991,15.3551777 L109.697991,32.3397218 C111.22813,32.9211747 112.850077,33.2272025 115.145286,33.2272025 Z M115.451314,31.7582689 C114.74745,31.7582689 114.165997,31.5440495 113.706955,31.2380216 L113.706955,22.3632148 C114.165997,22.057187 114.716847,21.8429675 115.543122,21.8429675 C117.685317,21.8429675 119.184853,23.1282844 119.184853,26.4945904 C119.184853,30.197527 117.440495,31.7582689 115.451314,31.7582689 Z M128.763524,17.6503864 C130.140649,17.6503864 131.242349,16.579289 131.242349,15.2021638 C131.242349,13.7944359 130.140649,12.6927357 128.763524,12.6927357 C127.355796,12.6927357 126.284699,13.7944359 126.284699,15.2021638 C126.284699,16.579289 127.355796,17.6503864 128.763524,17.6503864 Z M132.191036,32.9211747 L132.588872,32.033694 L130.783308,31.4522411 L130.783308,19.2723338 L130.110046,19.2723338 L125.489026,20.7718702 L125.489026,21.1085008 L126.774343,23.1282844 L126.774343,31.5134467 L125.519629,32.0642968 L125.519629,32.9211747 L132.191036,32.9211747 Z M140.790417,32.9211747 L141.188253,32.033694 L139.352087,31.4522411 L139.352087,12.0806801 L138.678825,12.0806801 L133.904791,13.3659969 L133.904791,13.7026275 L135.343122,15.3551777 L135.343122,31.5134467 L134.088408,32.0642968 L134.088408,32.9211747 L140.790417,32.9211747 Z M146.054096,17.6503864 C147.431221,17.6503864 148.532921,16.579289 148.532921,15.2021638 C148.532921,13.7944359 147.431221,12.6927357 146.054096,12.6927357 C144.646368,12.6927357 143.57527,13.7944359 143.57527,15.2021638 C143.57527,16.579289 144.646368,17.6503864 146.054096,17.6503864 Z M149.481607,32.9211747 L149.879444,32.033694 L148.073879,31.4522411 L148.073879,19.2723338 L147.400618,19.2723338 L142.779598,20.7718702 L142.779598,21.1085008 L144.064915,23.1282844 L144.064915,31.5134467 L142.810201,32.0642968 L142.810201,32.9211747 L149.481607,32.9211747 Z M156.581453,33.2272025 C158.540031,33.2272025 160.07017,32.3703246 161.018856,30.9319938 L160.712828,30.197527 C159.855951,30.6565688 159.243895,30.8401855 158.448223,30.8401855 C157.224111,30.8401855 156.55085,30.1669243 156.55085,28.3919629 L156.55085,21.1697063 L160.345595,21.1697063 L160.559815,19.5783617 L156.520247,19.5783617 L156.520247,15.9672334 L155.602164,15.9672334 L150.705719,20.1598145 L150.705719,21.1697063 L152.541886,21.1697063 L152.541886,28.9122102 C152.541886,32.033694 154.194436,33.2272025 156.581453,33.2272025 Z M163.528284,39.5925811 C166.619165,39.5925811 168.302318,37.4197836 169.893663,33.1353941 L174.392272,21.077898 L175.8,20.5882535 L175.616383,19.5783617 L170.475116,19.5783617 L170.322102,20.6188563 L172.250077,21.2003091 L170.566924,26.127357 C169.86306,28.2083462 169.52643,29.7690881 169.52643,29.7690881 L169.404019,29.7690881 C169.404019,29.7690881 169.31221,28.3613601 168.455332,26.1579598 L166.466151,21.1085008 L168.42473,20.649459 L168.241113,19.5783617 L161.141267,19.5783617 L160.927048,20.5270479 L162.304173,21.4451314 L167.598454,34.1452859 C166.925193,36.2262751 165.517465,38.062442 164.201546,38.1848532 C164.415765,37.9400309 164.69119,37.5421947 164.69119,36.8995363 C164.69119,35.9202473 164.109737,35.0021638 162.793818,35.0021638 C161.508501,35.0021638 160.743431,35.8284389 160.743431,37.1137558 C160.743431,38.4602782 161.600309,39.5925811 163.528284,39.5925811 Z M190.030294,32.9211747 C195.171561,32.9211747 199.639567,30.1669243 199.639567,23.6485317 C199.639567,17.1913447 195.232767,14.9267388 189.601855,14.9267388 L182.655023,14.9267388 L182.440804,15.9060278 L184.399382,16.6098918 L184.399382,31.2380216 L182.440804,31.9418856 L182.655023,32.9211747 L190.030294,32.9211747 Z M189.754869,31.5440495 L188.56136,31.0850077 L188.56136,16.4262751 L189.357032,16.4262751 C193.212983,16.4262751 195.202164,18.5990726 195.202164,23.8321484 C195.202164,28.8816074 193.794436,31.4522411 189.754869,31.5440495 Z M211.850077,33.2272025 C213.288408,33.2272025 214.2983,32.8599691 215.063369,32.1255023 L214.971561,31.5134467 C213.53323,31.6664606 213.043586,31.3604328 213.043586,29.9833076 L213.043586,24.1381762 C213.043586,20.4046368 210.56476,19.2723338 208.02473,19.2723338 C205.515301,19.2723338 203.403709,20.2210201 202.08779,21.9959815 L202.455023,22.8834621 C203.74034,22.2102009 204.811437,21.9653787 206.096754,21.9653787 C207.902318,21.9653787 209.034621,22.8528594 209.034621,24.6278207 L209.034621,25.7907264 C208.544977,25.6683153 207.841113,25.5459042 207.198454,25.5459042 C203.801546,25.5459042 201.659351,26.8618238 201.659351,29.5548686 C201.659351,32.0948995 203.342504,33.2272025 205.39289,33.2272025 C207.04544,33.2272025 208.453168,32.6151468 209.095827,31.2380216 L209.187635,31.2686244 C209.432457,32.6763524 210.534158,33.2272025 211.850077,33.2272025 Z M207.25966,30.9319938 C206.188563,30.9319938 205.515301,30.1669243 205.515301,29.0346213 C205.515301,27.4126739 206.555796,26.9536321 208.36136,26.9536321 L209.034621,26.9536321 L209.034621,30.2893354 C208.483771,30.7789799 207.932921,30.9319938 207.25966,30.9319938 Z M221.306337,33.2272025 C223.264915,33.2272025 224.795054,32.3703246 225.74374,30.9319938 L225.437713,30.197527 C224.580835,30.6565688 223.968779,30.8401855 223.173107,30.8401855 C221.948995,30.8401855 221.275734,30.1669243 221.275734,28.3919629 L221.275734,21.1697063 L225.070479,21.1697063 L225.284699,19.5783617 L221.245131,19.5783617 L221.245131,15.9672334 L220.327048,15.9672334 L215.430603,20.1598145 L215.430603,21.1697063 L217.26677,21.1697063 L217.26677,28.9122102 C217.26677,32.033694 218.91932,33.2272025 221.306337,33.2272025 Z M236.730139,33.2272025 C238.16847,33.2272025 239.178362,32.8599691 239.943431,32.1255023 L239.851623,31.5134467 C238.413292,31.6664606 237.923648,31.3604328 237.923648,29.9833076 L237.923648,24.1381762 C237.923648,20.4046368 235.444822,19.2723338 232.904791,19.2723338 C230.395363,19.2723338 228.283771,20.2210201 226.967852,21.9959815 L227.335085,22.8834621 C228.620402,22.2102009 229.691499,21.9653787 230.976816,21.9653787 C232.78238,21.9653787 233.914683,22.8528594 233.914683,24.6278207 L233.914683,25.7907264 C233.425039,25.6683153 232.721175,25.5459042 232.078516,25.5459042 C228.681607,25.5459042 226.539413,26.8618238 226.539413,29.5548686 C226.539413,32.0948995 228.222566,33.2272025 230.272952,33.2272025 C231.925502,33.2272025 233.33323,32.6151468 233.975889,31.2380216 L234.067697,31.2686244 C234.312519,32.6763524 235.414219,33.2272025 236.730139,33.2272025 Z M232.139722,30.9319938 C231.068624,30.9319938 230.395363,30.1669243 230.395363,29.0346213 C230.395363,27.4126739 231.435858,26.9536321 233.241422,26.9536321 L233.914683,26.9536321 L233.914683,30.2893354 C233.363833,30.7789799 232.812983,30.9319938 232.139722,30.9319938 Z M254.540958,32.9211747 L254.755178,31.9418856 L252.7966,31.2380216 L252.7966,24.6278207 L260.049459,24.6278207 L260.049459,31.2380216 L258.090881,31.9418856 L258.3051,32.9211747 L265.955796,32.9211747 L266.170015,31.9418856 L264.211437,31.2380216 L264.211437,16.6098918 L266.170015,15.9060278 L265.955796,14.9267388 L258.3051,14.9267388 L258.090881,15.9060278 L260.049459,16.6098918 L260.049459,23.036476 L252.7966,23.036476 L252.7966,16.6098918 L254.755178,15.9060278 L254.540958,14.9267388 L246.890263,14.9267388 L246.676043,15.9060278 L248.634621,16.6098918 L248.634621,31.2380216 L246.676043,31.9418856 L246.890263,32.9211747 L254.540958,32.9211747 Z M273.239258,33.2272025 C274.861206,33.2272025 276.391345,32.5539413 277.340031,31.0238022 L277.462442,31.0238022 L277.799073,33.1353941 L282.848532,32.1867079 L282.848532,31.6664606 L281.348995,30.2587326 L281.348995,19.2723338 L280.675734,19.2723338 L276.054714,20.7718702 L276.054714,21.1085008 L277.340031,23.1282844 L277.340031,29.8914992 C276.483153,30.5341577 275.809892,30.8095827 274.953014,30.8095827 C273.728903,30.8095827 272.994436,30.0445131 272.994436,28.1777434 L272.994436,19.2723338 L272.321175,19.2723338 L267.700155,20.7718702 L267.700155,21.1085008 L268.985471,23.1282844 L268.985471,28.5755796 C268.985471,32.0642968 271.035858,33.2272025 273.239258,33.2272025 Z M290.774652,33.2272025 C294.844822,33.2272025 298.945595,31.2686244 298.945595,25.6989181 C298.945595,21.5369397 296.589181,19.2723338 293.4983,19.2723338 C291.600927,19.2723338 290.223802,20.0068006 289.458733,21.1697063 L289.336321,21.1697063 L289.336321,12.0806801 L288.66306,12.0806801 L283.889026,13.3659969 L283.889026,13.7026275 L285.327357,15.3551777 L285.327357,32.3397218 C286.857496,32.9211747 288.479444,33.2272025 290.774652,33.2272025 Z M291.08068,31.7582689 C290.376816,31.7582689 289.795363,31.5440495 289.336321,31.2380216 L289.336321,22.3632148 C289.795363,22.057187 290.346213,21.8429675 291.172488,21.8429675 C293.314683,21.8429675 294.814219,23.1282844 294.814219,26.4945904 C294.814219,30.197527 293.069861,31.7582689 291.08068,31.7582689 Z" id="DisabilityDataHub" fill="#FFFFFF" fill-rule="nonzero"></path>
        </g>
    </g>
</svg>