<?xml version="1.0" encoding="UTF-8"?>
<svg width="626px" height="97px" viewBox="0 0 626 97" version="1.1" xmlns="http://www.w3.org/2000/svg" xmlns:xlink="http://www.w3.org/1999/xlink">
    <title>disabilitylogo</title>
    <g id="Page-1" stroke="none" stroke-width="1" fill="none" fill-rule="evenodd">
        <g id="testbg" transform="translate(-36.000000, -116.000000)">
            <g id="disabilitylogo" transform="translate(36.000000, 116.000000)">
                <g id="carbon:accessibility-alt">
                    <rect id="ViewBox" x="0" y="0" width="97" height="97"></rect>
                    <path d="M12,48.5 L48,48.5 L28.6874696,79 C17.5624899,71.8660653 12,61.6993986 12,48.5 Z" id="Shape-Copy" fill="#5B1E6A" fill-rule="nonzero"></path>
                    <path d="M48.0248311,85 C40.9609181,85 34.2859745,83.0419984 28,79.1259952 L48,48.5 L68,79.2319026 C62.2414016,82.880687 55.3772549,85 48.0248311,85 Z" id="Shape-Copy-2" fill="#4DB7C5" fill-rule="nonzero"></path>
                    <path d="M48,48.5 L85,48.5 L65,79.2319026 C53.6666667,71.9433662 48,61.6993986 48,48.5 Z" id="Shape-Copy-5" fill="#BA0A87" fill-rule="nonzero" transform="translate(66.500000, 63.865951) scale(-1, 1) translate(-66.500000, -63.865951) "></path>
                    <path d="M12.0000389,48.5 C12.0000389,23.824791 32.65791,12 48.5002563,12 C64.2207628,12 84.3197071,23.3142416 85,48.5 L12.0000389,48.5 Z" id="Shape-Copy-3" fill="#3D506E" fill-rule="nonzero"></path>
                    <path d="M61.2065135,48.6156 C63.5978288,48.6156 63.5978288,45.0472157 61.2065135,45.0472157 L35.582725,45 C33.472425,45 33.472425,48.6156 35.582725,48.6156 L43.2372622,48.6156 L43.2372622,55.7567172 L35.582725,67.3925781 C33.3173807,71.107013 37.7751386,73.6614578 39.8144991,70.2650541 L47.4604959,58.7313083 L49.677407,58.7313083 L56.9203505,70.4095182 C58.9084685,73.3700755 63.2018234,70.8050256 61.2065135,67.7259051 L53.6765672,55.780325 L53.6765672,48.5883956 L61.2065135,48.6156 Z" id="Path" fill="#FFFFFF" fill-rule="nonzero"></path>
                    <circle id="Oval" fill="#FFFFFF" fill-rule="nonzero" cx="48" cy="38" r="5"></circle>
                    <path d="M48.5,91 C25.0278981,91 6,71.9721019 6,48.5 C6,25.0278981 25.0278981,6 48.5,6 C71.9721019,6 91,25.0278981 91,48.5 C90.9732333,71.9610058 71.9610058,90.9732333 48.5,91 Z M48.5,12.0714286 C28.3810555,12.0714286 12.0714286,28.3810555 12.0714286,48.5 C12.0714286,68.6189445 28.3810555,84.9285714 48.5,84.9285714 C68.6189445,84.9285714 84.9285714,68.6189445 84.9285714,48.5 C84.9051516,28.3907643 68.6092357,12.0948484 48.5,12.0714286 Z" id="Shape" fill="#FFFFFF" fill-rule="nonzero"></path>
                </g>
                <text id="Disability-Figures" fill="#FFFFFF" fill-rule="nonzero" font-family="Newzald-Bold, Newzald" font-size="70" font-weight="bold">
                    <tspan x="113.755" y="72">Disability Figures</tspan>
                </text>
            </g>
        </g>
    </g>
</svg>