<?xml version="1.0" encoding="UTF-8"?>
<svg width="2227px" height="1178px" viewBox="0 0 2227 1178" version="1.1" xmlns="http://www.w3.org/2000/svg" xmlns:xlink="http://www.w3.org/1999/xlink">
    <title>testbg</title>
    <defs>
        <path d="M273.989419,402.992722 C391.626071,402.992722 478.5,312.268936 478.5,194.08 C478.5,75.8910635 359.136652,0 241.5,0 C123.863348,0 0,81.3110635 0,199.5 C0,317.688936 156.352768,402.992722 273.989419,402.992722 Z" id="path-1"></path>
        <path d="M273.989419,402.992722 C391.626071,402.992722 478.5,312.268936 478.5,194.08 C478.5,75.8910635 359.136652,0 241.5,0 C123.863348,0 0,81.3110635 0,199.5 C0,317.688936 156.352768,402.992722 273.989419,402.992722 Z" id="path-3"></path>
        <polygon id="path-5" points="136.641901 64.7350563 812.174418 768.182206 90.2427808 1008.70073"></polygon>
        <polygon id="path-7" points="505.862062 87.4623952 907.003879 912.3457 107.712926 1025.03262"></polygon>
    </defs>
    <g id="testbg" stroke="none" stroke-width="1" fill="none" fill-rule="evenodd">
        <rect fill="#5461C8" x="0" y="0" width="2227" height="1178"></rect>
        <text id="Disability-in-Aotear" opacity="0.0936104911" font-family="BrailleNormal, Braille Normal" font-size="50" font-weight="normal" fill="#000000">
            <tspan x="0" y="40">Disability in Aotearoa Disability in Aotearoa Disability in </tspan>
            <tspan x="0" y="100">Aotearoa Disability in Aotearoa Disability in Aotearoa </tspan>
            <tspan x="0" y="160">Disability in Aotearoa  Disability in Aotearoa Disability in </tspan>
            <tspan x="0" y="220">Aotearoa Disability in Aotearoa Disability in Aotearoa </tspan>
            <tspan x="0" y="280">Disability in Aotearoa Disability in Aotearoa  Disability in </tspan>
            <tspan x="0" y="340">Aotearoa Disability in Aotearoa Disability in Aotearoa </tspan>
            <tspan x="0" y="400">Disability in Aotearoa Disability in Aotearoa Disability in </tspan>
            <tspan x="0" y="460">Aotearoa  Disability in Aotearoa Disability in Aotearoa </tspan>
            <tspan x="0" y="520">Disability in Aotearoa Disability in Aotearoa Disability in </tspan>
            <tspan x="0" y="580">Aotearoa Disability in Aotearoa  Disability in Aotearoa </tspan>
            <tspan x="0" y="640">Disability in Aotearoa Disability in Aotearoa Disability in </tspan>
            <tspan x="0" y="700">Aotearoa Disability in Aotearoa Disability in Aotearoa  </tspan>
            <tspan x="0" y="760">Disability in Aotearoa Disability in Aotearoa Disability in </tspan>
            <tspan x="0" y="820">Aotearoa Disability in Aotearoa Disability in Aotearoa </tspan>
            <tspan x="0" y="880">Disability in Aotearoa  Disability in Aotearoa Disability in </tspan>
            <tspan x="0" y="940">Aotearoa Disability in Aotearoa Disability in Aotearoa </tspan>
            <tspan x="0" y="1000">Disability in Aotearoa Disability in Aotearoa  Disability in </tspan>
            <tspan x="0" y="1060">Aotearoa Disability in Aotearoa Disability in Aotearoa </tspan>
            <tspan x="0" y="1120">Disability in Aotearoa Disability in Aotearoa Disability in </tspan>
            <tspan x="0" y="1180">Aotearoa  Disability in Aotearoa Disability in Aotearoa </tspan>
            <tspan x="0" y="1240">Disability in Aotearoa Disability in Aotearoa Disability in </tspan>
            <tspan x="0" y="1300">Aotearoa Disability in Aotearoa  Disability in Aotearoa </tspan>
            <tspan x="0" y="1360">Disability in Aotearoa Disability in Aotearoa Disability in </tspan>
            <tspan x="0" y="1420">Aotearoa Disability in Aotearoa Disability in Aotearoa  </tspan>
            <tspan x="0" y="1480">Disability in Aotearoa Disability in Aotearoa Disability in </tspan>
            <tspan x="0" y="1540">Aotearoa Disability in Aotearoa Disability in Aotearoa </tspan>
            <tspan x="0" y="1600">Disability in Aotearoa  Disability in Aotearoa Disability in </tspan>
            <tspan x="0" y="1660">Aotearoa Disability in Aotearoa Disability in Aotearoa </tspan>
            <tspan x="0" y="1720">Disability in Aotearoa Disability in Aotearoa  Disability in </tspan>
            <tspan x="0" y="1780">Aotearoa Disability in Aotearoa Disability in Aotearoa </tspan>
            <tspan x="0" y="1840">Disability in Aotearoa Disability in Aotearoa Disability in </tspan>
            <tspan x="0" y="1900">Aotearoa  Disability in Aotearoa Disability in Aotearoa </tspan>
            <tspan x="0" y="1960">Disability in Aotearoa Disability in Aotearoa Disability in </tspan>
            <tspan x="0" y="2020">Aotearoa Disability in Aotearoa  Disability in Aotearoa </tspan>
            <tspan x="0" y="2080">Disability in Aotearoa Disability in Aotearoa Disability in </tspan>
            <tspan x="0" y="2140">Aotearoa Disability in Aotearoa Disability in Aotearoa  </tspan>
            <tspan x="0" y="2200">Disability in Aotearoa Disability in Aotearoa Disability in </tspan>
            <tspan x="0" y="2260">Aotearoa Disability in Aotearoa Disability in Aotearoa </tspan>
            <tspan x="0" y="2320">Disability in Aotearoa  </tspan>
        </text>
        <g id="circle" transform="translate(1369.500000, -48.000000)">
            <mask id="mask-2" fill="white">
                <use xlink:href="#path-1"></use>
            </mask>
            <use id="Oval" fill-opacity="0.5" fill="#4DB7C5" xlink:href="#path-1"></use>
            <polyline id="Path-2" stroke="#5461C8" stroke-width="7" mask="url(#mask-2)" points="538.596288 331.658341 523.841175 322.886059 516.191123 317.18508 508.561256 311.4841 495.38056 302.731892 478.990476 293.417616 465.80978 284.665408 445.927719 272.299903 432.747023 263.547695 425.682331 260.034768 409.292247 250.720492 396.111551 241.968284 372.454926 228.900193 360.142178 222.777663 346.961482 214.025455 333.841341 205.313395 318.460498 198.749239 305.279802 189.997031 288.909902 178.374259 275.729206 169.622051 262.54851 160.869843 254.938828 155.188938 241.758132 146.43673 231.524421 138.286738 221.976995 132.585759 211.702915 124.415693 202.155489 118.714713 191.962148 110.604869 182.414722 104.90389 174.764671 97.2958927 167.134804 91.6149871 159.484752 85.9140077 151.8347 80.2130282 144.184648 74.5120487 139.320104 71.2801554 134.011492 66.0007273 129.167132 62.7889079 123.858521 57.5094797 120.911536 54.5786945 116.046991 51.3468012 112.797233 46.5089982 107.932688 43.2771049 104.985702 40.3463197 101.735944 35.5085167 98.7687737 32.5576576 95.8016033 31.0721911 92.8344328 28.121332"></polyline>
            <polyline id="Path-2-Copy-5" stroke="#5461C8" stroke-width="7" mask="url(#mask-2)" points="512.596288 367.658341 497.841175 358.886059 490.191123 353.18508 482.561256 347.4841 469.38056 338.731892 452.990476 329.417616 439.80978 320.665408 419.927719 308.299903 406.747023 299.547695 399.682331 296.034768 383.292247 286.720492 370.111551 277.968284 346.454926 264.900193 334.142178 258.777663 320.961482 250.025455 307.841341 241.313395 292.460498 234.749239 279.279802 225.997031 262.909902 214.374259 249.729206 205.622051 236.54851 196.869843 228.938828 191.188938 215.758132 182.43673 205.524421 174.286738 195.976995 168.585759 185.702915 160.415693 176.155489 154.714713 165.962148 146.604869 156.414722 140.90389 148.764671 133.295893 141.134804 127.614987 133.484752 121.914008 125.8347 116.213028 118.184648 110.512049 113.320104 107.280155 108.011492 102.000727 103.167132 98.7889079 97.8585213 93.5094797 94.9115357 90.5786945 90.0469909 87.3468012 86.7972328 82.5089982 81.932688 79.2771049 78.9857023 76.3463197 75.7359442 71.5085167 72.7687737 68.5576576 69.8016033 67.0721911 66.8344328 64.121332"></polyline>
            <polyline id="Path-2-Copy-6" stroke="#5461C8" stroke-width="7" mask="url(#mask-2)" points="478.596288 402.658341 463.841175 393.886059 456.191123 388.18508 448.561256 382.4841 435.38056 373.731892 418.990476 364.417616 405.80978 355.665408 385.927719 343.299903 372.747023 334.547695 365.682331 331.034768 349.292247 321.720492 336.111551 312.968284 312.454926 299.900193 300.142178 293.777663 286.961482 285.025455 273.841341 276.313395 258.460498 269.749239 245.279802 260.997031 228.909902 249.374259 215.729206 240.622051 202.54851 231.869843 194.938828 226.188938 181.758132 217.43673 171.524421 209.286738 161.976995 203.585759 151.702915 195.415693 142.155489 189.714713 131.962148 181.604869 122.414722 175.90389 114.764671 168.295893 107.134804 162.614987 99.4847518 156.914008 91.8347001 151.213028 84.1846483 145.512049 79.3201035 142.280155 74.0114924 137.000727 69.1671325 133.788908 63.8585213 128.50948 60.9115357 125.578694 56.0469909 122.346801 52.7972328 117.508998 47.932688 114.277105 44.9857023 111.34632 41.7359442 106.508517 38.7687737 103.557658 35.8016033 102.072191 32.8344328 99.121332"></polyline>
            <polyline id="Path-2-Copy-7" stroke="#5461C8" stroke-width="7" mask="url(#mask-2)" points="446.596288 441.658341 431.841175 432.886059 424.191123 427.18508 416.561256 421.4841 403.38056 412.731892 386.990476 403.417616 373.80978 394.665408 353.927719 382.299903 340.747023 373.547695 333.682331 370.034768 317.292247 360.720492 304.111551 351.968284 280.454926 338.900193 268.142178 332.777663 254.961482 324.025455 241.841341 315.313395 226.460498 308.749239 213.279802 299.997031 196.909902 288.374259 183.729206 279.622051 170.54851 270.869843 162.938828 265.188938 149.758132 256.43673 139.524421 248.286738 129.976995 242.585759 119.702915 234.415693 110.155489 228.714713 99.9621484 220.604869 90.4147223 214.90389 82.7646705 207.295893 75.1348036 201.614987 67.4847518 195.914008 59.8347001 190.213028 52.1846483 184.512049 47.3201035 181.280155 42.0114924 176.000727 37.1671325 172.788908 31.8585213 167.50948 28.9115357 164.578694 24.0469909 161.346801 20.7972328 156.508998 15.932688 153.277105 12.9857023 150.34632 9.73594421 145.508517 6.76877374 142.557658 3.80160326 141.072191 0.834432792 138.121332"></polyline>
            <polyline id="Path-2-Copy-8" stroke="#5461C8" stroke-width="7" mask="url(#mask-2)" points="416.596288 483.658341 401.841175 474.886059 394.191123 469.18508 386.561256 463.4841 373.38056 454.731892 356.990476 445.417616 343.80978 436.665408 323.927719 424.299903 310.747023 415.547695 303.682331 412.034768 287.292247 402.720492 274.111551 393.968284 250.454926 380.900193 238.142178 374.777663 224.961482 366.025455 211.841341 357.313395 196.460498 350.749239 183.279802 341.997031 166.909902 330.374259 153.729206 321.622051 140.54851 312.869843 132.938828 307.188938 119.758132 298.43673 109.524421 290.286738 99.9769953 284.585759 89.7029152 276.415693 80.1554891 270.714713 69.9621484 262.604869 60.4147223 256.90389 52.7646705 249.295893 45.1348036 243.614987 37.4847518 237.914008 29.8347001 232.213028 22.1846483 226.512049 17.3201035 223.280155 12.0114924 218.000727 7.16713245 214.788908 1.85852133 209.50948 -1.0884643 206.578694 -5.95300909 203.346801 -9.20276723 198.508998 -14.067312 195.277105 -17.0142977 192.34632 -20.2640558 187.508517 -23.2312263 184.557658 -26.1983967 183.072191 -29.1655672 180.121332"></polyline>
            <polyline id="Path-2-Copy-9" stroke="#5461C8" stroke-width="7" mask="url(#mask-2)" points="399.596288 519.658341 384.841175 510.886059 377.191123 505.18508 369.561256 499.4841 356.38056 490.731892 339.990476 481.417616 326.80978 472.665408 306.927719 460.299903 293.747023 451.547695 286.682331 448.034768 270.292247 438.720492 257.111551 429.968284 233.454926 416.900193 221.142178 410.777663 207.961482 402.025455 194.841341 393.313395 179.460498 386.749239 166.279802 377.997031 149.909902 366.374259 136.729206 357.622051 123.54851 348.869843 115.938828 343.188938 102.758132 334.43673 92.5244213 326.286738 82.9769953 320.585759 72.7029152 312.415693 63.1554891 306.714713 52.9621484 298.604869 43.4147223 292.90389 35.7646705 285.295893 28.1348036 279.614987 20.4847518 273.914008 12.8347001 268.213028 5.18464831 262.512049 0.320103524 259.280155 -4.98850759 254.000727 -9.83286755 250.788908 -15.1414787 245.50948 -18.0884643 242.578694 -22.9530091 239.346801 -26.2027672 234.508998 -31.067312 231.277105 -34.0142977 228.34632 -37.2640558 223.508517 -40.2312263 220.557658 -43.1983967 219.072191 -46.1655672 216.121332"></polyline>
            <polyline id="Path-2-Copy" stroke="#5461C8" stroke-width="7" mask="url(#mask-2)" points="570.596288 303.658341 555.841175 294.886059 548.191123 289.18508 540.561256 283.4841 527.38056 274.731892 510.990476 265.417616 497.80978 256.665408 477.927719 244.299903 464.747023 235.547695 457.682331 232.034768 441.292247 222.720492 428.111551 213.968284 404.454926 200.900193 392.142178 194.777663 378.961482 186.025455 365.841341 177.313395 350.460498 170.749239 337.279802 161.997031 320.909902 150.374259 307.729206 141.622051 294.54851 132.869843 286.938828 127.188938 273.758132 118.43673 263.524421 110.286738 253.976995 104.585759 243.702915 96.4156929 234.155489 90.7147135 223.962148 82.6048694 214.414722 76.90389 206.764671 69.2958927 199.134804 63.6149871 191.484752 57.9140077 183.8347 52.2130282 176.184648 46.5120487 171.320104 43.2801554 166.011492 38.0007273 161.167132 34.7889079 155.858521 29.5094797 152.911536 26.5786945 148.046991 23.3468012 144.797233 18.5089982 139.932688 15.2771049 136.985702 12.3463197 133.735944 7.50851667 130.768774 4.55765758 127.801603 3.0721911 124.834433 0.121332013"></polyline>
            <polyline id="Path-2-Copy-2" stroke="#5461C8" stroke-width="7" mask="url(#mask-2)" points="606.596288 278.658341 591.841175 269.886059 584.191123 264.18508 576.561256 258.4841 563.38056 249.731892 546.990476 240.417616 533.80978 231.665408 513.927719 219.299903 500.747023 210.547695 493.682331 207.034768 477.292247 197.720492 464.111551 188.968284 440.454926 175.900193 428.142178 169.777663 414.961482 161.025455 401.841341 152.313395 386.460498 145.749239 373.279802 136.997031 356.909902 125.374259 343.729206 116.622051 330.54851 107.869843 322.938828 102.188938 309.758132 93.4367298 299.524421 85.2867381 289.976995 79.5857586 279.702915 71.4156929 270.155489 65.7147135 259.962148 57.6048694 250.414722 51.90389 242.764671 44.2958927 235.134804 38.6149871 227.484752 32.9140077 219.8347 27.2130282 212.184648 21.5120487 207.320104 18.2801554 202.011492 13.0007273 197.167132 9.78890786 191.858521 4.50947969 188.911536 1.57869447 184.046991 -1.65319882 180.797233 -6.49100182 175.932688 -9.72289511 172.985702 -12.6536803 169.735944 -17.4914833 166.768774 -20.4423424 163.801603 -21.9278089 160.834433 -24.878668"></polyline>
            <polyline id="Path-2-Copy-3" stroke="#5461C8" stroke-width="7" mask="url(#mask-2)" points="639.596288 252.658341 624.841175 243.886059 617.191123 238.18508 609.561256 232.4841 596.38056 223.731892 579.990476 214.417616 566.80978 205.665408 546.927719 193.299903 533.747023 184.547695 526.682331 181.034768 510.292247 171.720492 497.111551 162.968284 473.454926 149.900193 461.142178 143.777663 447.961482 135.025455 434.841341 126.313395 419.460498 119.749239 406.279802 110.997031 389.909902 99.3742592 376.729206 90.6220512 363.54851 81.8698433 355.938828 76.1889377 342.758132 67.4367298 332.524421 59.2867381 322.976995 53.5857586 312.702915 45.4156929 303.155489 39.7147135 292.962148 31.6048694 283.414722 25.90389 275.764671 18.2958927 268.134804 12.6149871 260.484752 6.91400767 252.8347 1.2130282 245.184648 -4.48795127 240.320104 -7.71984456 235.011492 -12.9992727 230.167132 -16.2110921 224.858521 -21.4905203 221.911536 -24.4213055 217.046991 -27.6531988 213.797233 -32.4910018 208.932688 -35.7228951 205.985702 -38.6536803 202.735944 -43.4914833 199.768774 -46.4423424 196.801603 -47.9278089 193.834433 -50.878668"></polyline>
            <polyline id="Path-2-Copy-4" stroke="#5461C8" stroke-width="7" mask="url(#mask-2)" points="672.596288 226.658341 657.841175 217.886059 650.191123 212.18508 642.561256 206.4841 629.38056 197.731892 612.990476 188.417616 599.80978 179.665408 579.927719 167.299903 566.747023 158.547695 559.682331 155.034768 543.292247 145.720492 530.111551 136.968284 506.454926 123.900193 494.142178 117.777663 480.961482 109.025455 467.841341 100.313395 452.460498 93.7492386 439.279802 84.9970307 422.909902 73.3742592 409.729206 64.6220512 396.54851 55.8698433 388.938828 50.1889377 375.758132 41.4367298 365.524421 33.2867381 355.976995 27.5857586 345.702915 19.4156929 336.155489 13.7147135 325.962148 5.60486944 316.414722 -0.0961100255 308.764671 -7.70410727 301.134804 -13.3850129 293.484752 -19.0859923 285.8347 -24.7869718 278.184648 -30.4879513 273.320104 -33.7198446 268.011492 -38.9992727 263.167132 -42.2110921 257.858521 -47.4905203 254.911536 -50.4213055 250.046991 -53.6531988 246.797233 -58.4910018 241.932688 -61.7228951 238.985702 -64.6536803 235.735944 -69.4914833 232.768774 -72.4423424 229.801603 -73.9278089 226.834433 -76.878668"></polyline>
        </g>
        <g id="circle-copy" transform="translate(1987.750000, 886.496361) scale(-1, 1) translate(-1987.750000, -886.496361) translate(1748.500000, 685.000000)">
            <mask id="mask-4" fill="white">
                <use xlink:href="#path-3"></use>
            </mask>
            <use id="Oval" fill-opacity="0.5" fill="#BA0A87" xlink:href="#path-3"></use>
            <polyline id="Path-2" stroke="#5461C8" stroke-width="7" mask="url(#mask-4)" points="538.596288 331.658341 523.841175 322.886059 516.191123 317.18508 508.561256 311.4841 495.38056 302.731892 478.990476 293.417616 465.80978 284.665408 445.927719 272.299903 432.747023 263.547695 425.682331 260.034768 409.292247 250.720492 396.111551 241.968284 372.454926 228.900193 360.142178 222.777663 346.961482 214.025455 333.841341 205.313395 318.460498 198.749239 305.279802 189.997031 288.909902 178.374259 275.729206 169.622051 262.54851 160.869843 254.938828 155.188938 241.758132 146.43673 231.524421 138.286738 221.976995 132.585759 211.702915 124.415693 202.155489 118.714713 191.962148 110.604869 182.414722 104.90389 174.764671 97.2958927 167.134804 91.6149871 159.484752 85.9140077 151.8347 80.2130282 144.184648 74.5120487 139.320104 71.2801554 134.011492 66.0007273 129.167132 62.7889079 123.858521 57.5094797 120.911536 54.5786945 116.046991 51.3468012 112.797233 46.5089982 107.932688 43.2771049 104.985702 40.3463197 101.735944 35.5085167 98.7687737 32.5576576 95.8016033 31.0721911 92.8344328 28.121332"></polyline>
            <polyline id="Path-2-Copy-5" stroke="#5461C8" stroke-width="7" mask="url(#mask-4)" points="512.596288 367.658341 497.841175 358.886059 490.191123 353.18508 482.561256 347.4841 469.38056 338.731892 452.990476 329.417616 439.80978 320.665408 419.927719 308.299903 406.747023 299.547695 399.682331 296.034768 383.292247 286.720492 370.111551 277.968284 346.454926 264.900193 334.142178 258.777663 320.961482 250.025455 307.841341 241.313395 292.460498 234.749239 279.279802 225.997031 262.909902 214.374259 249.729206 205.622051 236.54851 196.869843 228.938828 191.188938 215.758132 182.43673 205.524421 174.286738 195.976995 168.585759 185.702915 160.415693 176.155489 154.714713 165.962148 146.604869 156.414722 140.90389 148.764671 133.295893 141.134804 127.614987 133.484752 121.914008 125.8347 116.213028 118.184648 110.512049 113.320104 107.280155 108.011492 102.000727 103.167132 98.7889079 97.8585213 93.5094797 94.9115357 90.5786945 90.0469909 87.3468012 86.7972328 82.5089982 81.932688 79.2771049 78.9857023 76.3463197 75.7359442 71.5085167 72.7687737 68.5576576 69.8016033 67.0721911 66.8344328 64.121332"></polyline>
            <polyline id="Path-2-Copy-6" stroke="#5461C8" stroke-width="7" mask="url(#mask-4)" points="478.596288 402.658341 463.841175 393.886059 456.191123 388.18508 448.561256 382.4841 435.38056 373.731892 418.990476 364.417616 405.80978 355.665408 385.927719 343.299903 372.747023 334.547695 365.682331 331.034768 349.292247 321.720492 336.111551 312.968284 312.454926 299.900193 300.142178 293.777663 286.961482 285.025455 273.841341 276.313395 258.460498 269.749239 245.279802 260.997031 228.909902 249.374259 215.729206 240.622051 202.54851 231.869843 194.938828 226.188938 181.758132 217.43673 171.524421 209.286738 161.976995 203.585759 151.702915 195.415693 142.155489 189.714713 131.962148 181.604869 122.414722 175.90389 114.764671 168.295893 107.134804 162.614987 99.4847518 156.914008 91.8347001 151.213028 84.1846483 145.512049 79.3201035 142.280155 74.0114924 137.000727 69.1671325 133.788908 63.8585213 128.50948 60.9115357 125.578694 56.0469909 122.346801 52.7972328 117.508998 47.932688 114.277105 44.9857023 111.34632 41.7359442 106.508517 38.7687737 103.557658 35.8016033 102.072191 32.8344328 99.121332"></polyline>
            <polyline id="Path-2-Copy-7" stroke="#5461C8" stroke-width="7" mask="url(#mask-4)" points="446.596288 441.658341 431.841175 432.886059 424.191123 427.18508 416.561256 421.4841 403.38056 412.731892 386.990476 403.417616 373.80978 394.665408 353.927719 382.299903 340.747023 373.547695 333.682331 370.034768 317.292247 360.720492 304.111551 351.968284 280.454926 338.900193 268.142178 332.777663 254.961482 324.025455 241.841341 315.313395 226.460498 308.749239 213.279802 299.997031 196.909902 288.374259 183.729206 279.622051 170.54851 270.869843 162.938828 265.188938 149.758132 256.43673 139.524421 248.286738 129.976995 242.585759 119.702915 234.415693 110.155489 228.714713 99.9621484 220.604869 90.4147223 214.90389 82.7646705 207.295893 75.1348036 201.614987 67.4847518 195.914008 59.8347001 190.213028 52.1846483 184.512049 47.3201035 181.280155 42.0114924 176.000727 37.1671325 172.788908 31.8585213 167.50948 28.9115357 164.578694 24.0469909 161.346801 20.7972328 156.508998 15.932688 153.277105 12.9857023 150.34632 9.73594421 145.508517 6.76877374 142.557658 3.80160326 141.072191 0.834432792 138.121332"></polyline>
            <polyline id="Path-2-Copy-8" stroke="#5461C8" stroke-width="7" mask="url(#mask-4)" points="416.596288 483.658341 401.841175 474.886059 394.191123 469.18508 386.561256 463.4841 373.38056 454.731892 356.990476 445.417616 343.80978 436.665408 323.927719 424.299903 310.747023 415.547695 303.682331 412.034768 287.292247 402.720492 274.111551 393.968284 250.454926 380.900193 238.142178 374.777663 224.961482 366.025455 211.841341 357.313395 196.460498 350.749239 183.279802 341.997031 166.909902 330.374259 153.729206 321.622051 140.54851 312.869843 132.938828 307.188938 119.758132 298.43673 109.524421 290.286738 99.9769953 284.585759 89.7029152 276.415693 80.1554891 270.714713 69.9621484 262.604869 60.4147223 256.90389 52.7646705 249.295893 45.1348036 243.614987 37.4847518 237.914008 29.8347001 232.213028 22.1846483 226.512049 17.3201035 223.280155 12.0114924 218.000727 7.16713245 214.788908 1.85852133 209.50948 -1.0884643 206.578694 -5.95300909 203.346801 -9.20276723 198.508998 -14.067312 195.277105 -17.0142977 192.34632 -20.2640558 187.508517 -23.2312263 184.557658 -26.1983967 183.072191 -29.1655672 180.121332"></polyline>
            <polyline id="Path-2-Copy-9" stroke="#5461C8" stroke-width="7" mask="url(#mask-4)" points="399.596288 519.658341 384.841175 510.886059 377.191123 505.18508 369.561256 499.4841 356.38056 490.731892 339.990476 481.417616 326.80978 472.665408 306.927719 460.299903 293.747023 451.547695 286.682331 448.034768 270.292247 438.720492 257.111551 429.968284 233.454926 416.900193 221.142178 410.777663 207.961482 402.025455 194.841341 393.313395 179.460498 386.749239 166.279802 377.997031 149.909902 366.374259 136.729206 357.622051 123.54851 348.869843 115.938828 343.188938 102.758132 334.43673 92.5244213 326.286738 82.9769953 320.585759 72.7029152 312.415693 63.1554891 306.714713 52.9621484 298.604869 43.4147223 292.90389 35.7646705 285.295893 28.1348036 279.614987 20.4847518 273.914008 12.8347001 268.213028 5.18464831 262.512049 0.320103524 259.280155 -4.98850759 254.000727 -9.83286755 250.788908 -15.1414787 245.50948 -18.0884643 242.578694 -22.9530091 239.346801 -26.2027672 234.508998 -31.067312 231.277105 -34.0142977 228.34632 -37.2640558 223.508517 -40.2312263 220.557658 -43.1983967 219.072191 -46.1655672 216.121332"></polyline>
            <polyline id="Path-2-Copy" stroke="#5461C8" stroke-width="7" mask="url(#mask-4)" points="570.596288 303.658341 555.841175 294.886059 548.191123 289.18508 540.561256 283.4841 527.38056 274.731892 510.990476 265.417616 497.80978 256.665408 477.927719 244.299903 464.747023 235.547695 457.682331 232.034768 441.292247 222.720492 428.111551 213.968284 404.454926 200.900193 392.142178 194.777663 378.961482 186.025455 365.841341 177.313395 350.460498 170.749239 337.279802 161.997031 320.909902 150.374259 307.729206 141.622051 294.54851 132.869843 286.938828 127.188938 273.758132 118.43673 263.524421 110.286738 253.976995 104.585759 243.702915 96.4156929 234.155489 90.7147135 223.962148 82.6048694 214.414722 76.90389 206.764671 69.2958927 199.134804 63.6149871 191.484752 57.9140077 183.8347 52.2130282 176.184648 46.5120487 171.320104 43.2801554 166.011492 38.0007273 161.167132 34.7889079 155.858521 29.5094797 152.911536 26.5786945 148.046991 23.3468012 144.797233 18.5089982 139.932688 15.2771049 136.985702 12.3463197 133.735944 7.50851667 130.768774 4.55765758 127.801603 3.0721911 124.834433 0.121332013"></polyline>
            <polyline id="Path-2-Copy-2" stroke="#5461C8" stroke-width="7" mask="url(#mask-4)" points="606.596288 278.658341 591.841175 269.886059 584.191123 264.18508 576.561256 258.4841 563.38056 249.731892 546.990476 240.417616 533.80978 231.665408 513.927719 219.299903 500.747023 210.547695 493.682331 207.034768 477.292247 197.720492 464.111551 188.968284 440.454926 175.900193 428.142178 169.777663 414.961482 161.025455 401.841341 152.313395 386.460498 145.749239 373.279802 136.997031 356.909902 125.374259 343.729206 116.622051 330.54851 107.869843 322.938828 102.188938 309.758132 93.4367298 299.524421 85.2867381 289.976995 79.5857586 279.702915 71.4156929 270.155489 65.7147135 259.962148 57.6048694 250.414722 51.90389 242.764671 44.2958927 235.134804 38.6149871 227.484752 32.9140077 219.8347 27.2130282 212.184648 21.5120487 207.320104 18.2801554 202.011492 13.0007273 197.167132 9.78890786 191.858521 4.50947969 188.911536 1.57869447 184.046991 -1.65319882 180.797233 -6.49100182 175.932688 -9.72289511 172.985702 -12.6536803 169.735944 -17.4914833 166.768774 -20.4423424 163.801603 -21.9278089 160.834433 -24.878668"></polyline>
            <polyline id="Path-2-Copy-3" stroke="#5461C8" stroke-width="7" mask="url(#mask-4)" points="639.596288 252.658341 624.841175 243.886059 617.191123 238.18508 609.561256 232.4841 596.38056 223.731892 579.990476 214.417616 566.80978 205.665408 546.927719 193.299903 533.747023 184.547695 526.682331 181.034768 510.292247 171.720492 497.111551 162.968284 473.454926 149.900193 461.142178 143.777663 447.961482 135.025455 434.841341 126.313395 419.460498 119.749239 406.279802 110.997031 389.909902 99.3742592 376.729206 90.6220512 363.54851 81.8698433 355.938828 76.1889377 342.758132 67.4367298 332.524421 59.2867381 322.976995 53.5857586 312.702915 45.4156929 303.155489 39.7147135 292.962148 31.6048694 283.414722 25.90389 275.764671 18.2958927 268.134804 12.6149871 260.484752 6.91400767 252.8347 1.2130282 245.184648 -4.48795127 240.320104 -7.71984456 235.011492 -12.9992727 230.167132 -16.2110921 224.858521 -21.4905203 221.911536 -24.4213055 217.046991 -27.6531988 213.797233 -32.4910018 208.932688 -35.7228951 205.985702 -38.6536803 202.735944 -43.4914833 199.768774 -46.4423424 196.801603 -47.9278089 193.834433 -50.878668"></polyline>
            <polyline id="Path-2-Copy-4" stroke="#5461C8" stroke-width="7" mask="url(#mask-4)" points="672.596288 226.658341 657.841175 217.886059 650.191123 212.18508 642.561256 206.4841 629.38056 197.731892 612.990476 188.417616 599.80978 179.665408 579.927719 167.299903 566.747023 158.547695 559.682331 155.034768 543.292247 145.720492 530.111551 136.968284 506.454926 123.900193 494.142178 117.777663 480.961482 109.025455 467.841341 100.313395 452.460498 93.7492386 439.279802 84.9970307 422.909902 73.3742592 409.729206 64.6220512 396.54851 55.8698433 388.938828 50.1889377 375.758132 41.4367298 365.524421 33.2867381 355.976995 27.5857586 345.702915 19.4156929 336.155489 13.7147135 325.962148 5.60486944 316.414722 -0.0961100255 308.764671 -7.70410727 301.134804 -13.3850129 293.484752 -19.0859923 285.8347 -24.7869718 278.184648 -30.4879513 273.320104 -33.7198446 268.011492 -38.9992727 263.167132 -42.2110921 257.858521 -47.4905203 254.911536 -50.4213055 250.046991 -53.6531988 246.797233 -58.4910018 241.932688 -61.7228951 238.985702 -64.6536803 235.735944 -69.4914833 232.768774 -72.4423424 229.801603 -73.9278089 226.834433 -76.878668"></polyline>
        </g>
        <g id="blind-group" transform="translate(1586.283000, -134.553169)">
            <mask id="mask-6" fill="white">
                <use xlink:href="#path-5"></use>
            </mask>
            <use id="Triangle-Copy" fill="#BA0A87" transform="translate(451.208600, 536.717895) rotate(12.000000) translate(-451.208600, -536.717895) " xlink:href="#path-5"></use>
            <polygon id="Triangle-Copy-2" fill="#4DB7C5" mask="url(#mask-6)" transform="translate(301.065256, 1014.177585) rotate(12.000000) translate(-301.065256, -1014.177585) " points="-76.556004 873.35392 678.686516 914.482723 -43.2451215 1155.00125"></polygon>
            <polygon id="Triangle-Copy-3" fill="#FAF379" mask="url(#mask-6)" transform="translate(514.686819, 530.560172) rotate(12.000000) translate(-514.686819, -530.560172) " points="214.531806 145.904826 814.841832 781.245509 499.244517 915.215517"></polygon>
            <g id="blind" mask="url(#mask-6)">
                <g transform="translate(160.717000, 143.553169)">
                    <path d="M163,90.624911 C148.267546,99.5263202 131.621805,104.764723 114.454743,105.902069 C112.871108,105.902069 111.033309,106 109,106 C116.257012,104.347241 123.214865,101.578931 129.626358,97.7934238 C137.720492,92.8968987 137.544533,80.1659333 139.401883,76.2487132 C143.761767,74.7209973 146.635771,63.2631285 144.622013,58.2099145 C144.256815,57.0834981 143.578604,56.0847401 142.666908,55.3307577 C145.612259,54.6311808 148.711903,55.0498595 151.367125,56.5059237 C158.542361,59.9530775 163,74.7601695 163,90.624911 Z" id="Path" stroke="none" fill="#000000" fill-rule="nonzero"></path>
                    <path d="M134,93 C128.196721,97.0194998 116.708197,99.4111022 111.455738,99.9336372 C106.934836,100.363328 102.37513,99.9478952 98,98.7076897 C98.2754098,101.28017 100.065574,108.093222 100.12459,110.987262 C113.993443,111.349017 125.009836,103.973235 134,93 Z" id="Path" stroke="none" fill="#57280F" fill-rule="nonzero"></path>
                    <path d="M134.692173,93 C125.771899,103.656094 113.943264,111.653052 100.182229,111.32066 C100.318264,115.344964 100.207447,119.373837 99.8504022,123.384532 L99.8504022,123.384532 C99.1086726,124.029763 88.9391698,132.789268 90.0908026,145.674343 C91.2619545,159.067782 95.4781016,183 95.4781016,183 C95.4781016,183 139.064473,169.743428 142.32418,161.492288 C145.388694,153.671301 136.839285,127.862046 140.255144,123.20856 C140.477606,122.899874 140.673501,122.572824 140.84072,122.230936 C135.394864,114.390398 131.295832,108.016294 134.692173,93 Z" id="Path" stroke="none" fill="#793816" fill-rule="nonzero"></path>
                    <g id="Group" stroke="none" stroke-width="1" fill="none" fill-rule="evenodd" transform="translate(0.000000, 121.000000)">
                        <path d="M173.000307,550.066998 L170.591056,550.810517 L146.635664,558.343537 L145.205784,558.793561 L142.757359,550.438757 C148.143894,535.72491 154.509799,513.888935 159.543762,497.316291 L173.000307,550.066998 Z" id="Path" fill="#2C3A42" fill-rule="nonzero"></path>
                        <path d="M220.950265,313.745396 C218.991525,315.838988 203.321604,322.295863 202.577283,322.178465 C202.577283,322.178465 192.783582,322.882851 194.193875,322.021935 C195.604168,321.161018 206.259714,309.206017 207.905056,307.777678 C208.806077,310.145199 213.311179,308.677728 213.467878,302.299118 C216.286001,305.893136 218.789361,309.722683 220.950265,313.745396 Z" id="Path" fill="#1E1006" fill-rule="nonzero"></path>
                        <path d="M64.0943539,101.470759 C64.0943539,101.470759 61.802628,146.708012 57.6305114,179.305445 L57.6305114,179.305445 C51.8718154,196.465078 43.4884075,224.875325 41.3925556,229.453836 C38.3173335,236.125939 30.7565965,258.431505 30.7565965,258.431505 C30.7565965,258.431505 34.3802658,271.717013 28.0927099,280.404444 C24.1752296,285.726474 25.9185083,301.203406 20.7866091,302.886107 L20.7866091,302.886107 C20.3968129,303.020715 19.9805924,303.060951 19.5721902,303.003505 C15.6547099,302.475215 23.1175099,282.419772 17.2412895,282.419772 C14.538228,282.419772 12.8537115,295.470485 12.6186627,299.344609 C12.181977,301.725572 11.3896363,304.027479 10.2681745,306.173243 L9.71972726,307.366786 C7.11460286,312.590985 4.72493987,316.582507 2.39403909,315.917253 C-2.93373413,314.391083 2.19816507,293.376892 2.86413672,286.841752 C3.53010838,280.306613 5.1166879,273.26275 9.91560128,267.588527 C14.7145147,261.914304 17.6526249,256.279214 18.9062186,244.402478 C20.1598123,232.525743 35.2616989,154.064936 35.2616989,154.064936 C35.2616989,154.064936 36.1235445,123.756759 38.9441304,94.5834264 L64.0943539,101.470759 Z" id="Path" fill="#793816" fill-rule="nonzero"></path>
                        <path d="M172.843607,185.194897 C175.879655,204.56552 187.455809,227.53634 186.025929,228.123328 C185.105321,228.514654 184.752747,228.788582 183.283692,229.336438 C163.128256,237.632543 164.656073,221.509924 131.377078,228.064629 C125.037458,229.370176 118.783887,231.06257 112.651522,233.132297 C87.1879004,241.526234 66.3469051,235.773746 50.4223477,224.973156 L50.4223477,224.973156 L48.4636075,223.231757 C48.4636075,223.231757 56.8470154,191.55394 57.9439099,175.626983 C60.2552232,142.853454 61.9789146,101.646856 61.9789146,101.646856 L37.9647603,94.4268961 C38.9833052,68.2472055 41.0595697,41.1674657 45.2904485,32.6169987 C47.6213492,27.8819575 52.4006752,23.5578083 58.2377209,19.7423826 C74.4952642,9.15702184 98.7640547,2.52405089 99.7825995,2.25012289 C99.0186909,2.91537661 88.8332421,11.6615064 89.9888988,24.5556889 C91.1641429,37.9585948 103.347507,51.9484893 103.347507,51.9484893 C103.347507,51.9484893 129.144114,34.5149285 132.395623,26.1796906 C135.470845,18.3531763 137.194536,4.65677606 140.622332,0 C148.183069,2.26968917 181.520826,13.1289779 194.996958,29.075501 C203.693765,39.3673674 206.06384,65.3122626 206.925686,97.3227065 C199.090725,99.1815036 184.478524,102.449073 175.781718,103.446954 C174.684823,103.583918 173.646691,103.681749 172.784845,103.720882 C172.608558,110.627781 167.594184,152.088741 172.843607,185.194897 Z" id="Path" fill="#FFFFFF" fill-rule="nonzero"></path>
                        <path d="M227.081122,304.881868 C223.431025,299.481363 218.776274,294.83163 213.369941,291.185468 C213.369941,291.185468 213.781277,296.585763 213.60499,302.318685 C213.448291,308.697294 212.586445,315.447663 209.68751,315.584627 C208.218454,315.584627 207.728769,313.764962 206.925686,311.417008 C204.516436,305.116664 205.299932,293.357326 204.203037,291.185468 C202.714395,288.211393 201.970073,272.636629 203.478303,268.782071 C204.986533,264.927512 182.304322,154.299731 182.304322,154.299731 L172.843607,103.662183 C181.540414,102.644736 197.856719,99.4162991 205.750442,97.5379356 C206.553525,125.537291 208.002993,150.484305 208.002993,150.484305 C208.002993,150.484305 218.325554,261.601244 219.539973,267.529828 C220.754391,273.458413 228.863576,281.226228 230.665617,289.933226 C231.409938,293.963881 229.823358,299.618537 227.081122,304.881868 Z" id="Path" fill="#793816" fill-rule="nonzero"></path>
                        <path d="M237.658319,334.446526 C233.869421,331.493609 229.898403,328.78159 225.768766,326.326518 C224.701951,321.948895 223.089733,317.722205 220.969853,313.745396 C218.833959,309.725547 216.35687,305.896089 213.565815,302.299118 C213.742102,296.566197 213.330766,291.165902 213.330766,291.165902 C218.737099,294.812064 223.39185,299.461797 227.041947,304.862302 C228.614959,307.254051 229.872408,309.838579 230.783141,312.551852 C233.368678,320.437066 235.99339,328.909267 237.658319,334.446526 Z" id="Path" fill="#1E1006" fill-rule="nonzero"></path>
                        <path d="M183.538329,230.314752 C183.420804,229.982125 183.322867,229.649499 183.22493,229.356004 C159.85716,238.963051 165.596269,215.659604 112.59276,233.151864 C87.1291382,241.5458 66.2881429,235.793312 50.3635855,224.992722 L50.3635855,224.992722 C51.5388296,233.641021 52.0285146,243.463296 53.2429335,254.537814 C63.2325083,259.585916 84.0930909,269.975614 99.7630121,276.217259 C111.086123,280.672261 118.908544,291.146492 119.957623,303.257866 C123.091607,340.43381 115.942206,408.348388 117.019513,414.531335 C118.390631,422.475247 124.58025,461.177361 120.936993,484.598205 C120.310196,488.687559 119.467938,493.872624 118.54733,499.644679 C114.962836,521.167593 109.791762,550.967047 107.833022,562.256794 L107.049526,566.776606 L131.318316,572.059503 L134.471888,572.744323 C134.471888,572.744323 138.017207,563.528603 142.757359,550.47789 C148.163481,535.764043 155.058247,516.197757 160.190146,499.605546 C161.522089,495.300963 162.716921,491.172477 163.77464,487.41575 C160.099443,480.295995 157.592976,472.632754 156.351015,464.718858 C155.612055,458.827352 155.330462,452.887569 155.508757,446.952671 C155.626281,440.006639 156.115966,432.825812 156.703588,426.153709 C157.545847,416.370566 158.564392,407.780966 158.819028,402.498069 C159.289125,393.399746 181.34454,321.493645 189.649598,321.826272 C190.746492,315.447663 190.23722,299.638104 191.334114,286.078667 C192.940281,265.827561 187.710445,243.44373 183.538329,230.314752 Z" id="Path" fill="#5461C8" fill-rule="nonzero"></path>
                        <path d="M126.911151,596.2043 C126.911151,596.2043 118.038058,591.586657 114.766962,585.932 C111.495866,580.277343 103.386681,578.653342 103.386681,578.653342 L107.049526,566.75704 L133.139944,572.431263 C133.198707,575.150976 126.911151,596.2043 126.911151,596.2043 Z" id="Path" fill="#793816" fill-rule="nonzero"></path>
                        <path d="M134.550237,610.115929 C134.256426,612.503016 126.264766,619.566446 122.797796,619.899072 C119.330826,620.231699 95.0424484,622.540521 91.7713523,621.679604 C88.5002563,620.818688 73.9859917,617.531552 74.2798027,615.809719 C74.5736138,614.087886 78.4519193,610.292026 84.9353492,606.437468 C91.4187791,602.582909 95.1599728,591.25403 95.7280074,585.618939 C96.2960421,579.983849 103.562968,578.751173 103.562968,578.751173 C103.562968,578.751173 111.985551,577.577196 115.315409,583.251419 C118.645267,588.925642 127.06785,596.321698 127.06785,596.321698 C127.06785,596.321698 127.577122,594.032442 128.595667,591.117066 C129.320401,593.523719 130.691519,596.830421 131.533777,599.726232 C132.219337,602.230716 132.846133,604.617803 133.237881,606.398335 C133.237881,606.398335 133.237881,606.398335 133.237881,606.398335 C133.237881,606.398335 133.237881,606.750528 133.355406,606.907059 C133.414168,607.885373 134.589412,609.74417 134.550237,610.115929 Z" id="Path" fill="#486383" fill-rule="nonzero"></path>
                        <path d="M125.598795,623.029678 C121.994713,627.490791 109.419601,627.314695 101.58464,627.099466 C91.9868137,626.825538 73.9859917,625.49503 72.7911602,621.9144 C72.1259064,619.731207 72.6452713,617.359527 74.1622783,615.653188 C73.8684673,617.43372 87.4817114,619.370783 93.7496799,619.957771 C102.849187,620.383278 111.968265,619.852069 120.956581,618.372902 C126.46064,616.96413 133.159532,611.348605 133.453343,608.961519 C133.323264,607.86154 133.127035,606.770378 132.865721,605.693949 C132.865721,605.693949 133.335818,605.302623 133.433755,605.283057 C135.000748,607.044023 135.196622,609.763736 135.196622,612.757378 C135.177034,616.944563 129.202877,618.607698 125.598795,623.029678 Z" id="Path" fill="#2C3A42" fill-rule="nonzero"></path>
                        <path d="M178.053856,575.170543 L178.308492,576.051026 C175.527081,577.02934 168.514792,578.516378 165.615856,576.853243 C161.44374,574.466156 153.706716,567.931017 149.82841,566.737473 C149.018738,566.428228 148.37345,565.797802 148.045957,564.996074 C148.090435,562.697974 147.600998,560.420857 146.616077,558.343537 L170.571469,550.810517 C170.571469,550.810517 174.547711,570.689863 178.053856,575.170543 Z" id="Path" fill="#793816" fill-rule="nonzero"></path>
                        <path d="M177.877569,592.604104 C175.664193,593.582418 171.550839,595.734709 170.042609,596.2043 C167.359135,597.104349 149.926347,602.954669 144.85321,603.854718 C141.405828,604.461273 135.666719,605.322189 132.865721,605.928744 C132.748196,605.772214 131.984288,602.113319 131.298729,599.608834 C134.667762,598.865315 141.640877,597.397844 148.300593,596.517361 C157.526259,595.304251 166.947799,588.690846 166.947799,588.690846 L178.700664,583.564479 C178.719828,587.105977 178.053856,590.099619 177.877569,592.604104 Z" id="Path" fill="#2C3A42" fill-rule="nonzero"></path>
                        <path d="M246.981922,345.325381 C246.981922,349.532133 240.713954,362.582846 233.975888,369.098419 C232.478405,370.7155 230.609567,371.94438 228.53059,372.679049 C220.186357,375.066136 219.872958,384.888412 219.872958,384.888412 C219.872958,384.888412 212.037998,363.169834 218.090505,355.147657 C222.771894,348.80818 211.372026,327.754856 206.338064,319.263088 C206.906099,319.263088 207.434958,319.400052 208.02258,319.419619 C211.02459,319.938472 213.969716,320.744396 216.817324,321.826272 C219.881596,323.120351 222.852873,324.624001 225.710004,326.326518 C229.839641,328.78159 233.810659,331.493609 237.599557,334.446526 L237.599557,334.446526 C243.00568,338.69241 246.981922,342.879596 246.981922,345.325381 Z" id="Path" fill="#57280F" fill-rule="nonzero"></path>
                        <path d="M179.640436,583.623178 L166.967387,588.749545 C166.967387,588.749545 157.545847,595.284685 148.320181,596.57606 C141.660464,597.456542 134.608999,598.904448 131.318316,599.667533 C130.476058,596.771722 129.10494,593.46502 128.380206,591.058367 C128.634842,590.353981 128.771954,589.688727 129.007003,588.866943 C133.531692,585.521108 141.053255,580.45344 144.128477,577.694594 C148.888215,573.409577 145.00991,568.889765 146.087217,566.796172 C146.493243,565.669562 147.48686,564.857479 148.672754,564.683013 C150.368231,565.062649 152.016904,565.626924 153.589192,566.365714 C157.506672,567.559257 161.326215,574.524855 165.478744,576.911942 C168.416855,578.575076 175.977592,576.383652 177.662108,572.333431 C179.640436,571.17902 179.640436,581.020862 179.640436,583.623178 Z" id="Path" fill="#486383" fill-rule="nonzero"></path>
                        <path d="M233.975888,369.117985 C232.478405,370.735066 230.609567,371.963946 228.53059,372.698615 C220.186357,375.085702 219.872958,384.907978 219.872958,384.907978 C219.872958,384.907978 212.037998,363.1894 218.090505,355.167223 C222.771894,348.827746 211.372026,327.774423 206.338064,319.282655 L206.338064,319.282655 C205.529839,319.164133 204.731216,318.987579 203.948401,318.754365 L203.948401,318.754365 C200.18762,318.245641 196.11344,317.873882 191.960911,317.717352 C184.127363,317.320716 176.274098,317.819632 168.553966,319.204389 C165.067409,323.900298 159.465412,332.52903 158.270581,340.609906 C156.703588,350.980038 160.111796,371.524638 155.685044,378.998959 C157.881586,386.628983 158.94412,394.539954 158.838615,402.478503 C158.583979,407.7614 156.781938,425.371057 155.93968,435.075935 C161.8159,438.167408 175.370382,447.989684 196.309314,447.989684 C228.217191,447.989684 247.354083,437.834781 247.354083,437.834781 L244.494322,379.488117 C240.553978,376.500344 237.018325,373.014542 233.975888,369.117985 Z" id="Path" fill="#793816" fill-rule="nonzero"></path>
                        <path d="M184.047601,408.739714 C173.313705,408.896244 163.85299,394.730253 165.204521,389.662585 C166.046779,386.512413 167.437484,396.217291 172.353922,395.923797 C177.27036,395.630303 179.660023,391.736612 182.343497,391.736612 C185.026971,391.736612 189.571248,396.667316 195.721692,395.923797 C201.872136,395.180278 203.04738,390.053911 205.123645,390.719165 C207.19991,391.384418 194.76191,408.583184 184.047601,408.739714 Z" id="Path" fill="#57280F" fill-rule="nonzero"></path>
                        <path d="M180.384757,387.608125 C175.76213,387.608125 172.275573,379.116357 171.433314,375.868354 C169.35705,367.709212 177.564171,372.776881 181.383714,372.698615 C185.203258,372.62035 191.980499,368.022273 191.843387,374.968305 C191.823799,377.78585 185.007384,387.608125 180.384757,387.608125 Z" id="Path" fill="#1E1006" fill-rule="nonzero"></path>
                        <path d="M158.211818,340.570774 C156.644826,350.940905 160.053034,371.485506 155.626281,378.959827 C155.066932,379.995461 154.197052,380.830193 153.138681,381.346914 C151.33664,374.498714 150.749018,371.563771 144.187239,367.944008 C137.625459,364.324245 129.281226,353.054064 130.182247,347.712468 C131.083267,342.370872 152.92322,322.765454 167.026149,319.478318 L168.495204,319.184823 C165.008647,323.861166 159.40665,332.489898 158.211818,340.570774 Z" id="Path" fill="#57280F" fill-rule="nonzero"></path>
                        <path d="M368.717623,486.672231 C367.385679,480.430586 374.593843,448.283178 370.970174,427.758144 C367.346505,407.23311 368.580511,380.427298 327.779953,372.972543 C298.614313,367.650514 275.990864,375.105269 262.416795,379.46855 C268.978574,391.677913 252.34887,450.650699 247.647894,449.515854 C244.448026,451.578039 240.916311,453.073925 237.207809,453.937835 C225.455368,457.342369 176.349752,457.28367 155.547932,446.874406 C155.364088,452.80935 155.645701,458.749564 156.39019,464.640593 C157.642255,472.558292 160.148156,480.226403 163.813815,487.357051 C167.143673,494.322649 170.375595,500.622993 171.23744,508.703869 C172.21681,518.017421 181.834225,576.618448 177.916744,589.238702 C174.841522,599.178376 163.813815,602.935103 168.123044,609.705037 C172.432272,616.474972 180.580631,612.63998 185.947579,615.574923 C191.314527,618.509866 197.543321,610.507255 199.051551,606.633131 C200.55978,602.759006 194.918609,604.050381 195.13407,590.980102 C195.349532,577.909823 196.603125,530.109386 197.09281,523.887307 C197.582495,517.665228 194.879434,506.492879 194.879434,506.492879 C199.710331,509.788101 204.918381,512.494418 210.392656,514.554189 C216.306065,515.900544 222.348171,516.60251 228.413065,516.647781 L231.801686,550.830083 C231.801686,550.830083 222.007985,593.132393 220.382231,600.391485 C216.817324,616.7489 214.13385,618.001143 209.961733,621.523074 C205.789617,625.045006 204.888596,634.61292 210.235957,634.61292 C215.583317,634.61292 219.775021,631.051855 225.43578,632.538893 C231.096539,634.025931 235.875865,638.19355 238.85315,630.464867 C241.830436,622.736184 237.658319,613.500897 240.341793,607.552746 C243.025267,601.604595 259.498272,561.415444 260.164243,550.810517 C262.122984,521.18716 262.945654,511.07139 262.945654,511.07139 L263.082766,510.777896 L262.945654,511.07139 C262.945654,511.07139 269.350735,505.729794 277.636206,498.255473 C292.07212,485.243892 312.188382,465.697173 313.872898,456.637982 C316.0471,445.054741 327.799541,460.551239 333.930398,475.871641 C335.318491,479.267539 336.387344,482.785057 337.123144,486.378737 C340.39424,503.636201 348.131264,530.735507 348.444662,544.138413 C348.758061,557.541319 345.467377,566.170051 346.368398,572.705191 C347.269418,579.24033 337.436542,600.978474 341.295261,604.011248 C345.153979,607.044023 361.568221,610.565954 365.133128,606.398335 C368.698035,602.230716 363.957884,594.502033 363.350675,588.553882 C362.743465,582.605731 362.136256,546.584199 365.426939,530.500712 C368.717623,514.417225 369.971216,492.933443 368.717623,486.672231 Z" id="Path" fill="#793816" fill-rule="nonzero"></path>
                        <path d="M273.013579,441.650207 C272.406369,445.896091 271.485761,450.572434 270.467217,455.209643 C265.39408,453.918268 254.953995,451.296386 247.589132,449.53542 C251.389087,446.776574 252.79938,442.843751 253.739576,435.643357 C259.977423,438.200963 266.426472,440.210845 273.013579,441.650207 Z" id="Path" fill="#1E1006" fill-rule="nonzero"></path>
                        <path d="M273.483676,437.854348 C273.346565,439.067457 273.209453,440.339266 273.013579,441.650207 C266.419203,440.205595 259.96354,438.189148 253.719988,435.623791 C253.876687,434.567212 253.994212,433.432367 254.131324,432.219257 C255.169456,422.162186 250.370543,396.295556 247.295321,381.229516 C248.28195,381.714418 249.340048,382.038111 250.429305,382.188264 C257.93128,394.651988 274.893969,424.607972 273.483676,437.854348 Z" id="Path" fill="#793816" fill-rule="nonzero"></path>
                        <path d="M254.131324,432.219257 C253.994212,433.432367 253.876687,434.586778 253.719988,435.623791 C252.79938,442.824184 251.3695,446.757008 247.569544,449.515854 C244.369677,451.578039 240.837962,453.073925 237.129459,453.937835 C225.279081,457.342369 176.271403,457.28367 155.469582,446.874406 C155.42005,442.164524 155.622743,437.455367 156.076792,432.767113 C161.953012,435.858587 172.647733,441.650207 193.586666,441.650207 C211.489551,441.650207 225.631654,441.415412 233.721251,439.517482 C239.362423,438.206541 242.437645,431.397473 242.653106,425.625419 L244.415973,379.488117 C245.319711,380.146084 246.276202,380.728522 247.275733,381.229516 C250.370543,396.295556 255.110694,422.162186 254.131324,432.219257 Z" id="Path" fill="#1E1006" fill-rule="nonzero"></path>
                        <path d="M316.987295,491.133344 C309.544083,504.242756 308.936873,518.213084 313.422388,526.352659 C317.907903,534.492234 322.648054,537.955467 322.648054,545.703716 C322.648054,553.451965 311.639935,573.820469 308.349251,581.568718 C305.058568,589.316967 308.349251,601.135004 299.711207,601.506764 C291.073163,601.878523 279.575358,604.167779 276.891884,599.706665 C274.20841,595.245552 279.751645,589.297401 286.293837,589.160437 C292.836029,589.023473 304.157547,557.013029 299.397809,545.703716 C295.206105,535.783609 276.088801,519.954484 277.851667,498.353304 C292.287582,485.341724 312.403843,465.795004 314.08836,456.735814 C316.262561,445.152572 328.015002,460.649071 334.145859,475.969473 C327.085983,479.271325 321.128619,484.536143 316.987295,491.133344 L316.987295,491.133344 Z" id="Path" fill="#57280F" fill-rule="nonzero"></path>
                        <path d="M250.429305,382.188264 L250.527242,382.188264 C252.916905,382.442626 256.912735,381.20995 262.279683,379.46855 C268.841462,391.677913 279.222785,421.594764 280.868127,437.834781 C283.120678,460.101215 277.264045,487.063557 273.131103,502.286127 C267.039421,507.608157 263.337402,510.445269 263.004417,511.051824 C263.239465,510.249606 269.389909,468.906044 270.388867,455.190077 C273.013579,420.322955 257.93128,394.651988 250.429305,382.188264 Z" id="Path" fill="#1E1006" fill-rule="nonzero"></path>
                    </g>
                    <path d="M76.3222591,386.386353 C67.0561764,382.031024 58.4379342,377.734287 53,375 C53.3141045,386.855088 60.2244035,415.272143 63.9151314,429.861517 C75.2621564,475.016316 93.3624283,521.518727 98.191785,543.490677 C102.118091,561.986176 114.270009,604.855891 118,618 C116.547267,551.205272 119.433102,482.769973 102.687406,416.13149 C97.9758381,403.631892 84.41045,397.460215 76.3222591,386.386353 Z" id="Path" stroke="none" fill="#5461C8" fill-rule="nonzero"></path>
                    <path d="M118.71869,534.321447 C117.540243,527.681065 123.353913,450.601708 118.71869,415.9111 C117.685878,407.857743 112.228659,401.054499 104.57733,398.281768 C96.3674857,395.323958 85.8400292,390.642391 76,386 C84.1116409,397.106479 97.6048546,403.296334 102.377563,415.813159 C112.080107,454.499749 110.724894,494.459568 111.922981,533.65545 C112.787175,562.195379 117.088505,590.049724 117.697369,618.276243 L118.188389,620 C119.131146,614.221497 119.9757,609.030638 120.604204,604.936715 C124.100263,581.568056 120.093544,542.254646 118.71869,534.321447 Z" id="Path" stroke="none" fill="#2C3A42" fill-rule="nonzero"></path>
                    <path d="M345,507.258665 C345,507.258665 388.164063,497.188908 396.425781,534.013776 C403.808594,566.955152 395.234375,585.982309 405,607 C399.140625,607 386.992187,602.121242 379.414062,587.484967 C365.097656,559.85168 397.753906,525.505221 363.925781,526.988364 L345,507.258665 Z" id="Path" stroke="none" fill="#793816" fill-rule="nonzero"></path>
                    <path d="M185.877734,348.357676 C184.95327,348.748615 184.59922,349.022273 183.124012,349.569587 C162.88416,357.857493 164.418376,341.750808 131,348.299036 C142.054225,335.906271 158.969942,312.391294 155.409773,287.95761 C150.158033,252.245338 172.67954,224 172.67954,224 C172.482846,230.97826 167.44747,272.378694 172.67954,305.471675 C175.688965,324.823152 187.313603,347.771268 185.877734,348.357676 Z" id="Path" stroke="none" fill="#BDB8B8" fill-rule="nonzero"></path>
                    <path d="M172,224 C172,224 138.705642,242.425835 105,235.553496 C130.460392,249.318093 163.578486,248.999376 163.578486,248.999376 L172,224 Z" id="Path" stroke="none" fill="#BDB8B8" fill-rule="nonzero"></path>
                    <path d="M174.644747,82.3976478 C171.444101,85.8169994 167.719841,88.700935 163.612802,90.9403962 C163.612802,75.052848 159.11396,60.186502 151.876691,56.8283182 C149.220228,55.3683583 146.119136,54.9485594 143.172409,55.650008 C141.21639,54.1967589 138.341043,55.4929 134.174723,58.6939759 C116.746598,53.6468808 106.633982,32.8889842 105.32345,26.7814101 C105.237737,26.4209828 105.191819,26.0521743 105.186528,25.681654 C96.0910421,19.5937184 76.8633798,18.4154082 67.6114121,53.9414584 C62.886391,71.1913139 66.3585371,89.6651951 77.0198613,104 C66.7312038,102.723497 58.0660416,101.054225 55.7970601,99.2867595 C50.5744906,95.2215896 47.9729859,88.7801609 51.885023,85.9325781 C55.7970601,83.0849954 47.1514581,79.157295 52.0415045,72.3820118 C56.9315508,65.6067286 47.3274998,66.2940761 53.3911573,61.0505961 C59.4548148,55.8071161 51.4351387,53.5879653 55.581898,49.8762885 C59.7286574,46.1646116 52.8825925,42.9242587 59.6308564,39.0358353 C66.3791204,35.1474119 60.6479861,30.5912795 66.2030788,27.5473117 C71.7581714,24.5033439 68.3938195,20.948775 73.7924307,20.7720285 C79.1910419,20.595282 75.3768057,11.640125 82.4380327,12.1507261 C89.4992596,12.6613271 85.2742596,3.86327824 91.3379171,4.29532529 C97.4015746,4.72737233 95.8954403,-1.79261034 100.941968,0.564009906 C105.988496,2.92063015 108.53132,-0.457192198 111.876112,0.0534088539 C115.220904,0.564009906 116.433635,3.98110926 120.463033,1.40846549 C124.492431,-1.16417827 123.846945,5.47363541 130.419168,3.94183225 C136.99139,2.4100291 135.133172,7.86953265 138.673566,7.65350913 C142.213959,7.43748561 142.27264,15.8034875 146.223797,15.8820415 C150.174955,15.9605955 149.979353,20.0257654 154.047872,22.7162402 C158.11639,25.406715 157.236182,29.9824859 158.09683,35.2456045 C158.957478,40.508723 165.001576,36.9541541 164.336529,42.8653432 C163.671483,48.7765323 163.554122,48.2659313 167.974724,51.6633921 C172.395326,55.060853 164.37565,58.6154219 167.974724,60.9720421 C171.573798,63.3286623 172.766969,62.7984228 172.766969,67.4723863 C172.766969,72.1463497 171.573798,73.8548994 174.527386,74.856463 C177.480974,75.8580266 178.1069,77.4683838 174.644747,82.3976478 Z" id="Path" stroke="none" fill="#1E0E04" fill-rule="nonzero"></path>
                    <path d="M95.047693,105 C88.9504299,104.589461 82.4794635,103.983427 76.5395491,103.260095 C65.8191383,88.9902636 62.327749,70.600116 67.0789569,53.4284461 C76.401869,18.0438697 95.7164251,19.2168391 104.86232,25.2967304 C104.86764,25.6655714 104.913812,26.0327082 105,26.3915018 C71.8780931,31.787161 76.4412061,59.1368971 78.132705,70.1041609 C79.8832095,81.5406123 85.7051124,100.581815 95.047693,105 Z" id="Path" stroke="none" fill="#000000" fill-rule="nonzero"></path>
                    <path d="M144.347789,58.611951 C143.984556,57.4876249 143.309995,56.4907204 142.403206,55.7381372 C140.458623,54.2914555 137.600087,55.5817392 133.458126,58.768349 C116.131895,53.7440624 106.078404,33.0799733 104.775533,27 C72.0093169,32.4152816 76.5207484,59.7653864 78.1930895,70.732798 C79.9237679,82.1694036 85.6991782,101.210863 94.9164996,105.629107 C98.6306523,107.408135 103.686567,107.290837 108.917494,106.2156 C116.135448,104.565909 123.055854,101.802736 129.43284,98.0242535 C137.483412,93.1368152 137.3084,80.4294756 139.155753,76.5195249 C143.492172,75.0337437 146.350709,63.6557873 144.347789,58.611951 Z" id="Path" stroke="none" fill="#793816" fill-rule="nonzero"></path>
                    <path d="M84,539.7 C82.2478632,539.84 80.6025641,540.06 79,540.3" id="Path" stroke="#2EAFFF" stroke-width="0.52" fill="none"></path>
                    <path d="M58,625 C55.7748373,622.882924 53.7644614,620.537485 52,618" id="Path" stroke="#2EAFFF" stroke-width="0.52" fill="none"></path>
                    <path d="M138.18,605 C138.18,607.321149 138.06,609.660574 137.82,612" id="Path" stroke="#2EAFFF" stroke-width="0.52" fill="none"></path>
                    <path d="M117,569 C115.863632,569.334257 114.826439,570.025719 114,571" id="Path" stroke="#2EAFFF" stroke-width="0.52" fill="none"></path>
                    <ellipse id="Oval" stroke="#1E1006" stroke-width="0.56" fill="none" cx="85" cy="65" rx="8" ry="11"></ellipse>
                    <ellipse id="Oval" stroke="#1E1006" stroke-width="0.58" fill="none" cx="109" cy="65" rx="9" ry="11"></ellipse>
                    <line x1="93" y1="61" x2="101" y2="61" id="Path" stroke="#1E1006" stroke-width="0.58" fill="none"></line>
                    <line x1="117" y1="62" x2="135" y2="58" id="Path" stroke="#1E1006" stroke-width="0.58" fill="none"></line>
                </g>
            </g>
        </g>
        <g id="sign-group" transform="translate(1024.604966, 65.504983)">
            <mask id="mask-8" fill="white">
                <use xlink:href="#path-7"></use>
            </mask>
            <use id="Triangle" fill="#FAF379" transform="translate(507.358402, 556.247508) rotate(-15.000000) translate(-507.358402, -556.247508) " xlink:href="#path-7"></use>
            <polygon id="Triangle-Copy-4" fill="#5461C8" mask="url(#mask-8)" transform="translate(657.470571, 467.719590) rotate(-15.000000) translate(-657.470571, -467.719590) " points="488.064299 45.5939914 918.70148 726.034941 396.239662 889.845188"></polygon>
            <polygon id="Triangle-Copy-5" fill="#4DB7C5" mask="url(#mask-8)" transform="translate(592.391005, 829.262412) rotate(-15.000000) translate(-592.391005, -829.262412) " points="869.154908 646.395756 1004.25011 916.853661 180.531902 1012.12907"></polygon>
            <g id="sign" mask="url(#mask-8)">
                <g transform="translate(321.395034, 436.495017)">
                    <path d="M288.98597,17.0149427 C288.98597,17.0149427 268.445157,15.2408273 272.539894,50.354923 C273.362198,57.3174892 275.795546,63.0080481 283.19628,73 C301.119147,52.781779 288.98597,17.0149427 288.98597,17.0149427 Z" id="Path" fill="#1E0E04" fill-rule="nonzero"></path>
                    <g id="Group" stroke-width="1" fill="none" fill-rule="evenodd" transform="translate(241.000000, 276.000000)">
                        <path d="M102.723687,92.7590703 C102.723687,99.6492674 100.650741,174.173506 103.07475,185.217841 C105.415172,195.945194 109.761669,293.142019 94.0975605,318.116898 C88.6644385,297.579773 78.2495615,260.042379 68.3194862,234.383485 L68.3194862,234.383485 C67.3498829,220.686507 65.3605243,202.368259 61.6325668,196.946191 C58.9745163,193.092352 57.0687443,182.21485 55.7480777,170.986998 L55.7480777,170.986998 C63.605208,140.957084 81.191806,103.052658 89.2829785,86.9366035 C101.486606,62.5790059 107.672007,27.8777709 95.0504465,6.45643169 C100.834632,2.93625834 104.211526,0.200199432 104.846783,0 C104.846783,0 123.737331,16.1994707 120.661348,50.6838229 C118.554968,73.5065582 102.723687,85.8688731 102.723687,92.7590703 Z" id="Path" fill="#FAF379" fill-rule="nonzero"></path>
                        <path d="M94.0975605,318.133581 C96.4546996,327.142556 97.8923872,332.864923 97.8923872,332.864923 L95.0838811,333.91597 L69.7404565,343.542226 L66.0626509,344.926938 L63.3878831,338.136841 L61.4821111,333.248638 C58.957799,326.80889 55.5641874,318.233681 51.903099,309.057874 L51.903099,309.057874 C43.3104076,287.486385 33.1295728,262.344673 28.3985773,252.151185 C19.4046707,232.83194 8.33781911,217.650149 1.65089971,193.8431 C-5.0360197,170.036051 25.1721387,51.0008054 27.2450837,41.3244995 C29.3180287,31.6481936 27.2450837,29.8130321 27.2450837,16.9835852 C63.1705582,22.8894684 89.7844975,16.4330367 103.459248,8.10807701 C116.13096,29.5294163 105.331585,59.4759147 93.1279572,83.8335123 C85.0367847,99.9495665 63.5550561,140.907034 55.6979258,170.970315 L55.6979258,170.970315 C51.117386,188.487765 49.8468713,203.33589 55.6979258,209.692222 C59.4760353,213.79631 63.8225329,222.855335 68.3027689,234.366802 L68.3027689,234.366802 C78.3164307,260.059062 88.6644385,297.596456 94.0975605,318.133581 Z" id="Path" fill="#FAF379" fill-rule="nonzero"></path>
                        <path d="M99.9653323,345.977985 C99.9653323,345.977985 87.5276622,355.637608 78.2328442,354.953593 C72.7830049,354.536511 70.6431907,348.497162 69.8741949,343.542226 L95.0337292,333.932653 L98.5109273,342.557912 L99.9653323,345.977985 Z" id="Path" fill="#793816" fill-rule="nonzero"></path>
                        <path d="M106.518513,367.699624 C105.482041,369.768351 84.7860252,374.94017 78.1826923,376.324883 C71.5793594,377.709596 59.1584066,385.634156 48.4426182,383.915778 C37.7268299,382.197399 19.755734,376.675232 19.4046707,371.820396 C19.3662452,371.204903 19.4456753,370.587741 19.6387129,370.001917 C19.6387129,370.001917 19.6387129,370.001917 19.6387129,370.001917 C20.875793,366.231495 26.9274551,363.712319 35.3195389,362.844788 C42.7532206,361.884497 49.8766723,359.273508 56.1660102,355.203843 L56.4167696,354.970277 C57.0353097,354.336312 57.1021789,351.199854 57.8043054,347.729731 C58.5064319,344.259607 59.9608369,340.188885 63.4046004,338.153524 L66.0793682,344.943622 L69.7571738,343.558909 C70.6097561,348.563895 72.7495703,354.553195 78.1158231,354.970277 C87.4440757,355.654291 99.8483112,345.994669 99.8483112,345.994669 L98.4607754,342.658012 L99.8483112,342.974994 C102.865558,345.546239 105.12988,348.88393 106.401492,352.634617 C107.090453,354.750032 107.478733,356.95142 107.554986,359.174465 C107.810833,362.057253 107.457736,364.96154 106.518513,367.699624 L106.518513,367.699624 Z" id="Path" fill="#005B7F" fill-rule="nonzero"></path>
                        <path d="M111.015467,371.520096 C110.664403,375.657551 96.5048515,380.128672 84.5687003,382.547748 C72.6325492,384.966825 67.8514018,387.369218 57.9380438,389.437946 C48.0246858,391.506673 22.8317169,387.769617 19.4046707,379.795006 C17.8026909,376.710596 17.8909666,373.023146 19.6387129,370.018601 C19.4456753,370.604424 19.3662452,371.221587 19.4046707,371.837079 C19.755734,376.675232 37.7936991,382.180716 48.4426182,383.932461 C59.0915374,385.684206 71.6295113,377.726279 78.1826923,376.374933 C84.7358733,375.023586 105.482041,369.818401 106.518513,367.749674 C107.511425,364.988718 107.90462,362.048599 107.672007,359.124415 C109.544344,363.028304 111.266226,368.683938 111.015467,371.520096 Z" id="Path" fill="#BCD0E8" fill-rule="nonzero"></path>
                        <path d="M61.4821111,333.265322 L57.9380438,339.087788 C57.9380438,339.087788 50.8666265,336.335046 49.5793945,332.531257 C48.8271161,330.228963 49.830154,322.070837 50.6994535,316.014804 C51.2678417,312.311114 51.7526433,309.341489 51.8195125,309.074557 C55.5809047,318.283731 58.957799,326.825573 61.4821111,333.265322 Z" id="Path" fill="#793816" fill-rule="nonzero"></path>
                        <path d="M63.4046004,338.153524 C59.9608369,340.205569 58.5231492,344.159507 57.8043054,347.729731 C54.408465,347.411179 51.0501996,346.774407 47.7739263,345.827836 C42.5915638,344.159507 33.6143745,345.460804 26.0414382,345.827836 C18.468502,346.194868 -0.405328009,342.374396 1.7177689,336.518562 C1.91321246,335.957523 2.20138908,335.433094 2.57035113,334.967017 C5.51259566,330.996395 12.8347724,332.331058 16.7131857,332.030758 C21.0262487,331.697093 35.9046444,327.893303 39.1812349,324.089514 C42.4578254,320.285725 43.1599519,315.480939 45.2328969,314.630091 C46.469977,314.112909 49.0110064,315.147273 50.8499092,316.031487 C49.9806097,322.104203 48.9775718,330.245647 49.7298502,332.54794 C50.9334957,336.351729 58.0884995,339.104472 58.0884995,339.104472 L61.6325668,333.282005 L63.4046004,338.153524 Z" id="Path" fill="#005B7F" fill-rule="nonzero"></path>
                        <path d="M57.8043054,347.729731 C57.1021789,351.199854 57.0353097,354.403045 56.4167696,354.970277 L56.1660102,355.203843 L46.0520446,353.402048 C41.204028,352.534517 30.1371764,354.252895 21.8453963,352.884866 C13.5536162,351.516836 1.61746511,350.298957 0.363667723,345.977985 C-0.890129666,341.657014 1.50044402,334.950333 1.50044402,334.950333 L2.52019923,334.950333 C2.15123719,335.416411 1.86306057,335.94084 1.66761701,336.501879 C-0.455479904,342.357712 18.3849155,346.161502 25.9912863,345.811153 C33.5976572,345.460804 42.5915638,344.142824 47.7237744,345.811153 C51.0158158,346.766455 54.3910263,347.408842 57.8043054,347.729731 L57.8043054,347.729731 Z" id="Path" fill="#BCD0E8" fill-rule="nonzero"></path>
                    </g>
                    <path d="M173.853538,479.922892 C173.569948,492.967453 162.893644,568.902456 159.140256,580.664219 C159.023484,581.030733 158.923394,581.313948 158.823304,581.563844 C157.720284,583.617431 155.697626,585.017792 153.385061,585.32894 C147.079369,586.894954 137.504059,585.32894 134.067624,584.579253 L132.783131,584.312697 C132.783131,584.312697 132.149225,526.136955 131.231731,511.426422 C130.314236,496.71589 137.904421,478.673413 138.304782,471.942886 C138.705143,465.212359 130.631189,438.890002 125.42649,429.393961 C120.221792,419.897921 92.0463589,353.30902 91.3457264,351.643048 L91.3457264,351.643048 C91.3457264,351.643048 86.5080262,375.816302 84.6730364,396.007882 C82.8380467,416.199463 79.7519276,455.399784 78.0003465,467.344803 C76.2487654,479.289823 81.6035991,557.157354 83.1883629,575.966178 L83.1883629,575.966178 C83.1883629,576.099455 83.1883629,576.232733 83.1883629,576.349351 C76.1153116,583.163177 67.5575867,578.731691 64.8384655,576.982421 C64.2546052,576.599247 63.9376524,576.349351 63.9376524,576.349351 C63.9376524,576.349351 45.6711636,528.535955 41.7342766,504.346041 C37.7973895,480.156128 50.075139,455.349805 36.1959439,406.986638 C27.8523682,377.106573 24.1338372,346.127854 25.1693237,315.124942 L48.3235579,304.712617 L73.0125107,295 L115.317365,295 L150.56585,315.191581 C150.56585,315.191581 174.470762,429.710496 177.25661,445.320653 C180.042458,460.930811 174.120445,466.36188 173.853538,479.922892 Z" id="Path" fill="#384A54" fill-rule="nonzero"></path>
                    <path d="M88,585.073709 L87.8488361,585.073709 C87.1937927,584.770128 84.4896391,583.825652 78.5942483,586.220572 C71.8758542,588.986535 73.9585564,594.754581 73.9585564,594.754581 C73.4729666,597.2167 72.4139491,599.528458 70.8680951,601.500833 C68.2311254,604.873959 66.383567,601.500833 66.383567,601.500833 C66.875978,599.93099 66.875978,598.247105 66.383567,596.677263 C66.383567,596.458009 66.2659951,596.255622 66.1988112,596.019503 C65.342216,593.287271 63.6458214,590.453845 64.0657211,586.119378 C64.2763103,583.088426 64.3323701,580.048641 64.2336809,577.011938 C67.0050185,578.799695 75.6213589,583.285952 82.7092647,576.387909 C82.7092647,576.252984 82.7092647,576.134925 82.7092647,576 L88,585.073709 Z" id="Path" fill="#793816" fill-rule="nonzero"></path>
                    <path d="M99.0609925,626.661615 C85.8918134,628.059481 77.0067851,624.977439 73.3227489,620.160697 C69.6387127,615.343955 63.6709076,612.430332 63.0541232,610.88089 C62.6373771,609.803018 64.7211079,600.691628 66.0880354,595.369633 C66.0880354,595.588576 66.2213941,595.790677 66.2714037,596.026462 C66.7601166,597.594082 66.7601166,599.275583 66.2714037,600.843204 C66.2714037,600.843204 68.1050868,604.211555 70.7222528,600.843204 C72.2564974,598.873621 73.3075616,596.565135 73.7895046,594.106502 C73.7895046,594.106502 71.6390944,588.346621 78.3903824,585.584573 C84.1914891,583.193044 86.9420138,584.136182 87.575468,584.439334 L87.7254966,584.439334 C89.0175175,586.706398 90.0947272,589.091676 90.942777,591.563397 C92.0096472,594.931748 95.9437311,598.822193 99.3610497,602.358962 C102.778368,605.89573 113.313712,620.362798 113.913826,621.289095 C114.513941,622.215391 112.230171,625.280591 99.0609925,626.661615 Z" id="Path" fill="#BCD0E8" fill-rule="nonzero"></path>
                    <path d="M117.661235,632.029469 C116.415079,635.25065 98.9183867,637.403667 89.488023,636.936345 C80.0576592,636.469024 75.8813553,633.398054 71.8397708,628.023856 C67.7981864,622.649658 64.0934006,625.119786 62.6451662,620.363121 C61.7849446,617.300304 61.7849446,614.062817 62.6451662,611 C63.2682438,612.552175 69.3811403,615.456245 73.0185663,620.19622 C76.6559923,624.936196 85.7158775,628.023856 99.0194263,626.638581 C112.322975,625.253307 114.630046,622.199027 114.023809,621.281074 C116.566639,622.966769 118.89055,628.808289 117.661235,632.029469 Z" id="Path" fill="#384A54" fill-rule="nonzero"></path>
                    <path d="M197,624.599863 C197,624.599863 183.020239,630.971676 170.276443,628.380032 C157.532647,625.788388 144.488211,619.135951 138.792753,618.47566 C133.097295,617.815368 129.589828,616.659858 129.122166,615.174202 C129.024054,614.674131 128.984821,614.164518 129.005251,613.655532 C129.005251,610.238524 129.756851,602.282011 132.345695,598.485335 C132.237476,598.953451 132.074946,599.407656 131.861331,599.838933 C130.324726,602.562635 137.089127,610.618191 140.462976,607.745923 C143.836825,604.873655 145.473642,599.706874 149.06462,599.838933 C149.06462,594.688659 148.145998,589.373313 149.06462,588.911109 C149.983243,588.448905 155.862425,586.484538 158.885527,587.128322 C159.26889,587.184007 159.634421,587.325126 159.95447,587.541004 C162.259376,589.191733 161.958736,596.636519 165.182265,599.987498 C168.405794,603.338478 173.149226,613.473952 178.544044,615.91703 C183.938862,618.360109 196.148187,624.170674 196.916489,624.550341 L197,624.599863 Z" id="Path" fill="#BCD0E8" fill-rule="nonzero"></path>
                    <path d="M159,581 L159,587.636556 C156.003952,586.989491 150.078068,589.030232 149.266983,589.428426 C148.455898,589.826619 149.266983,595.235412 149.266983,600.411925 C145.7578,600.262603 144.085972,605.389342 140.742316,608.359201 C137.398661,611.329059 130.71135,603.166096 132.21765,600.411925 C132.429353,599.978451 132.590429,599.521932 132.69768,599.051431 C133.509863,594.396537 133.985612,589.688931 134.121216,584.965342 C138.921514,585.927643 155.821872,588.748179 158.685498,581.962301 C158.81792,581.663656 159,581.365011 159,581 Z" id="Path" fill="#793816" fill-rule="nonzero"></path>
                    <path d="M199.130162,635.469083 C198.218239,637.177045 191.337368,639.397396 181.306219,639.875625 C175.486494,640.148899 164.725806,640.353855 159.967227,636.101029 C155.208649,631.848204 153.102937,631.694487 145.509108,631.079621 C137.915279,630.464754 131.631302,628.39812 129.989841,625.955735 C128.34838,623.513349 129.243723,614 129.243723,614 C129.223442,614.526633 129.262389,615.053915 129.359786,615.571325 C129.824037,617.14265 133.322504,618.389463 138.959845,618.987249 C144.597185,619.585036 157.546487,626.519362 170.213922,629.235022 C182.881358,631.950681 196.742583,625.323789 196.742583,625.323789 C201.269035,626.433964 200.042085,633.761121 199.130162,635.469083 Z" id="Path" fill="#384A54" fill-rule="nonzero"></path>
                    <line x1="130.89" y1="612" x2="129.11" y2="614" id="Path" fill="#BCD0E8" fill-rule="nonzero"></line>
                    <path d="M250.199267,107 C250.199267,107 247.985386,105.438777 245,103.270411 C246.224344,101.761229 248.136332,95.0826623 250.769509,96.1061309 C253.838754,97.2857218 250.199267,107 250.199267,107 Z" id="Path" fill="#793816" fill-rule="nonzero"></path>
                    <path d="M243.896616,103 L239,99.9039168 C239,99.9039168 243.862611,89.6174763 246.310919,91.1570587 C248.759227,92.696641 243.896616,103 243.896616,103 Z" id="Path" fill="#793816" fill-rule="nonzero"></path>
                    <path d="M268,174.193553 L267.683562,174.193553 C266.900793,174.326412 264.685724,174.72499 261.45472,175.273034 C243.301146,178.312189 192.937468,185.951594 182.378417,179.4581 C169.437749,171.486546 188.324129,144.167368 198.466814,140.38088 C208.609499,136.594392 217.003445,130.516083 218.135962,126.347625 C219.268478,122.179166 218.319163,114.606191 222.982467,113.642961 C227.64577,112.679732 229.3612,110.404518 232.97526,111.982221 C233.641446,110.753273 234.507488,108.976281 235.473458,107 C236.03766,107.945748 236.538396,108.927736 236.972377,109.93951 C238.304749,113.260991 242.868125,116.964442 247.631356,119.986989 C249.529987,125.48404 242.185284,131.612171 241.16935,134.219534 C239.669246,137.560199 237.465286,140.539565 234.707344,142.955028 C232.808713,144.466301 227.029548,148.269397 227.029548,148.269397 L251.461927,143.718968 L268,174.193553 Z" id="Path" fill="#793816" fill-rule="nonzero"></path>
                    <path d="M367.877421,303.459035 C367.877421,303.459035 283.940941,338.738027 264.805772,314.491011 C261.55229,310.374851 275.974942,208.087438 275.974942,208.087438 C274.801005,201.788213 260.881469,186.273455 262.072176,176.424667 C265.325658,175.891399 267.556138,175.491449 268.344353,175.341467 L269.618912,176.041381 L279.76508,188.606501 C279.76508,188.606501 311.947719,177.757836 314.060805,171.275301 C316.173891,164.792765 321.540459,145.578463 317.129811,138.912617 C314.312363,134.646475 304.618999,129.197145 298.028182,125.830893 C304.266818,124.864345 307.654464,124.064444 307.922792,119.864961 C308.174992,116.948471 308.174992,114.015862 307.922792,111.099372 L310.522224,110.566105 C316.7944,109.332923 332.793482,106.449945 340.105431,107.666462 C349.295679,109.182942 351.593241,107.866437 350.268369,106 C351.663046,106.062461 352.961121,106.725652 353.823721,107.816443 C353.957885,117.098634 370.493623,123.997785 371.935888,131.830155 C376.967046,158.660187 362.544394,211.820312 362.175442,262.914024 C361.990966,288.427551 367.877421,303.459035 367.877421,303.459035 Z" id="Path" fill="#DF35AE" fill-rule="nonzero"></path>
                    <path d="M339.518033,107.077225 C332.217891,105.851003 316.244645,108.756981 309.982597,110 C310.170248,108.85097 310.21524,107.683038 310.116544,106.522906 C309.94911,104.994328 309.379833,103.717714 307.95664,103.432155 C306.669618,103.281957 305.3668,103.509521 304.206109,104.08726 C301.677849,105.078316 299.183075,106.270942 296.303203,102.273124 C292.083855,96.3267888 282.908447,78.8573298 282.908447,72.524651 C282.908447,66.1919721 286.742696,65.2345113 284.833944,61.9757853 C282.653506,58.1263552 281.136444,53.9352726 280.3467,49.5791885 C279.358837,43.0617365 280.681569,33.5879145 281.820124,33 C286.608749,44.3215532 294.444681,58.7170593 298.078008,59.1034031 C301.711335,59.4897469 300.003504,51.6116928 305.160485,51.796466 C310.317466,51.9812391 312.812239,58.3307155 312.628061,64.2770506 C312.443883,70.2233857 348.710184,91.9090314 348.710184,91.9090314 L348.710184,91.7242583 C348.710184,91.7242583 348.325085,103.482548 349.647817,105.347077 L349.647817,105.347077 C350.987292,107.261998 348.69344,108.605803 339.518033,107.077225 Z" id="Path" fill="#793816" fill-rule="nonzero"></path>
                    <path d="M372.928432,76.9584823 C372.924263,79.306131 372.393359,81.6229493 371.374814,83.7383303 C366.463375,91.5368253 341.906183,96.1290868 335.641594,94.7597579 C335.302843,94.6921376 334.976207,94.5739186 334.672671,94.4090761 C333.50328,93.7411108 330.796978,91.7706131 327.589508,89.3993363 L327.455863,89.3993363 C319.838122,83.5045424 309.447256,75.154976 309.447256,75.154976 C311.703919,72.2187114 313.01474,68.6663012 313.20601,64.968505 C313.406477,59.057012 310.934052,52.7614389 305.77203,52.5610493 C300.610008,52.3606597 302.330682,60.192553 298.705573,59.8251721 C295.080463,59.4577912 286.744383,45.1299352 282,33.8747197 C282,33.8747197 283.570324,8.10795777 316.279835,5.26910519 C343.526624,2.89782833 355.220525,16.5076216 362.938499,33.8747197 C371.257875,52.8616337 373.446305,68.241535 372.928432,76.9584823 Z" id="Path" fill="#1E0E04" fill-rule="nonzero"></path>
                    <path d="M40,196.264854 C29.1499718,209.17649 25.3400383,240.853485 20.552774,246.974805 C20.9337673,244.399167 8.79167474,255.688487 9.30518752,253.781846 C10.6469467,248.764371 5.18052033,200.262109 7.64869467,192 C11.5248879,193.94009 33.7053272,195.177734 40,196.264854 Z" id="Path" fill="#57280F" fill-rule="nonzero"></path>
                    <path d="M153.714712,201.113897 C156.616053,198.818864 159.724419,196.796499 163,195.072702 C163,195.072702 151.944495,137.123829 144.796828,130.600004 C137.64916,124.076179 119.128685,119.998788 109.008389,121.213684 C104.983651,134.194764 95.6482629,141.950128 81.2193264,143.930574 C71.6174442,145.352874 62.0719743,141.026658 56.8370957,132.880014 C55.9401396,131.443284 55.2010707,129.914461 54.6326749,128.319994 C47.9526117,128.319994 41.6566521,127.105098 37.414812,124.009609 C31.603157,126.089911 23.9210844,129.668029 20.2470496,134.960315 C13.8842894,144.080356 -2.49856556,196.23767 0.323761139,197.602348 C4.29839874,199.532868 26.2925068,195.721756 38.049418,209.252035 L38.049418,222.565964 C32.7053675,246.880525 19.6792442,308.823577 22.6685725,317.19471 C23.1069481,318.515463 23.8706008,319.705617 24.8896935,320.656331 C30.3005447,325.465987 41.4395501,319.108587 50.9085397,313.583306 C61.9807444,307.126051 73.4537529,301.817122 85.6281681,301.034929 C101.72712,299.986457 123.85483,302.865594 138.63447,311.686072 C145.398033,315.730177 153.197007,325 153.197007,325 C153.197007,325 144.99723,245.11643 148.687965,228.474019 C161.463585,228.590516 153.597811,213.246214 153.714712,201.113897 Z" id="Path" fill="#4DB7C5" fill-rule="nonzero"></path>
                    <path d="M153,585.329554 C146.7,586.894136 137.133333,585.329554 133.7,584.580552 L132.416667,584.31424 C132.416667,584.31424 131.783333,526.191687 130.866667,511.494604 C129.95,496.79752 137.533333,478.77154 137.933333,472.047166 C138.333333,465.322793 130.266667,439.024501 125.066667,429.537143 C119.866667,420.049785 93.4,357.516442 91,351.87396 C98.0333333,345.449188 114.333333,375.658934 128.666667,402.772806 C144.516667,432.866041 154.166667,458.74822 150.466667,475.076463 C145.166667,498.528547 138.383333,546.647763 140.616667,560.978667 C142.633333,573.961368 147.5,583.282282 153,585.329554 Z" id="Path" fill="#2E3D45" fill-rule="nonzero"></path>
                    <path d="M273.502318,119.519409 C271.433604,118.038817 267.629839,115.09427 264.226471,112.48244 C260.823103,109.87061 258.220527,107.907579 257.5532,107.491682 C256.03503,106.726433 254.700376,109.38817 254.116465,109.38817 C253.532554,109.38817 231.510758,94 228.958232,94 C226.405706,94 226.255557,96.5619224 229.058331,99.1404806 C230.5765,100.537893 235.164374,103.532348 234.93081,103.931608 C234.697245,104.330869 228.641252,99.4898336 227.390013,101.386322 C224.754071,105.4122 242.80527,117.373383 247.559976,120.417745 L247.559976,120.417745 C248.927996,124.709797 243.939726,130.665434 243.939726,130.665434 C246.273756,133.225263 249.113858,135.275665 252.281315,136.687616 C254.977467,137.884618 257.841,138.664386 260.773053,139 L260.773053,139 C268.931127,134.641405 280.792867,128.752311 288,126.889094 C283.026835,124.717845 278.18593,122.257041 273.502318,119.519409 L273.502318,119.519409 Z" id="Path" fill="#57280F" fill-rule="nonzero"></path>
                    <path d="M327.187391,371.960374 C319.554466,388.854646 296,446.049316 296,446.049316 L298.32014,461 L344,365 C344,365 338.418214,367.608064 327.187391,371.960374 Z" id="Path" fill="#FFC862" fill-rule="nonzero"></path>
                    <path d="M314.209331,170.579101 C312.091424,177.078437 279.835356,188 279.835356,188 L269.666038,175.369848 L268.38857,174.666312 L268.707937,174.666312 L252,143.861473 C252,143.861473 255.798787,141.66711 261.143982,138.836214 L261.143982,138.836214 C269.36348,134.447487 281.31453,128.517681 288.575927,126.641585 C289.147426,126.490827 289.702116,126.373571 290.256806,126.273066 C293.265579,125.720287 295.921368,125.335017 298.190555,125 L298.190555,125 C304.796409,128.350173 314.495081,133.844456 317.335766,138.149428 C321.706052,144.749269 316.327239,164.079766 314.209331,170.579101 Z" id="Path" fill="#BA0A87" fill-rule="nonzero"></path>
                    <path d="M310.937416,107 C310.769217,105.435185 310.197341,104.128307 308.767652,103.835979 C307.474755,103.68222 306.16599,103.915178 305,104.506614 C308.649913,101.738095 314.805987,96.8029101 315.79836,94 C316.891652,99.5542328 313.292199,104.472222 310.937416,107 Z" id="Path" fill="#57280F" fill-rule="nonzero"></path>
                    <g id="Group" stroke-width="1" fill="none" fill-rule="evenodd" transform="translate(14.000000, 0.000000)">
                        <path d="M128.248172,129.608066 C125.701704,127.677589 122.788556,126.291507 119.688339,125.535281 C119.688339,125.535281 128.615261,76.930034 109.42655,47.7501253 C109.333587,44.8270414 108.90242,41.9247419 108.14174,39.1017434 C105.789037,30.1684342 99.7988224,28.0901409 99.7988224,28.0901409 C99.7988224,28.0901409 97.1791462,21.000479 86.216552,18.9054253 C89.8874359,20.7323121 90.4046968,26.2464936 90.4046968,26.2464936 C76.2050506,22.2910321 60.5704224,28.3080265 48.923709,56.1303403 C48.5761631,56.34028 48.2565743,56.5937149 47.9726164,56.8845597 C46.8804644,58.2421056 46.4407957,60.0147761 46.7712362,61.7283239 C45.3028827,65.7508271 43.9179583,70.108539 42.6164631,75.0361054 C28.3167018,128.384554 46.2039178,150.893812 47.0215238,151.882677 L47.0215238,151.882677 C47.0215238,151.882677 18.6556029,146.066808 9.41164987,138.474333 C2.18668297,132.541141 -1.28397087,128.250471 1.56930705,120.03786 C4.42258497,111.825249 -1.76786011,110.333571 0.518099394,104.81939 C2.8040589,99.305208 8.37712805,104.031649 6.80865949,97.9978945 C5.24019092,91.9641397 4.70624418,86.4667186 8.37712805,82.5280176 C12.0480119,78.5893165 5.24019092,66.25364 10.7298309,62.8512728 C16.2194709,59.4489055 16.7367318,63.639013 18.8224613,57.5884977 C20.9081907,51.5379825 15.1682632,49.2082827 19.356408,46.8450621 C23.5445528,44.4818415 21.4421375,31.3751852 25.0963355,30.3192781 C28.7505336,29.263371 30.1020863,31.1070183 31.3702098,27.1683173 C32.6383333,23.2296162 28.7672194,18.5031749 33.2056517,17.7154347 C37.644084,16.9276945 39.9967869,19.559082 42.3494897,15.0840472 C44.7021926,10.6090124 42.3494897,6.9217178 45.9703161,7.18988468 C49.5911425,7.45805156 51.5266994,8.07818747 53.8126589,5.09483092 C57.5836578,0.0667019204 59.3356706,0.401910521 64.2913638,0.921483851 C69.247057,1.44105718 69.6808888,5.09483092 75.5209313,0.770639981 C79.1584435,-1.92778925 84.4144818,3.28470448 87.7850206,3.82103824 C91.1555594,4.357372 88.8362283,7.7597393 93.541634,9.58662617 C98.2470396,11.413513 101.117003,8.54747951 102.435184,10.3743664 C103.753365,12.2012533 100.082482,14.3130674 104.520914,16.4248816 C108.959346,18.5366958 110.010554,18.7881022 109.743581,22.9782097 C109.476607,27.1683173 111.762567,29.5482983 114.3155,39.3866707 C116.868432,49.2250432 126.462788,68.7174233 129.199265,92.1149836 C131.935742,115.512544 131.50191,121.881507 128.248172,129.608066 Z" id="Path" fill="#1E0E04" fill-rule="nonzero"></path>
                        <path d="M90.3713252,26.3302958 C90.3713252,26.3302958 79.5922752,26.5984626 72.5341667,34.3753022 C67.5284159,39.8894836 61.9720326,58.2756754 61.9720326,58.2756754 C61.9720326,58.2756754 53.3621414,53.5995154 48.8903374,56.2309029 C60.5370508,28.3918286 76.1716789,22.3413134 90.3713252,26.3302958 Z" id="Path" fill="#000000" fill-rule="nonzero"></path>
                        <path d="M110.477757,76.9635548 C107.724594,85.9806662 102.335069,99.6739375 93.7919215,102.439408 C92.6223753,102.838234 91.3877303,103.008898 90.1544093,102.942221 C79.6256469,102.422648 61.5048292,91.7630145 58.4513213,78.4217122 L58.3178346,77.7680555 C52.2608762,75.488637 47.3385546,67.5274327 46.8046079,61.845647 C46.4741674,60.1320991 46.913836,58.3594286 48.0059881,57.0018827 C48.2899459,56.7110379 48.6095347,56.4576031 48.9570807,56.2476633 C53.4455705,53.6162758 62.038776,58.2924358 62.038776,58.2924358 C62.038776,58.2924358 67.5951593,39.8559628 72.60091,34.3920626 C79.6590186,26.6152231 90.4380685,26.3470562 90.4380685,26.3470562 C90.4380685,26.3470562 89.7873209,20.8161143 86.1831804,18.9892274 C97.1457745,21.0842812 99.7654507,28.1739431 99.7654507,28.1739431 C99.7654507,28.1739431 105.772352,30.2689968 108.108369,39.1855456 C108.870177,41.9637344 109.312457,44.8204774 109.42655,47.699844 C109.31661,50.5807356 109.665857,53.4607588 110.461071,56.2309029 C112.313199,61.4936779 113.614694,66.7229321 110.477757,76.9635548 Z" id="Path" fill="#793816" fill-rule="nonzero"></path>
                        <path d="M106.856931,144.089077 C106.856931,144.089077 77.6400324,151.329583 49.4409699,150.156353 C49.4409699,150.156353 58.4346354,130.881858 60.7873383,115.713669 C62.9064394,102.1042 59.1187547,82.192809 58.3845779,78.4049518 C61.4547717,91.8132958 79.5755894,102.405888 90.0876659,102.925461 C91.320987,102.992138 92.555632,102.821473 93.7251781,102.422648 C92.3068821,105.99262 91.0053869,111.288915 93.0911164,115.512544 C96.6451994,122.602206 106.856931,144.089077 106.856931,144.089077 Z" id="Path" fill="#57280F" fill-rule="nonzero"></path>
                        <path d="M60.7873383,115.713669 C58.4346354,130.798056 49.4409699,150.156353 49.4409699,150.156353 L47.0048379,152 L47.0048379,152 C46.187232,151.011135 28.3167018,128.535398 42.5997773,75.1534284 C43.9012725,70.3096641 45.2861968,65.8849106 46.7545504,61.845647 C47.2884971,67.5274327 52.2108187,75.488637 58.2677771,77.7680555 L58.4012638,78.4217122 C59.1521264,82.2598507 62.8897536,102.1042 60.7873383,115.713669 Z" id="Path" fill="#000000" fill-rule="nonzero"></path>
                        <path d="M119.705024,125.485 C105.688922,120.356308 97.195832,124.093884 97.195832,124.093884 C97.195832,124.093884 96.6451994,122.618966 93.1244881,115.529304 C91.0220727,111.288915 92.3402538,106.00938 93.7585498,102.439408 C102.351755,99.6906979 107.74128,85.9974266 110.444386,76.9635548 C113.581323,66.7396925 112.279828,61.4936779 110.444386,56.2309029 C109.649171,53.4607588 109.299924,50.5807356 109.409864,47.699844 C128.615261,76.8629922 119.705024,125.485 119.705024,125.485 Z" id="Path" fill="#000000" fill-rule="nonzero"></path>
                    </g>
                    <g id="Group" stroke-width="1" fill="none" fill-rule="evenodd" transform="translate(10.000000, 118.000000)">
                        <path d="M89.4740783,14.5936492 C87.684067,19.5899787 87.2658401,20.4227002 87.2658401,20.4227002 C87.2658401,20.4227002 78.4663452,34.4956949 73.7487453,39.9750029 C69.0311455,45.4543108 67.5087994,54.5975938 58.8933244,56.6294344 C56.9025642,62.0088158 33.5487718,148.228808 24.7325479,150.044141 C-11.9041321,157.472017 0.291365513,119.649803 10.1949795,104.294417 C10.6299355,103.62824 41.9802269,57.7619357 45.0249191,52.6656797 C48.7220452,46.4868856 50.2778494,40.1915105 54.3932025,33.1466859 C55.8988195,30.5819035 58.5754719,23.9201309 58.5754719,23.9201309 C58.5754719,23.9201309 62.9752194,12.928206 65.5013101,12.928206 C69.3489979,13.1114048 67.4418831,19.873104 67.4418831,19.873104 C67.4418831,19.873104 78.5332615,0.637235574 81.9125352,0.087639333 C85.2918089,-0.461956908 84.8568529,1.75308249 84.8568529,1.75308249 C85.4128033,1.23365975 86.1578398,0.963003877 86.9191664,1.00388804 C87.680493,1.04477221 88.3919613,1.39364416 88.8885606,1.9695901 C90.8124045,4.0847029 88.3699592,8.91448805 88.3699592,8.91448805 C88.3699592,8.91448805 91.2640896,9.59731974 89.4740783,14.5936492 Z" id="Path" fill="#793816" fill-rule="nonzero"></path>
                        <path d="M139.828602,123.197197 C132.283788,108.308135 122.09578,65.7394085 121.878302,60.4099904 C118.130988,59.2608346 115.471065,57.3955383 110.351967,48.7518883 C105.232869,40.1082383 88.7881861,23.770241 92.7697066,20.5892446 C90.3439903,16.3090557 91.5484839,12.2620288 93.0373718,12.1621022 C91.3644641,7.74867784 92.2343761,0.92036091 97.6211391,4.66760801 C100.716018,2.13613441 103.258838,2.80231167 104.747726,4.4011371 C106.236614,5.99996253 114.032364,19.7898318 114.032364,19.7898318 C114.032364,19.7898318 114.969193,14.7935024 116.725746,14.7935024 C118.482299,14.7935024 122.09578,29.3827844 124.655329,33.9294442 C127.214877,38.476104 130.293028,46.2537236 134.190903,49.2015579 C138.088778,52.1493923 166.695501,97.8658069 166.996624,116.502116 C167.297747,135.138425 147.373416,138.086259 139.828602,123.197197 Z" id="Path" fill="#793816" fill-rule="nonzero"></path>
                    </g>
                    <path d="M373,76.5081574 C372.995783,78.7842797 372.458721,81.030511 371.428361,83.0814421 C366.459956,90.6423386 341.617928,95.0946867 335.280676,93.7670774 L335.17928,93.7670774 L327.135195,88.569973 L327,88.569973 C327,88.569973 339.116826,73.0272307 373,76.5081574 Z" id="Path" fill="#000000" fill-rule="nonzero"></path>
                    <polygon id="Path" fill="#793816" fill-rule="nonzero" points="284 43 291.3 34.2 308 31 294.433333 38.4723404"></polygon>
                    <polygon id="Path" fill="#793816" fill-rule="nonzero" points="286 52 293.3 43.2 310 40 296.433333 47.4723404"></polygon>
                </g>
            </g>
        </g>
        <g id="Group-2" transform="translate(1412.500000, 168.857564)" stroke="#FFFFFF" stroke-width="12">
            <path d="M-2.13162821e-13,138.642436 C29.7249012,142.40813 54.8367744,133.90813 75.3356195,113.142436 C106.083887,81.9938951 96.6877327,49.1199574 122.5,23.6424361 C139.708178,6.65742196 168.95297,-1.17591137 210.234375,0.142436144" id="Line" stroke-linecap="square"></path>
            <path d="M80,240.642436 C109.724901,244.40813 134.836774,235.90813 155.33562,215.142436 C186.083887,183.993895 176.687733,151.119957 202.5,125.642436 C219.708178,108.657422 248.95297,100.824089 290.234375,102.142436" id="Line-Copy-2" stroke-linecap="square"></path>
            <path d="M40,189.642436 C69.7249012,193.40813 94.8367744,184.90813 115.33562,164.142436 C146.083887,132.993895 136.687733,100.119957 162.5,74.6424361 C179.708178,57.657422 208.95297,49.8240886 250.234375,51.1424361" id="Line-Copy" stroke-linecap="square"></path>
            <path d="M120,291.642436 C149.724901,295.40813 174.836774,286.90813 195.33562,266.142436 C226.083887,234.993895 215.424463,207.030114 242.5,176.642436 C260.550358,156.383984 278.883692,148.591015 297.5,153.26353" id="Line-Copy-3"></path>
        </g>
        <g id="dots" transform="translate(1826.899795, 803.110187)" stroke="#BA0A87">
            <path d="M86.6140189,1.25804754 C85.9389199,-0.0639375683 83.9853565,-0.208969679 82.4856332,0.206516086 C73.6056327,2.66664574 84.1712641,14.6536637 87.2844408,5.42379758 C87.7057753,4.17463604 87.0768147,2.16429871 86.6140189,1.25804754 Z" id="Path-3" stroke-width="10"></path>
            <path d="M107.605062,20.969715 C106.929963,19.6477299 104.9764,19.5026978 103.476677,19.9181836 C94.5966762,22.3783132 105.162308,34.3653311 108.275484,25.1354651 C108.696819,23.8863035 108.067858,21.8759662 107.605062,20.969715 Z" id="Path-3-Copy" stroke-width="15"></path>
            <path d="M74.0193928,60.39305 C73.3442938,59.0710648 71.3907304,58.9260327 69.891007,59.3415185 C61.0110066,61.8016482 71.576638,73.7886661 74.6898147,64.5588 C75.1111492,63.3096385 74.4821886,61.2993011 74.0193928,60.39305 Z" id="Path-3-Copy-2" stroke-width="8" transform="translate(70.621496, 63.567501) scale(-1, 1) translate(-70.621496, -63.567501) "></path>
            <path d="M86.6140189,111.424554 C85.9389199,109.9276 83.9853565,109.763373 82.4856332,110.233849 C73.6056327,113.019584 84.1712641,126.593119 87.2844408,116.141653 C87.7057753,114.727161 87.0768147,112.45075 86.6140189,111.424554 Z" id="Path-3-Copy-5" stroke-width="10"></path>
            <path d="M7.60506243,123.745118 C6.92996347,122.248165 4.97640001,122.083937 3.4766767,122.554414 C-5.40332375,125.340149 5.16230764,138.913684 8.27548438,128.462218 C8.69681885,127.047726 8.06785828,124.771315 7.60506243,123.745118 Z" id="Path-3-Copy-4" stroke-width="15"></path>
            <path d="M54.0193928,148.386248 C53.3442938,146.889294 51.3907304,146.725066 49.891007,147.195543 C41.0110066,149.981278 51.576638,163.554813 54.6898147,153.103347 C55.1111492,151.688855 54.4821886,149.412444 54.0193928,148.386248 Z" id="Path-3-Copy-3" stroke-width="8" transform="translate(50.621496, 151.980847) scale(-1, 1) translate(-50.621496, -151.980847) "></path>
        </g>
        <g id="dots-copy" transform="translate(1404.500000, 129.500000) scale(-1, 1) translate(-1404.500000, -129.500000) translate(1315.000000, 0.000000)" stroke="#BA0A87">
            <path d="M143.653517,2.12867663 C142.530269,-0.108185424 139.279875,-0.353586694 136.784593,0.349435097 C122.009798,4.51209216 139.589193,24.7946999 144.768984,9.17732497 C145.470012,7.06368388 144.42353,3.66209695 143.653517,2.12867663 Z" id="Path-3" stroke-width="10"></path>
            <path d="M177.653517,34.1286766 C176.530269,31.8918146 173.279875,31.6464133 170.784593,32.3494351 C156.009798,36.5120922 173.589193,56.7946999 178.768984,41.177325 C179.470012,39.0636839 178.42353,35.6620969 177.653517,34.1286766 Z" id="Path-3-Copy" stroke-width="15"></path>
            <path d="M122.653517,99.1286766 C121.530269,96.8918146 118.279875,96.6464133 115.784593,97.3494351 C101.009798,101.512092 118.589193,121.7947 123.768984,106.177325 C124.470012,104.063684 123.42353,100.662097 122.653517,99.1286766 Z" id="Path-3-Copy-2" stroke-width="8" transform="translate(117.000000, 104.500000) scale(-1, 1) translate(-117.000000, -104.500000) "></path>
            <path d="M143.653517,183.4125 C142.530269,180.87739 139.279875,180.599268 136.784593,181.396026 C122.009798,186.113704 139.589193,209.10066 144.768984,191.400968 C145.470012,189.005508 144.42353,185.150377 143.653517,183.4125 Z" id="Path-3-Copy-5" stroke-width="10"></path>
            <path d="M12.6535172,204.4125 C11.5302686,201.87739 8.27987461,201.599268 5.7845927,202.396026 C-8.99020236,207.113704 8.58919296,230.10066 13.7689842,212.400968 C14.4700123,210.005508 13.42353,206.150377 12.6535172,204.4125 Z" id="Path-3-Copy-4" stroke-width="15"></path>
            <path d="M89.6535172,244.4125 C88.5302686,241.87739 85.2798746,241.599268 82.7845927,242.396026 C68.0097976,247.113704 85.589193,270.10066 90.7689842,252.400968 C91.4700123,250.005508 90.42353,246.150377 89.6535172,244.4125 Z" id="Path-3-Copy-3" stroke-width="8" transform="translate(84.000000, 250.500000) scale(-1, 1) translate(-84.000000, -250.500000) "></path>
        </g>
    </g>
</svg>