<?xml version="1.0" encoding="UTF-8"?>
<svg width="7343px" height="1599px" viewBox="0 0 7343 1599" version="1.1" xmlns="http://www.w3.org/2000/svg" xmlns:xlink="http://www.w3.org/1999/xlink">
    <title>about</title>
    <g id="about" stroke="none" stroke-width="1" fill="none" fill-rule="evenodd">
        <g id="sign-group" opacity="0.677385603" transform="translate(-176.000000, -0.000000)" fill-rule="nonzero">
            <g id="sign" transform="translate(-0.000000, -0.000000)">
                <g id="bluesign" transform="translate(-0.000000, -0.000000)">
                    <path d="M333.092769,1634.11368 C242.741121,1741.61679 211.014588,2005.36146 171.14951,2056.32796 C174.322163,2034.88304 73.211082,2128.87863 77.4872668,2113.00382 C88.6605241,2071.228 43.1398465,1667.39508 63.6931221,1598.60423 C95.9714208,1614.75755 280.675019,1625.06225 333.092769,1634.11368 Z" id="Path" fill="#57280F"></path>
                    <path d="M1280.03148,1674.48712 C1304.19186,1655.37853 1330.07622,1638.54019 1357.35303,1624.18774 C1357.35303,1624.18774 1265.29032,1141.70173 1205.76941,1087.38395 C1146.2485,1033.06617 992.022588,999.117557 907.747655,1009.23286 C874.232376,1117.31416 796.493617,1181.88581 676.339257,1198.37513 C596.381319,1210.21729 516.893144,1174.19694 473.30064,1106.36746 C465.8314,1094.40516 459.676936,1081.67608 454.943723,1068.40044 C399.316705,1068.40044 346.88824,1058.28514 311.565083,1032.51191 C263.169577,1049.83263 199.198505,1079.62427 168.603645,1123.68818 C115.61891,1199.62223 -20.806353,1633.88735 2.69606235,1645.24974 C35.7941384,1661.32337 218.946097,1629.59181 316.84965,1742.24578 L316.84965,1853.0984 C272.348035,2055.54298 163.875349,2571.28478 188.76844,2640.98336 C192.418933,2651.98004 198.778113,2661.88934 207.264423,2669.80504 C252.322308,2709.85055 345.080362,2656.91843 423.931661,2610.91459 C516.133444,2557.15107 611.672848,2512.94859 713.05309,2506.436 C847.114204,2497.70636 1031.3787,2521.67823 1154.45348,2595.11809 C1210.77584,2628.78957 1275.72038,2705.97071 1275.72038,2705.97071 C1275.72038,2705.97071 1207.43822,2040.85501 1238.17215,1902.28924 C1344.55882,1903.2592 1279.058,1775.50156 1280.03148,1674.48712 Z" id="Path" fill="#3D506E"></path>
                    <path d="M1184.54594,1079.12501 C1163.34068,1063.05174 1139.08197,1051.51114 1113.26547,1045.21475 C1113.26547,1045.21475 1187.6028,640.524364 1027.81228,397.570586 C1027.03815,373.232803 1023.44768,349.068073 1017.11326,325.563607 C997.521553,251.184306 947.63912,233.880303 947.63912,233.880303 C947.63912,233.880303 925.82424,174.851326 834.53522,157.407775 C865.103841,172.618552 869.411238,218.529978 869.411238,218.529978 C751.166251,185.596554 620.971712,235.694432 523.985811,467.34479 C521.091685,469.092761 518.430367,471.202876 516.065759,473.624468 C506.971061,484.927482 503.3098,499.68685 506.061483,513.953958 C493.834034,547.445576 482.301327,583.728162 471.463361,624.755394 C352.384684,1068.93798 501.337242,1256.35149 508.145707,1264.58485 L508.145707,1264.58485 C508.145707,1264.58485 271.93363,1216.16155 194.956282,1152.94612 C134.791676,1103.54598 105.890434,1067.82159 129.65059,999.44287 C153.410746,931.06415 101.860934,918.644342 120.896848,872.732916 C139.932763,826.821489 186.341488,866.174141 173.28035,815.936714 C160.219212,765.699287 155.772867,719.927409 186.341488,687.133533 C216.91011,654.339657 160.219212,551.632028 205.933196,523.303702 C251.647181,494.975375 255.954577,529.862477 273.323112,479.485501 C290.691648,429.108526 242.893439,409.711297 277.769457,390.034972 C312.645476,370.358646 295.137993,261.231791 325.567666,252.440241 C355.99734,243.648692 367.25215,258.999016 377.81222,226.205141 C388.372289,193.411265 356.136288,154.058613 393.096531,147.499838 C430.056773,140.941063 449.648481,162.850163 469.240189,125.590738 C488.831896,88.3313132 469.240189,57.6306634 499.391966,59.8634379 C529.543743,62.0962125 545.661743,67.2595036 564.697658,42.4198869 C596.099969,0.555364439 610.689539,3.3463326 651.957178,7.67233326 C693.224818,11.9983339 696.837473,42.4198869 745.469371,6.41639758 C775.760097,-16.0508961 819.528805,27.3486588 847.596358,31.8142079 C875.663911,36.2797569 856.3501,64.6080838 895.533515,79.8188603 C934.71693,95.0296368 958.616035,71.166859 969.592949,86.3776355 C980.569863,101.588412 950.001241,119.171511 986.961484,136.754611 C1023.92173,154.33771 1032.67547,156.430936 1030.4523,191.318038 C1028.22912,226.205141 1047.26504,246.021014 1068.52412,327.93593 C1089.78321,409.850846 1169.67847,572.145644 1192.46599,766.955222 C1215.25351,961.7648 1211.64085,1014.7932 1184.54594,1079.12501 Z" id="Path" fill="#3D506E"></path>
                    <path d="M869.133342,219.22772 C869.133342,219.22772 779.372752,221.460495 720.597629,286.210956 C678.913145,332.122382 632.643367,485.206986 632.643367,485.206986 C632.643367,485.206986 560.946054,446.27298 523.707915,468.18208 C620.693815,236.392174 750.888354,186.015199 869.133342,219.22772 Z" id="Path" fill="#3D506E"></path>
                    <path d="M1036.56602,640.803461 C1013.63955,715.880505 968.759259,829.891554 897.617739,852.917042 C887.878555,856.237686 877.597272,857.658652 867.327014,857.103494 C779.650649,852.777493 628.752815,764.024706 603.32528,652.944173 L602.213694,647.501785 C551.775468,628.523201 510.785725,562.237707 506.33938,514.930797 C503.587696,500.663689 507.248957,485.904321 516.343656,474.601307 C518.708264,472.179715 521.369582,470.0696 524.263708,468.321629 C561.640796,446.412529 633.19916,485.346535 633.19916,485.346535 C633.19916,485.346535 679.468938,331.843286 721.153422,286.350504 C779.928545,221.600043 869.689135,219.367269 869.689135,219.367269 C869.689135,219.367269 864.270152,173.316294 834.257323,158.105517 C925.546344,175.549068 947.361224,234.578045 947.361224,234.578045 C947.361224,234.578045 997.382605,252.021596 1016.83536,326.261349 C1023.17919,349.392727 1026.86219,373.17815 1027.81228,397.151941 C1026.89677,421.138427 1029.80506,445.117684 1036.42707,468.18208 C1051.85033,512.000281 1062.6883,555.539384 1036.56602,640.803461 Z" id="Path" fill="#793816"></path>
                    <path d="M1006.41424,1199.69484 C1006.41424,1199.69484 763.115803,1259.97975 528.293208,1250.21136 C528.293208,1250.21136 603.186332,1089.73069 622.778039,963.439381 C640.424471,850.126074 608.883211,684.342565 602.769487,652.804624 C628.335971,764.443351 779.233804,852.637945 866.771221,856.963946 C877.041479,857.519104 887.322762,856.098137 897.061946,852.777493 C885.251342,882.501304 874.413376,926.598601 891.781911,961.7648 C921.377895,1020.79378 1006.41424,1199.69484 1006.41424,1199.69484 Z" id="Path" fill="#57280F"></path>
                    <path d="M622.778039,963.439381 C603.186332,1089.03295 528.293208,1250.21136 528.293208,1250.21136 L508.006759,1265.56168 L508.006759,1265.56168 C501.198293,1257.32833 352.384684,1070.19391 471.324413,625.732233 C482.162379,585.402743 493.695086,548.561963 505.922535,514.930797 C510.36888,562.237707 551.358623,628.523201 601.796849,647.501785 L602.908435,652.944173 C609.161108,684.900758 640.285523,850.126074 622.778039,963.439381 Z" id="Path" fill="#3D506E"></path>
                    <path d="M1113.40442,1044.7961 C996.687864,1002.09429 925.963189,1033.21359 925.963189,1033.21359 C925.963189,1033.21359 921.377895,1020.93333 892.059808,961.904349 C874.552325,926.598601 885.529239,882.640853 897.339843,852.917042 C968.898207,830.031103 1013.7785,716.020053 1036.28812,640.803461 C1062.4104,555.678932 1051.57243,512.000281 1036.28812,468.18208 C1029.66612,445.117684 1026.75783,421.138427 1027.67333,397.151941 C1187.6028,639.966171 1113.40442,1044.7961 1113.40442,1044.7961 Z" id="Path" fill="#3D506E"></path>
                    <path d="M828.352404,1103.98317 C813.446408,1145.58293 809.963699,1152.51622 809.963699,1152.51622 C809.963699,1152.51622 736.687497,1269.68887 697.402537,1315.30994 C658.117576,1360.93101 645.440515,1437.05856 573.696704,1453.9758 C557.119008,1498.76487 362.644524,2216.63802 289.229014,2231.7526 C-15.8563156,2293.59757 85.6994858,1978.6874 168.170041,1850.83748 C171.792058,1845.29085 432.855943,1463.40508 458.210066,1420.97332 C488.997216,1369.52829 501.952894,1317.1126 536.222753,1258.45694 C548.760506,1237.1024 571.049845,1181.63605 571.049845,1181.63605 C571.049845,1181.63605 607.687947,1090.11659 628.72351,1090.11659 C660.764435,1091.64191 644.883281,1147.94025 644.883281,1147.94025 C644.883281,1147.94025 737.24473,987.781182 765.385021,983.205209 C793.525312,978.629236 789.903294,997.071795 789.903294,997.071795 C794.53287,992.747048 800.737028,990.49355 807.076837,990.833954 C813.416647,991.174358 819.34127,994.079089 823.476611,998.874451 C839.497073,1016.48502 819.158051,1056.69811 819.158051,1056.69811 C819.158051,1056.69811 843.258399,1062.38341 828.352404,1103.98317 Z" id="Path" fill="#793816"></path>
                    <path d="M1247.6706,2008.22323 C1184.84252,1884.25596 1100.00372,1529.82602 1098.19272,1485.45295 C1066.98764,1475.885 1044.83761,1460.35443 1002.20925,1388.38685 C959.580888,1316.41927 822.640761,1180.38806 855.796153,1153.90288 C835.596439,1118.26575 845.626642,1084.56995 858.025087,1083.73796 C844.09425,1046.9915 851.338285,990.138502 896.19558,1021.33832 C921.967628,1000.26111 943.1425,1005.80774 955.540945,1019.11967 C967.93939,1032.43159 1032.85709,1147.24692 1032.85709,1147.24692 C1032.85709,1147.24692 1040.65836,1105.64716 1055.28574,1105.64716 C1069.91312,1105.64716 1100.00372,1227.11845 1121.31791,1264.97423 C1142.63209,1302.83001 1168.26483,1367.58697 1200.72368,1392.13082 C1233.18253,1416.67468 1471.39984,1797.31246 1473.90739,1952.47956 C1476.41494,2107.64665 1310.49867,2132.19051 1247.6706,2008.22323 Z" id="Path" fill="#793816"></path>
                </g>
                <g id="pinksign" transform="translate(1268.172753, 59.471884)">
                    <path d="M924.215604,100.037179 C924.215604,100.037179 753.16569,85.2657806 787.263876,377.627979 C794.111462,435.598748 814.374728,482.978704 876.003006,566.172333 C1025.25244,397.834137 924.215604,100.037179 924.215604,100.037179 Z" id="Path" fill="#3D506E"></path>
                    <path d="M601.226344,849.258499 C601.226344,849.258499 582.790647,836.259655 557.930388,818.205704 C568.125887,805.640154 584.047626,750.033986 605.974933,758.555451 C631.533514,768.3768 601.226344,849.258499 601.226344,849.258499 Z" id="Path" fill="#793816"></path>
                    <path d="M548.742153,815.954244 L507.966472,790.176058 C507.966472,790.176058 548.458989,704.530499 568.84683,717.34916 C589.23467,730.167821 548.742153,815.954244 548.742153,815.954244 Z" id="Path" fill="#793816"></path>
                    <path d="M749.45873,1408.7163 L746.823646,1408.7163 C740.30528,1409.8225 721.859692,1413.14108 694.954097,1417.70413 C543.783489,1443.00833 124.389066,1506.6145 36.4604736,1452.54925 C-71.3005933,1386.17759 85.9723151,1158.71637 170.433692,1127.18983 C254.895069,1095.6633 324.794139,1045.0549 334.224966,1010.34805 C343.655793,975.641206 335.750541,912.588127 374.583358,904.568218 C413.416175,896.548308 427.701104,877.60473 457.796537,890.740788 C463.344082,880.50849 470.555891,865.71314 478.599832,849.258499 C483.298119,857.132859 487.467912,865.308952 491.081809,873.733049 C502.176899,901.387909 540.177584,932.223077 579.842533,957.388999 C595.653037,1003.15779 534.49135,1054.18101 526.031344,1075.89007 C513.539501,1103.70466 495.186421,1128.51105 472.220155,1148.62235 C456.409651,1161.20531 408.284695,1192.87013 408.284695,1192.87013 L611.740918,1154.98297 L749.45873,1408.7163 Z" id="Path" fill="#793816"></path>
                    <path d="M1581.1699,2484.98894 C1581.1699,2484.98894 882.204035,2778.72408 722.85937,2576.84187 C695.766588,2542.57046 815.868614,1690.91895 815.868614,1690.91895 C806.092868,1638.4712 690.180447,1509.29434 700.095847,1427.2927 C727.18863,1422.85268 745.762547,1419.52266 752.326263,1418.27391 L762.93993,1424.10144 L847.430309,1528.71943 C847.430309,1528.71943 1115.42541,1438.39275 1133.02175,1384.41875 C1150.6181,1330.44474 1195.30722,1170.46524 1158.57835,1114.96498 C1135.11656,1079.44481 1054.39682,1034.07335 999.512991,1006.04571 C1051.4641,997.998176 1079.67411,991.338145 1081.90857,956.37298 C1084.00871,932.090106 1084.00871,907.67301 1081.90857,883.390136 L1103.55486,878.950115 C1155.78528,868.682566 1289.01473,844.678703 1349.90367,854.807501 C1426.4338,867.43381 1445.56633,856.472509 1434.5337,840.932435 C1446.14762,841.452486 1456.95711,846.974262 1464.14025,856.056257 C1465.25747,933.340371 1602.95584,990.783142 1614.96605,1055.99595 C1656.8621,1279.3845 1536.76008,1721.99909 1533.6877,2147.4086 C1532.15151,2359.83585 1581.1699,2484.98894 1581.1699,2484.98894 Z" id="Path" fill="#3D506E"></path>
                    <path d="M1345.01222,849.90148 C1284.22161,839.691881 1151.20729,863.887233 1099.06122,874.23669 C1100.62384,864.669792 1100.99851,854.945519 1100.17664,845.286182 C1098.78236,832.559147 1094.04181,821.929975 1082.19043,819.552397 C1071.47298,818.30184 1060.624,820.196544 1050.95855,825.006841 C1029.90492,833.258435 1009.13015,843.188319 985.148535,809.902228 C950.012677,760.392663 873.60613,614.940834 873.60613,562.214546 C873.60613,509.488258 905.535144,501.516379 889.640351,474.384019 C871.483151,442.333418 858.850091,407.438197 852.273645,371.169164 C844.047393,316.904443 855.062205,238.024798 864.54331,233.129784 C904.41972,327.393758 969.672026,447.251659 999.927904,450.468382 C1030.18378,453.685105 1015.96212,388.091925 1058.90595,389.630357 C1101.84978,391.16879 1122.62455,444.034936 1121.09084,493.5445 C1119.55713,543.054065 1421.55819,723.610133 1421.55819,723.610133 L1421.55819,722.0717 C1421.55819,722.0717 1418.35135,819.97197 1429.36616,835.496155 L1429.36616,835.496155 C1440.5204,851.439913 1421.41877,862.628515 1345.01222,849.90148 Z" id="Path" fill="#793816"></path>
                    <path d="M1623.23128,599.130909 C1623.19656,618.677581 1618.77555,637.967558 1610.2938,655.580355 C1569.39469,720.511121 1364.89911,758.746583 1312.73187,747.345464 C1309.91098,746.782452 1307.19099,745.798154 1304.66334,744.425665 C1294.92546,738.864143 1272.38921,722.457654 1245.67958,702.714251 L1244.56668,702.714251 C1181.13132,653.633822 1094.60326,584.1148 1094.60326,584.1148 C1113.39521,559.667274 1124.31083,530.08968 1125.9036,499.301593 C1127.57295,450.082126 1106.98428,397.664783 1063.99848,395.996327 C1021.01268,394.32787 1035.34128,459.536713 1005.15383,456.477876 C974.966393,453.419039 905.549187,334.124397 866.041199,240.412756 C866.041199,240.412756 879.117786,25.8770544 1151.50033,2.24058698 C1378.39304,-17.5028152 1475.77188,95.8131904 1540.04192,240.412756 C1609.32001,398.499012 1627.54377,526.55305 1623.23128,599.130909 Z" id="Path" fill="#3D506E"></path>
                    <path d="M795.278288,953.495892 C778.051445,941.168393 746.376283,916.651906 718.035348,894.905643 C689.694413,873.159381 668.021933,856.815056 662.464887,853.352275 C649.822608,846.980759 638.708515,869.142555 633.8461,869.142555 C628.983685,869.142555 445.601165,741.019671 424.345464,741.019671 C403.089763,741.019671 401.839427,762.3504 425.179021,783.81964 C437.8213,795.454583 476.025992,820.386603 474.081026,823.710873 C472.13606,827.035142 421.705867,786.728375 411.286406,802.518655 C389.336074,836.038372 539.654169,935.627944 579.248123,960.975498 L579.248123,960.975498 C590.640067,996.711395 549.101148,1046.29841 549.101148,1046.29841 C568.53736,1067.61171 592.187792,1084.68349 618.564224,1096.43948 C641.015943,1106.40579 664.861493,1112.8982 689.277635,1115.69254 L689.277635,1115.69254 C757.212523,1079.4026 855.989016,1030.36962 916.005114,1014.85637 C874.591984,996.778406 834.280218,976.289595 795.278288,953.495892 L795.278288,953.495892 Z" id="Path" fill="#57280F"></path>
                    <path d="M1134.25858,1378.62215 C1116.62209,1432.73603 848.015518,1523.66966 848.015518,1523.66966 L763.332361,1418.51021 L752.694477,1412.65253 L755.353948,1412.65253 L616.221622,1156.16947 C616.221622,1156.16947 647.85533,1137.89906 692.366477,1114.32884 L692.366477,1114.32884 C760.812862,1077.78803 860.333068,1028.41609 920.80104,1012.79558 C925.560094,1011.54037 930.179175,1010.56408 934.798256,1009.72727 C959.853273,1005.1248 981.968874,1001.91702 1000.86512,999.127646 L1000.86512,999.127646 C1055.87417,1027.0214 1136.63811,1072.76715 1160.2934,1108.61062 C1196.68617,1163.56132 1151.89508,1324.50827 1134.25858,1378.62215 Z" id="Path" fill="#3D506E"></path>
                    <path d="M1107.0123,849.258499 C1105.61165,836.229751 1100.84946,825.348599 1088.94398,822.914657 C1078.17761,821.634454 1067.27911,823.574075 1057.56954,828.498406 C1087.96353,805.447545 1139.22713,764.356878 1147.49093,741.019671 C1156.59512,787.264567 1126.62132,828.21206 1107.0123,849.258499 Z" id="Path" fill="#57280F"></path>
                    <path d="M1623.82725,595.381474 C1623.79213,614.332614 1619.31984,633.034879 1610.73971,650.111062 C1569.36621,713.063568 1362.49872,750.134102 1309.7264,739.080343 L1308.88204,739.080343 L1241.89637,695.80892 L1240.77056,695.80892 C1240.77056,695.80892 1341.67124,566.399057 1623.82725,595.381474 Z" id="Path" fill="#3D506E"></path>
                    <polygon id="Path" fill="#793816" points="882.695837 316.390421 943.485267 243.121061 1082.5515 216.477657 969.577534 278.692839"></polygon>
                    <polygon id="Path" fill="#793816" points="899.350475 391.324995 960.139906 318.055634 1099.20614 291.41223 986.232173 353.627413"></polygon>
                </g>
            </g>
        </g>
        <g id="blind-group" opacity="0.68" transform="translate(3480.000000, -28.000000)">
            <g id="blind">
                <path d="M356.587654,198.391836 C324.358137,217.878386 287.943011,229.346054 250.387413,231.83588 C246.922967,231.83588 242.902499,232.050265 238.454321,232.050265 C254.330154,228.432122 269.551532,222.371867 283.577662,214.08481 C301.28483,203.365565 300.899892,175.495529 304.963131,166.920133 C314.50105,163.575728 320.788378,138.492695 316.382972,127.430435 C315.584045,124.964536 314.100354,122.778102 312.105878,121.127519 C318.549287,119.596037 325.330236,120.512589 331.138946,123.700137 C346.83588,131.246486 356.587654,163.661482 356.587654,198.391836 Z" id="Path" fill="#3D506E" fill-rule="nonzero"></path>
                <path d="M293.145679,203.59127 C280.450111,212.390572 255.317191,217.626156 243.826626,218.770066 C233.936456,219.710725 223.961396,218.801278 214.390123,216.086278 C214.992625,221.717832 218.908885,236.632648 219.037992,242.968146 C249.378247,243.760083 273.478308,227.613364 293.145679,203.59127 Z" id="Path" fill="#57280F" fill-rule="nonzero"></path>
                <path d="M294.659914,203.59127 C275.145438,226.919094 249.268474,244.425664 219.164085,243.698007 C219.461684,252.507824 219.219253,261.327647 218.438164,270.107672 L218.438164,270.107672 C216.815516,271.520183 194.568159,290.696082 197.087534,318.903489 C199.649609,348.223782 208.873081,400.615079 208.873081,400.615079 C208.873081,400.615079 304.224996,371.59441 311.356106,353.531397 C318.060204,336.410058 299.357052,279.909639 306.829773,269.722442 C307.316442,269.046681 307.744993,268.33072 308.110811,267.582275 C296.197159,250.418132 287.229894,236.464241 294.659914,203.59127 Z" id="Path" fill="#793816" fill-rule="nonzero"></path>
                <g id="Group" transform="translate(0.000000, 264.887566)" fill-rule="nonzero">
                    <path d="M378.464868,1204.18106 L373.194261,1205.80874 L320.788144,1222.29967 L317.66006,1223.28485 L312.303752,1204.9949 C324.08763,1172.78403 338.01403,1124.98173 349.0266,1088.70167 L378.464868,1204.18106 Z" id="Path" fill="#3D506E"></path>
                    <path d="M483.362803,686.836812 C479.077757,691.420007 444.797386,705.555096 443.169068,705.298095 C443.169068,705.298095 421.743836,706.840104 424.82907,704.955426 C427.914303,703.070747 451.224955,676.899416 454.824394,673.772563 C456.795516,678.955429 466.651122,675.742909 466.993926,661.779155 C473.159005,669.647011 478.63549,678.030476 483.362803,686.836812 Z" id="Path" fill="#1E1006"></path>
                    <path d="M140.21629,222.135061 C140.21629,222.135061 135.202786,321.16635 126.075637,392.527131 L126.075637,392.527131 C113.477601,430.0922 95.1376026,492.286591 90.552603,502.309654 C83.8250802,516.915912 67.2848013,565.746218 67.2848013,565.746218 C67.2848013,565.746218 75.212137,594.830234 61.4571382,613.848354 C52.8870455,625.499094 56.7007368,659.380473 45.4739153,663.064163 L45.4739153,663.064163 C44.6211759,663.35884 43.7106293,663.446923 42.8171865,663.321164 C34.2470938,662.164657 50.5731205,618.260215 37.7179814,618.260215 C31.8046174,618.260215 28.1194775,646.830228 27.605272,655.311281 C26.6499547,660.523574 24.9165871,665.562802 22.4632163,670.260208 L21.2634033,672.873058 C15.5642917,684.30963 10.3365351,693.047684 5.23732995,691.591342 C-6.41799615,688.250321 4.80882532,642.247032 6.26574108,627.940609 C7.72265684,613.634186 11.1935444,598.214089 21.691908,585.792344 C32.1902716,573.3706 38.6178411,561.034522 41.3602708,535.034526 C44.1027005,509.034529 77.1404079,337.271784 77.1404079,337.271784 C77.1404079,337.271784 79.0258283,270.922534 85.1962951,207.057633 L140.21629,222.135061 Z" id="Path" fill="#793816"></path>
                    <path d="M378.122064,405.420045 C384.763886,447.825311 410.08851,498.111961 406.960426,499.396969 C404.946455,500.253641 404.175146,500.853311 400.961361,502.052652 C356.868234,520.214099 360.210571,484.919211 287.407633,499.268468 C273.538736,502.126509 259.858083,505.831421 246.44259,510.362371 C190.736987,528.737986 145.144094,516.144907 110.306667,492.500759 L110.306667,492.500759 L106.02162,488.688568 C106.02162,488.688568 124.361619,419.340966 126.761245,384.474414 C131.817599,312.72813 135.58844,222.520564 135.58844,222.520564 L83.0537719,206.714964 C85.281996,149.403605 89.8241451,90.1218991 99.0798453,71.4036149 C104.17905,61.0378832 114.634564,51.5716571 127.404002,43.2191047 C162.969887,20.0461259 216.061611,5.52553469 218.289835,4.92586426 C216.618667,6.38220673 194.336426,25.5288269 196.864603,53.7561708 C199.435631,83.0971884 226.088619,113.723214 226.088619,113.723214 C226.088619,113.723214 282.52268,75.5584744 289.635857,57.3113598 C296.36338,40.1779189 300.134221,10.1943973 307.633052,0 C324.173331,4.96869786 397.10482,28.7413471 426.585939,63.6507329 C445.611545,86.1812077 450.796451,142.978564 452.681871,213.054338 C435.541686,217.12353 403.57524,224.276741 384.549634,226.461255 C382.150008,226.76109 379.878933,226.975258 377.993513,227.060926 C377.607859,242.181187 366.63814,332.94559 378.122064,405.420045 Z" id="Path" fill="#3D506E"></path>
                    <path d="M496.774998,667.43319 C488.789847,655.610656 478.606862,645.431677 466.779674,637.449669 C466.779674,637.449669 467.679533,649.271743 467.293879,661.821988 C466.951075,675.785743 465.065655,690.563335 458.723786,690.863171 C455.510002,690.863171 454.43874,686.879646 452.681871,681.739613 C447.411264,667.947193 449.125283,642.204198 446.725657,637.449669 C443.469021,630.938961 441.840704,596.843414 445.140189,588.405194 C448.439675,579.966974 398.818838,337.785787 398.818838,337.785787 L378.122064,226.932425 C397.14767,224.705077 432.842106,217.637533 450.110843,213.525507 C451.867712,274.820392 455.038647,329.433235 455.038647,329.433235 C455.038647,329.433235 477.620841,572.685262 480.27757,585.663844 C482.934298,598.642425 500.67439,615.647365 504.616633,634.708318 C506.244951,643.53204 502.774063,655.910951 496.774998,667.43319 Z" id="Path" fill="#793816"></path>
                    <path d="M519.914248,732.154763 C511.62545,725.690375 502.938235,719.753347 493.904017,714.378818 C491.570195,704.795531 488.043218,695.542658 483.405653,686.836812 C478.733056,678.036746 473.314041,669.653475 467.208178,661.779155 C467.593832,649.228909 466.693973,637.406835 466.693973,637.406835 C478.521161,645.388844 488.704147,655.567823 496.689297,667.390357 C500.130503,672.626263 502.881367,678.284191 504.873736,684.223962 C510.529997,701.485904 516.271959,720.032854 519.914248,732.154763 Z" id="Path" fill="#1E1006"></path>
                    <path d="M401.518417,504.194332 C401.261315,503.466161 401.047062,502.73799 400.83281,502.095486 C349.712207,523.126784 362.267393,472.111964 246.314038,510.405204 C190.608436,528.78082 145.015542,516.187741 110.178115,492.543592 L110.178115,492.543592 C112.749143,511.476044 113.820405,532.978513 116.477134,557.222332 C138.33087,568.273401 183.966614,591.018044 218.246985,604.681963 C243.018036,614.434645 260.13079,637.364344 262.425813,663.878001 C269.281887,745.261846 253.641468,893.937279 255.998243,907.472697 C258.997775,924.86314 272.538522,1009.588 264.568336,1060.85983 C263.197121,1069.81205 261.354551,1081.16295 259.340579,1093.79887 C251.498944,1140.91583 240.186422,1206.15141 235.901376,1230.86639 L234.187357,1240.76096 L287.279081,1252.32603 L294.178006,1253.8252 C294.178006,1253.8252 301.93394,1233.65058 312.303752,1205.08057 C324.13048,1172.8697 339.213843,1130.03609 350.440665,1093.7132 C353.354496,1084.28981 355.968375,1075.25192 358.2823,1067.02787 C350.242239,1051.44163 344.758954,1034.66562 342.041974,1017.34089 C340.425384,1004.44348 339.809356,991.440378 340.199404,978.447976 C340.456507,963.242047 341.527768,947.522115 342.813282,932.915857 C344.655852,911.499056 346.884076,892.695104 347.441132,881.130032 C348.469544,861.212407 396.719166,703.798919 414.887762,704.52709 C417.287388,690.563335 416.173276,655.953785 418.572902,626.270098 C422.08664,581.93732 410.645566,532.935679 401.518417,504.194332 Z" id="Path" fill="#3D506E"></path>
                    <path d="M277.637727,1305.18269 C277.637727,1305.18269 258.226467,1295.07396 251.07044,1282.69505 C243.914412,1270.31614 226.17432,1266.76095 226.17432,1266.76095 L234.187357,1240.71812 L291.264175,1253.13987 C291.392726,1259.09374 277.637727,1305.18269 277.637727,1305.18269 Z" id="Path" fill="#793816"></path>
                    <path d="M294.349408,1335.63739 C293.706651,1340.86308 276.223662,1356.32602 268.63913,1357.05419 C261.054598,1357.78236 207.920023,1362.83672 200.763995,1360.95204 C193.607968,1359.06737 161.855774,1351.87132 162.498531,1348.10196 C163.141288,1344.33261 171.62568,1336.02289 185.809184,1327.58467 C199.992687,1319.14645 208.177126,1294.34579 209.419789,1282.00972 C210.662453,1269.67364 226.559975,1266.97512 226.559975,1266.97512 C226.559975,1266.97512 244.985674,1264.4051 252.270253,1276.82685 C259.554832,1289.24859 277.980531,1305.4397 277.980531,1305.4397 C277.980531,1305.4397 279.094643,1300.42816 281.322867,1294.04596 C282.908334,1299.31449 285.907867,1306.55337 287.750437,1312.89274 C289.250203,1318.37544 290.621418,1323.60114 291.478427,1327.499 C291.478427,1327.499 291.478427,1327.499 291.478427,1327.499 C291.478427,1327.499 291.478427,1328.27001 291.73553,1328.61267 C291.864081,1330.75435 294.435109,1334.82355 294.349408,1335.63739 Z" id="Path" fill="#3D506E"></path>
                    <path d="M274.766746,1363.90756 C266.882261,1373.67362 239.372263,1373.28812 222.232078,1372.81695 C201.235351,1372.21728 161.855774,1369.3046 159.241896,1361.46605 C157.786551,1356.6867 158.922742,1351.49473 162.241429,1347.75929 C161.598672,1351.65715 191.379744,1355.89768 205.091892,1357.18269 C224.998469,1358.11419 244.947858,1356.95129 264.611186,1353.71317 C276.652167,1350.62915 291.307025,1338.3359 291.949782,1333.1102 C291.665214,1330.70218 291.235934,1328.31346 290.664268,1325.95699 C290.664268,1325.95699 291.692679,1325.10032 291.906932,1325.05749 C295.334969,1328.91251 295.763473,1334.86638 295.763473,1341.41992 C295.720623,1350.58631 282.651231,1354.22717 274.766746,1363.90756 Z" id="Path" fill="#2C3A42"></path>
                    <path d="M389.520288,1259.13657 L390.077344,1261.06408 C383.992578,1263.20576 368.652112,1266.46112 362.310243,1262.82026 C353.183095,1257.59456 336.257161,1243.28814 327.77277,1240.67529 C326.001487,1239.9983 324.58982,1238.61821 323.873377,1236.8631 C323.970681,1231.8322 322.89996,1226.84725 320.745294,1222.29967 L373.151411,1205.80874 C373.151411,1205.80874 381.850055,1249.32768 389.520288,1259.13657 Z" id="Path" fill="#793816"></path>
                    <path d="M389.134634,1297.30131 C384.292531,1299.44299 375.293934,1304.15469 371.994448,1305.18269 C366.123935,1307.15304 327.987022,1319.96029 316.888752,1321.93063 C309.34707,1323.25847 296.791884,1325.14315 290.664268,1326.47099 C290.407165,1326.12833 288.735997,1318.11844 287.236231,1312.63574 C294.606511,1311.00806 309.861276,1307.79554 324.430433,1305.86803 C344.613002,1303.21235 365.224075,1288.73459 365.224075,1288.73459 L390.935279,1277.51219 C390.977203,1285.26507 389.520288,1291.81861 389.134634,1297.30131 Z" id="Path" fill="#2C3A42"></path>
                    <path d="M540.311069,755.970246 C540.311069,765.179471 526.598921,793.749483 511.858361,808.013073 C508.582388,811.553111 504.494016,814.243318 499.945932,815.851622 C481.691635,821.077321 481.006028,842.57979 481.006028,842.57979 C481.006028,842.57979 463.865842,795.034491 477.106635,777.472714 C487.347896,763.594627 462.408926,717.505671 451.396357,698.915888 C452.639021,698.915888 453.795983,699.215723 455.081497,699.258557 C461.648856,700.394406 468.091775,702.158698 474.321355,704.52709 C481.024924,707.360028 487.52505,710.651748 493.775466,714.378818 C502.809683,719.753347 511.496899,725.690375 519.785697,732.154763 L519.785697,732.154763 C531.612425,741.449655 540.311069,750.616046 540.311069,755.970246 Z" id="Path" fill="#57280F"></path>
                    <path d="M392.991175,1277.64069 L365.266925,1288.86309 C365.266925,1288.86309 344.655852,1303.16951 324.473284,1305.99653 C309.904126,1307.92404 294.477959,1311.09373 287.279081,1312.76424 C285.436512,1306.42487 282.436979,1299.18599 280.851512,1293.91746 C281.408568,1292.37545 281.708521,1290.9191 282.222727,1289.12009 C292.121184,1281.79555 308.575762,1270.70164 315.303285,1264.66211 C325.715947,1255.28155 317.231556,1245.38699 319.588331,1240.80379 C320.476575,1238.33747 322.650267,1236.55969 325.244592,1236.17776 C328.953711,1237.00884 332.560437,1238.24413 336.000059,1239.86145 C344.570151,1242.4743 352.925992,1257.72306 362.01029,1262.94876 C368.43786,1266.58962 384.978139,1261.79226 388.663278,1252.9257 C392.991175,1250.39852 392.991175,1271.94382 392.991175,1277.64069 Z" id="Path" fill="#3D506E"></path>
                    <path d="M511.858361,808.055906 C508.582388,811.595945 504.494016,814.286152 499.945932,815.894456 C481.691635,821.120155 481.006028,842.622623 481.006028,842.622623 C481.006028,842.622623 463.865842,795.077325 477.106635,777.515548 C487.347896,763.637461 462.408926,717.548505 451.396357,698.958721 L451.396357,698.958721 C449.62824,698.699259 447.881129,698.312755 446.168601,697.802214 L446.168601,697.802214 C437.941312,696.688541 429.028415,695.874702 419.944117,695.532033 C402.807022,694.663737 385.626793,695.75594 368.737813,698.787387 C361.11043,709.067452 348.855198,727.95707 346.241319,745.647348 C342.813282,768.349157 350.269263,813.324439 340.585058,829.686876 C345.390333,846.390168 347.71479,863.708497 347.483983,881.087198 C346.926927,892.652271 342.984684,931.202513 341.142114,952.44798 C353.997253,959.215689 383.649774,980.718157 429.45692,980.718157 C499.260325,980.718157 541.125228,958.487517 541.125228,958.487517 L534.86906,830.757716 C526.24895,824.217024 518.514163,816.586067 511.858361,808.055906 Z" id="Path" fill="#793816"></path>
                    <path d="M402.63253,894.793951 C379.150475,895.13662 358.453702,864.125092 361.410384,853.031189 C363.252953,846.134979 366.295336,867.380446 377.050803,866.737941 C387.806269,866.095437 393.034026,857.571551 398.904539,857.571551 C404.775053,857.571551 414.71636,868.365618 428.171406,866.737941 C441.626451,865.110265 444.197479,853.887861 448.739628,855.344203 C453.281778,856.800546 426.071733,894.451282 402.63253,894.793951 Z" id="Path" fill="#57280F"></path>
                    <path d="M394.619493,848.533661 C384.506783,848.533661 376.879401,829.943877 375.036831,822.833499 C370.494682,804.971887 388.449026,816.06579 396.804866,815.894456 C405.160707,815.723121 419.986967,805.657225 419.687014,820.863153 C419.644164,827.031192 404.732202,848.533661 394.619493,848.533661 Z" id="Path" fill="#1E1006"></path>
                    <path d="M346.112768,745.561681 C342.684731,768.26349 350.140712,813.238772 340.456507,829.601208 C339.232844,831.868371 337.329848,833.695726 335.014498,834.826908 C331.072255,819.835147 329.786741,813.410107 315.431836,805.48589 C301.076931,797.561674 282.822633,772.889519 284.793755,761.195946 C286.764876,749.502372 334.543143,706.583103 365.395477,699.387057 L368.609261,698.744553 C360.981879,708.981784 348.726646,727.871403 346.112768,745.561681 Z" id="Path" fill="#57280F"></path>
                    <path d="M806.626701,1065.40019 C803.712869,1051.73627 819.48184,981.360661 811.554504,936.428212 C803.627168,891.495764 806.326747,832.813728 717.069232,816.494126 C653.264891,804.843386 603.772606,821.162989 574.077234,830.714882 C588.43214,857.44305 552.052096,986.543527 541.767985,984.059178 C534.767781,988.573617 527.041609,991.848341 518.928688,993.739572 C493.21841,1001.19262 385.792297,1001.06412 340.285105,978.276642 C339.882918,991.269146 340.49899,1004.27319 342.127675,1017.16955 C344.866761,1034.50261 350.348805,1051.28928 358.368001,1066.89936 C365.652579,1082.14813 372.722906,1095.94055 374.608326,1113.63082 C376.75085,1134.01962 397.790427,1262.30626 389.220334,1289.93393 C382.492812,1311.6934 358.368001,1319.91745 367.795103,1334.73788 C377.222205,1349.55831 395.047997,1341.16292 406.789025,1347.58796 C418.530052,1354.013 432.156499,1336.49406 435.455985,1328.013 C438.75547,1319.53195 426.414537,1322.35897 426.885892,1293.74612 C427.357247,1265.13328 430.099677,1160.49079 431.170938,1146.8697 C432.2422,1133.24861 426.328836,1108.79063 426.328836,1108.79063 C436.897169,1116.00437 448.290581,1121.92892 460.266403,1126.43807 C473.202898,1129.38545 486.420938,1130.92216 499.68883,1131.02127 L507.10196,1205.85157 C507.10196,1205.85157 485.676728,1298.45782 482.12014,1314.34908 C474.321355,1350.15798 468.450842,1352.89933 459.323693,1360.60938 C450.196544,1368.31942 448.225423,1389.26506 459.923599,1389.26506 C471.621776,1389.26506 480.791775,1381.46934 493.175559,1384.72469 C505.559343,1387.98005 516.014856,1397.1036 522.528127,1380.18433 C529.041397,1363.26506 519.914248,1343.0476 525.784762,1330.02618 C531.655276,1317.00477 567.692515,1229.02455 569.149431,1205.80874 C573.434478,1140.95866 575.234197,1118.81369 575.234197,1118.81369 L575.53415,1118.17119 L575.234197,1118.81369 C575.234197,1118.81369 589.246299,1107.12012 607.372045,1090.75768 C638.952836,1062.27334 682.960263,1019.48257 686.645402,999.650609 C691.401804,974.293117 717.112082,1008.21733 730.524277,1041.75604 C733.560945,1049.19018 735.899226,1056.89057 737.508903,1064.75768 C744.66493,1102.53692 761.590863,1161.86146 762.276471,1191.20248 C762.962078,1220.5435 755.7632,1239.43311 757.734322,1253.73954 C759.705443,1268.04596 738.19451,1315.63409 746.636051,1322.2733 C755.077593,1328.91251 790.986281,1336.62256 798.785066,1327.499 C806.58385,1318.37544 796.214038,1301.45617 794.885674,1288.43476 C793.557309,1275.41334 792.228945,1196.55668 799.427823,1161.34746 C806.626701,1126.13824 809.36913,1079.10694 806.626701,1065.40019 Z" id="Path" fill="#793816"></path>
                    <path d="M597.259335,966.84007 C595.930971,976.134962 593.916999,986.372193 591.688775,996.523756 C580.590505,993.696739 557.751208,987.957036 541.639434,984.102012 C549.952423,978.062474 553.037657,969.45292 555.094479,953.690154 C568.740732,959.289144 582.849024,963.689085 597.259335,966.84007 Z" id="Path" fill="#1E1006"></path>
                    <path d="M598.287746,958.530351 C597.987793,961.186034 597.68784,963.970219 597.259335,966.84007 C582.833121,963.677593 568.710361,959.26328 555.051629,953.64732 C555.394432,951.334306 555.651535,948.849957 555.951488,946.194274 C558.222563,924.177802 547.724199,867.55178 540.996677,834.569906 C543.15508,835.63143 545.469834,836.340045 547.852751,836.668753 C564.264478,863.953757 601.37298,929.532002 598.287746,958.530351 Z" id="Path" fill="#793816"></path>
                    <path d="M555.951488,946.194274 C555.651535,948.849957 555.394432,951.37714 555.051629,953.64732 C553.037657,969.410086 549.909573,978.01964 541.596583,984.059178 C534.596379,988.573617 526.870208,991.848341 518.757286,993.739572 C492.832755,1001.19262 385.620895,1001.06412 340.113703,978.276642 C340.005344,967.965988 340.448765,957.65692 341.442068,947.393615 C354.297207,954.161324 377.69356,966.84007 423.500705,966.84007 C462.666029,966.84007 493.604064,966.326067 511.301305,962.171207 C523.642239,959.301356 530.369762,944.395262 530.841117,931.75935 L534.697658,830.757716 C536.674725,832.198108 538.767198,833.473154 540.953826,834.569906 C547.724199,867.55178 558.094012,924.177802 555.951488,946.194274 Z" id="Path" fill="#1E1006"></path>
                    <path d="M693.458626,1075.16625 C677.17545,1103.86476 675.847086,1134.44796 685.659842,1152.26673 C695.472598,1170.08551 705.84241,1177.66706 705.84241,1194.62917 C705.84241,1211.59127 681.76045,1256.18105 674.561572,1273.14316 C667.362694,1290.10527 674.561572,1315.97676 655.664517,1316.7906 C636.767463,1317.60444 611.614241,1322.61597 605.743727,1312.84991 C599.873214,1303.08385 611.999895,1290.06243 626.31195,1289.7626 C640.624004,1289.46276 665.391572,1219.38699 654.97891,1194.62917 C645.808911,1172.91253 603.986858,1138.26015 607.8434,1090.97185 C639.424191,1062.4875 683.431618,1019.69674 687.116758,999.864777 C691.873159,974.507285 717.583437,1008.4315 730.995632,1041.97021 C715.551064,1049.19847 702.518411,1060.72396 693.458626,1075.16625 L693.458626,1075.16625 Z" id="Path" fill="#57280F"></path>
                    <path d="M547.852751,836.668753 L548.067003,836.668753 C553.29476,837.22559 562.036254,834.527073 573.777281,830.714882 C588.132187,857.44305 610.842932,922.935628 614.442371,958.487517 C619.370175,1007.23216 606.557886,1066.25686 597.516438,1099.5814 C584.189944,1111.23214 576.091206,1117.44302 575.362748,1118.77086 C575.876954,1117.01468 589.332,1026.50728 591.517373,996.480923 C597.259335,920.151443 564.264478,863.953757 547.852751,836.668753 Z" id="Path" fill="#1E1006"></path>
                </g>
                <path d="M166.96672,845.859013 C146.695734,836.32453 127.841999,826.918314 115.945679,820.93254 C116.632831,846.885145 131.750177,909.094439 139.824213,941.032819 C164.647582,1039.8836 204.24472,1141.68451 214.809683,1189.78448 C223.399083,1230.27397 249.983279,1324.12235 258.14321,1352.89683 C254.965132,1206.67292 261.278341,1056.85755 224.644547,910.975683 C214.337266,883.612144 184.660886,870.101397 166.96672,845.859013 Z" id="Path" fill="#3D506E" fill-rule="nonzero"></path>
                <path d="M259.715455,1169.71163 C257.137421,1155.17482 269.855721,986.436278 259.715455,910.493215 C257.45602,892.863181 245.517512,877.969836 228.779049,871.899902 C210.818746,865.424802 187.788311,855.176133 166.261728,845.013228 C184.007195,869.327015 213.525682,882.877555 223.966719,910.278808 C245.192531,994.969688 242.227792,1082.44786 244.848793,1168.25366 C246.739351,1230.73195 256.149175,1291.70938 257.481159,1353.50156 L258.55534,1357.27513 C260.617767,1344.6251 262.465358,1333.26152 263.840309,1324.29929 C271.488476,1273.14171 262.723161,1187.07862 259.715455,1169.71163 Z" id="Path" fill="#3D506E" fill-rule="nonzero"></path>
                <path d="M754.740741,1110.46705 C754.740741,1110.46705 849.168789,1088.42281 867.242573,1169.03809 C883.393615,1241.15182 864.636188,1282.80519 886,1328.81614 C873.181713,1328.81614 846.605131,1318.13579 830.026813,1286.09474 C798.707465,1225.60123 870.148052,1150.41156 796.143808,1153.65839 L754.740741,1110.46705 Z" id="Path" fill="#793816" fill-rule="nonzero"></path>
                <path d="M406.636227,762.608405 C404.613821,763.464231 403.839282,764.063308 400.612037,765.261464 C356.334236,783.404961 359.690571,748.144957 286.582716,762.480032 C310.765538,735.350369 347.77128,683.872476 339.982862,630.383393 C328.49387,552.20375 377.763143,490.37037 377.763143,490.37037 C377.332843,505.646852 366.317181,596.278754 377.763143,668.724368 C384.346722,711.087721 409.777413,761.324667 406.636227,762.608405 Z" id="Path" fill="#3D506E" fill-rule="nonzero"></path>
                <path d="M376.276543,490.37037 C376.276543,490.37037 303.439996,530.70735 229.703704,515.662747 C285.40224,545.79556 357.853181,545.09784 357.853181,545.09784 L376.276543,490.37037 Z" id="Path" fill="#3D506E" fill-rule="nonzero"></path>
                <path d="M382.062335,180.381094 C375.060429,187.866579 366.913035,194.179957 357.928254,199.082481 C357.928254,164.3022 348.086341,131.757488 332.2537,124.405908 C326.442276,121.209832 319.658158,120.290828 313.211738,121.826407 C308.932646,118.645021 302.64238,121.482473 293.527913,128.490119 C255.4012,117.441254 233.278292,71.9990329 230.4113,58.628616 C230.223789,57.8395853 230.123338,57.032207 230.111763,56.2210811 C210.213984,42.8936559 168.150505,40.3141543 147.910398,118.086129 C137.573685,155.84871 145.169541,196.29087 168.492832,227.671958 C145.984806,224.877498 127.028427,221.223204 122.06468,217.353951 C110.639503,208.45467 104.94831,194.353395 113.506495,188.119599 C122.06468,181.885803 103.151091,173.287464 113.848822,158.45533 C124.546553,143.623195 103.536209,145.127905 116.801396,133.649122 C130.066582,122.17034 112.522303,117.312279 121.593979,109.186848 C130.665655,101.061418 115.688832,93.9677887 130.451701,85.4554332 C145.21457,76.9430777 132.676829,66.9690047 144.829451,60.3052921 C156.982074,53.6415795 149.622035,45.8600828 161.43233,45.4731576 C173.242625,45.0862323 164.898395,25.4820198 180.345918,26.5998038 C195.793442,27.7175879 186.550602,8.45730885 199.815789,9.40312613 C213.080975,10.3489434 209.786074,-3.92429908 220.826133,1.23470423 C231.866191,6.39370753 237.429011,-1.00086387 244.746259,0.116920176 C252.063507,1.23470423 254.716545,8.71525902 263.531475,3.08334708 C272.346406,-2.54856487 270.934305,11.9826278 285.312056,8.62927563 C299.689806,5.27592348 295.624668,17.2276145 303.369826,16.7547058 C311.114983,16.2817972 311.243356,34.5962589 319.887122,34.7682257 C328.530889,34.9401925 328.10298,43.8394732 337.003492,49.7293353 C345.904004,55.6191974 343.978413,65.6362622 345.861213,77.1580362 C347.744014,88.6798103 360.96641,80.8983136 359.511518,93.8388136 C358.056627,106.779314 357.799881,105.661529 367.47063,113.099093 C377.141379,120.536656 359.5971,128.318152 367.47063,133.477156 C375.34416,138.636159 377.954407,137.475383 377.954407,147.707406 C377.954407,157.93943 375.34416,161.679707 381.80559,163.872283 C388.267019,166.06486 389.636329,169.590179 382.062335,180.381094 Z" id="Path" fill="#3D506E" fill-rule="nonzero"></path>
                <path d="M207.931496,229.861111 C194.592792,228.962378 180.436555,227.635676 167.442075,226.052193 C143.989522,194.813342 136.35157,154.554487 146.74557,116.963067 C167.140879,39.5007995 209.394451,42.0686094 229.402507,55.3784244 C229.414146,56.1858738 229.515154,56.9895926 229.703704,57.775047 C157.244421,69.5869728 167.226935,129.459742 170.92735,153.468765 C174.756849,178.504912 187.49316,220.189027 207.931496,229.861111 Z" id="Path" fill="#3D506E" fill-rule="nonzero"></path>
                <path d="M315.783063,128.310554 C314.988437,125.849232 313.51273,123.666855 311.528989,122.019335 C307.274915,118.852327 301.021425,121.676956 291.960246,128.652933 C254.056443,117.653999 232.062878,72.4171372 229.212648,59.1071429 C157.531493,70.9620253 167.400946,130.835601 171.05945,154.844948 C174.845576,179.881433 187.480177,221.566109 207.64449,231.238324 C215.769773,235.132888 226.830366,234.876104 238.273827,232.522246 C254.064215,228.910818 269.203672,222.861809 283.154312,214.590132 C300.766181,203.890779 300.383314,176.072463 304.424685,167.512981 C313.911271,164.260378 320.16476,139.352286 315.783063,128.310554 Z" id="Path" fill="#793816" fill-rule="nonzero"></path>
                <path d="M183.762963,1181.48611 C179.929893,1181.79259 176.330548,1182.27421 172.824691,1182.7996" id="Path" stroke="#2EAFFF" stroke-width="0.52"></path>
                <path d="M126.883951,1368.2209 C122.016064,1363.58629 117.618056,1358.45177 113.758025,1352.89683" id="Path" stroke="#2EAFFF" stroke-width="0.52"></path>
                <path d="M302.290074,1324.43783 C302.290074,1329.51918 302.027556,1334.64054 301.502519,1339.7619" id="Path" stroke="#2EAFFF" stroke-width="0.52"></path>
                <path d="M255.955556,1245.62831 C253.469575,1246.36005 251.200555,1247.87376 249.392593,1250.00661" id="Path" stroke="#2EAFFF" stroke-width="0.52"></path>
                <ellipse id="Oval" stroke="#1E1006" stroke-width="0.56" cx="185.950617" cy="142.294974" rx="17.5012346" ry="24.0806878"></ellipse>
                <ellipse id="Oval" stroke="#1E1006" stroke-width="0.58" cx="238.454321" cy="142.294974" rx="19.6888889" ry="24.0806878"></ellipse>
                <line x1="203.451852" y1="133.53836" x2="220.953086" y2="133.53836" id="Path" stroke="#1E1006" stroke-width="0.58"></line>
                <line x1="255.955556" y1="135.727513" x2="295.333333" y2="126.970899" id="Path" stroke="#1E1006" stroke-width="0.58"></line>
            </g>
        </g>
        <g id="SVG-2" opacity="0.68" transform="translate(4940.000000, 0.000000)" fill-rule="nonzero">
            <path d="M1726,1369.75318 C1711.41881,1411.10507 1679.41433,1517.25198 1658.96359,1579 C1643.70277,1517.62508 1597.17889,1363.16175 1618.49461,1312.60672 C1639.81033,1262.05169 1678.85827,1368.57169 1720.87187,1369.62881 L1726,1369.75318 Z" id="Path" stroke="#5461C8" stroke-width="10" fill="#3D506E"></path>
            <path d="M1912.39526,1541 C1865.89065,1632.88397 1811.70751,1739.53612 1787,1791.62636 C1790.52964,1800.0918 1794.6166,1809.36052 1799.01318,1819 C1830.40843,1749.8553 1889.60738,1699.24806 1928,1634.73772 C1920.69302,1600.13447 1915.73913,1567.63214 1912.39526,1541 Z" id="Path" fill="#005273"></path>
            <path d="M636.911094,374.863902 C619.579886,464.325473 565.101502,493.607197 511.430665,494.974921 C457.759828,496.342645 361.47534,441.695861 330.229471,348.566303 C302.524386,266.067689 460.679422,240.329613 514.412378,239.024058 C568.145334,237.718504 653.434754,289.62984 636.911094,374.863902 Z" id="Path" fill="#1E1006"></path>
            <path d="M375.910959,1312.02522 C364.745385,1308.43732 354.753702,1301.86217 347,1293 C348.294521,1299.21739 385.89726,1463.35652 433.30137,1579 C439.465753,1541.69565 446,1504.3913 446,1469.07652 C440.575342,1414.92304 400.075342,1365.61913 375.910959,1312.02522 Z" id="Path" fill="#3D506E"></path>
            <path d="M471,1461.13551 L388.821012,1316.39544 C383.902724,1315.09538 379.29572,1313.6096 375,1312 C399.466926,1365.4263 440.36965,1414.45715 445.785992,1468.56443 C445.785992,1503.78988 439.560311,1541.12019 432.961089,1578.01714 C439.18677,1592.56544 445.412451,1606.37084 451.638132,1619 C461.723735,1533.07219 471,1461.13551 471,1461.13551 Z" id="Path" fill="#3D506E"></path>
            <path d="M1254,1282.0549 C1251.07948,1275.8614 1242.00723,1260.06796 1237.96821,1253.93639 L1237.4711,1253.93639 C1235.0707,1250.67921 1232.15329,1247.83413 1228.83382,1245.51322 C1219.14311,1241.2073 1208.92722,1238.18798 1198.44798,1236.53264 C1178.31503,1232.25912 1154.32948,1228.29528 1143.82803,1225.38433 C1126.05636,1220.5534 905.774566,908.958152 862.028902,853.774021 C856.560694,846.89923 850.657514,838.414128 844.567919,829 C816.421953,855.062692 794.671318,887.232037 781,923.017409 C798.263437,943.257085 813.967138,964.768547 827.976879,987.367928 C857.119942,1038.34048 1015.63584,1175.03113 1030.85983,1185.56009 C1046.08382,1196.08905 1111.64017,1270.28724 1113.4422,1291.53097 C1114.60879,1311.48122 1122.51503,1330.45075 1135.87428,1345.35253 C1148.30202,1358.35889 1190.68064,1382.51356 1193.41474,1384 L1193.41474,1384 C1209.13584,1355.50988 1175.82948,1351.91764 1171.66618,1342.81319 C1167.50289,1333.70874 1190.3078,1340.95514 1202.73555,1342.25578 C1212.18064,1343.24674 1221.37717,1351.4841 1230.26301,1353.28021 C1232.56861,1354.00292 1235.04121,1354.00292 1237.34682,1353.28021 C1244.61705,1350.67894 1251.94942,1330.9836 1253.1922,1318.1011 C1245.61127,1311.9076 1249.52601,1297.16706 1254,1282.0549 Z" id="Path" fill="#793816"></path>
            <path d="M846,829.230722 L841.940774,823 C815.678815,848.359038 788.740319,874.27884 765,902.130167 C771.150342,909.170882 777.300683,916.523134 783.082005,924 C796.588593,887.932454 818.1184,855.503509 846,829.230722 Z" id="Path" fill="#57280F"></path>
            <path d="M731.955079,1406.95403 C733.632548,1465.27402 687.968125,1571.86311 655.474937,1645.32148 L655.474937,1645.32148 C642.055188,1675.78437 630.62355,1700.53934 626.212429,1713.56828 C615.339948,1744.58955 591.35836,1807.93498 578.870538,1859.55438 C573.341104,1883.00646 570.048296,1904.10093 571.601507,1918.43275 C576.447528,1964.53036 591.047717,2011.49657 597.074179,2046.9849 C602.230841,2077.26167 568.992112,2304.58554 559.486456,2367.8069 L559.486456,2367.8069 C557.933245,2378.10596 557.063446,2384 557.063446,2384 L460.88858,2373.6389 L456.228945,2373.14255 C456.228945,2373.14255 469.648694,2239.627 465.920986,2177.83263 C462.193278,2116.03825 468.343996,2028.93052 456.228945,2008.02219 C444.113894,1987.11385 417.398654,1953.42475 421.064233,1897.71054 C423.114473,1866.19293 439.01936,1731.12632 452.563366,1619.44974 L452.563366,1619.44974 C462.93882,1533.27264 472.009576,1461.24125 472.009576,1461.24125 L390,1316.18578 C478.408808,1339.94808 659.01626,1316.68212 714.310595,1299 C725.239636,1333.97864 731.179501,1370.32044 731.955079,1406.95403 L731.955079,1406.95403 Z" id="Path" fill="#3D506E"></path>
            <g id="Group" transform="translate(0.000000, 152.000000)">
                <path d="M220.334724,508.319811 C163.404056,510.055513 112.060912,519.66386 110.570906,511.791214 C108.273812,498.587484 94.4912512,332.394061 96.7883447,279.889089 C99.2291114,243.268367 104.858588,206.929371 113.613002,171.283764 C113.613002,171.283764 135.404349,110.162273 133.107255,87.1022384 C130.867779,69.6874004 127.676054,52.4078943 123.54638,35.3411386 C122.801376,31.3118314 105.542133,0.379150188 99.6441906,0.00721414157 C93.7462479,-0.364721905 94.4912512,13.7688479 94.4912512,13.7688479 C94.4912512,13.7688479 118.765942,47.9249748 116.468848,58.8350988 C114.171755,69.7452229 101.196281,66.6457558 101.196281,66.6457558 C101.196281,66.6457558 112.060912,119.8946 101.196281,123.366003 C95.9681477,125.784966 89.7655426,124.414343 86.0478805,120.018578 C86.0478805,120.018578 82.3849477,132.788383 75.5557508,133.594244 C68.7265539,134.400106 67.1744637,130.370798 67.1744637,130.370798 C64.4831575,133.68961 59.7840934,134.580815 56.0614979,132.478436 C48.611465,129.069022 38.1193352,101.917691 38.1193352,101.917691 C27.9227152,108.959242 16.864593,114.667402 5.21502306,118.90277 C13.3733339,140.307705 23.2131803,161.035354 34.6426532,180.892111 C45.9418698,198.86902 17.6317446,300.779497 15.520902,344.110046 C13.4100593,387.440596 -9.31254118,560.638815 5.83585914,610.106309 C13.1617249,634.220163 88.7174757,629.75693 162.78322,625.293698 C191.155429,592.191389 200.46797,547.497075 220.334724,510.861374 C220.272641,509.993523 220.334724,509.125672 220.334724,508.319811 Z" id="Path" fill="#793816"></path>
                <path d="M220.272641,510.551427 C200.405886,547.125139 191.155429,591.881443 162.721136,624.983751 C178.242038,624.053911 193.76294,623.062081 208.538839,622.380199 C211.208434,586.364391 219.900139,546.00933 220.272641,510.551427 Z" id="Path" fill="#57280F"></path>
                <path d="M848,667.756396 C821.490299,692.924069 785.419723,728.443961 761.082949,756.153197 C729.967932,737.382942 699.953258,716.851625 671.185885,694.65977 C671.185885,694.65977 637.164068,829.17664 646.84911,904.307722 C656.534153,979.438803 733.269493,1118.72885 730.848232,1138.13152 C730.848232,1140.61109 724.639871,1143.71056 714.396076,1146.934 C682.267539,1155.72967 649.486585,1161.94838 616.366059,1165.53081 C541.306977,1175.01517 446.939893,1179.10647 390.381726,1163.91908 C370.763306,1158.64999 355.614906,1151.0253 347.481953,1140.5491 C341.832345,996.67184 348.040706,877.652305 339.535251,833.143958 C338.942357,829.818235 338.091315,826.543589 336.989824,823.349642 C333.806059,815.103843 329.813272,807.192687 325.069771,799.731703 C309.0522,772.890319 286.702101,742.825488 291.730873,695.527621 C293.22088,680.836147 307.996779,628.82709 307.996779,628.82709 C288.688777,626.781442 243.119408,629.81892 203.385899,628.82709 C206.117578,591.633485 216.609708,536.338993 216.547624,500.509154 C238.338971,490.838817 267.766601,487.367414 333.947727,462.261731 C374.053737,459.596189 428.190644,456.062796 440.8557,451.9715 C434.15067,469.638462 423.65854,482.966171 407.578886,484.88784 C357.477414,489.908977 476.181272,535.471142 523.675232,506.088195 C571.169192,476.705247 552.730361,452.033489 552.730361,452.033489 C552.730361,452.033489 687.700124,475.46546 709.739805,490.156934 C730.041145,503.608621 806.155648,601.303823 848,667.756396 Z" id="Path" fill="#3D506E"></path>
                <path d="M101.134197,66.6457558 C101.134197,66.6457558 112.060912,119.8946 101.134197,123.366003 C95.9060641,125.784966 89.703459,124.414343 85.9857969,120.018578 C85.9857969,120.018578 82.322864,132.788383 75.4936672,133.594244 C68.6644703,134.400106 67.1123801,130.370798 67.1123801,130.370798 C64.4210739,133.68961 59.7220098,134.580815 55.9994143,132.478436 C48.5493814,129.069022 38.0572516,101.917691 38.0572516,101.917691 C27.8606316,108.959242 16.8025094,114.667402 5.15293945,118.90277 C2.08528857,112.167273 0.336217062,104.908075 0,97.5164477 C1.92459184,86.4203556 70.1544769,35.8370533 70.1544769,35.8370533 C70.1544769,35.8370533 66.491544,19.2239099 74.0036606,11.971157 C81.5157771,4.71840406 94.4291676,13.8928265 94.4291676,13.8928265 C94.4291676,13.8928265 118.703858,48.0489535 116.406765,58.9590775 C114.109671,69.8692015 101.134197,66.6457558 101.134197,66.6457558 Z" id="Path" fill="#57280F"></path>
            </g>
            <path d="M1402.69601,1127.32656 C1403.66403,1128.48573 1404.12348,1129.98212 1403.97145,1131.48056 C1403.81942,1132.97899 1403.06861,1134.35424 1401.8872,1135.29826 C1385.33768,1148.46084 1328.34759,1194.37535 1325.17456,1203.70657 C1317.75221,1224.50131 1307.53962,1244.20656 1294.81303,1262.28929 C1279.19675,1284.16512 1272.35296,1323.28206 1253.43922,1319.69789 C1251.69717,1319.69789 1252.87927,1320.37764 1251.69717,1319.69789 C1240.12494,1309.9341 1260.03414,1271.80589 1262.95831,1261.73313 C1266.25577,1250.48623 1246.90651,1254.00861 1238.07181,1255.92429 C1235.66841,1252.67442 1232.74737,1249.83572 1229.42375,1247.52002 C1219.72121,1243.22308 1209.49248,1240.2105 1199,1238.55958 C1215.17623,1223.66672 1248.773,1193.94278 1263.51825,1187.14521 C1280.44107,1179.48249 1322.31261,1086.54113 1335.00473,1057.37336 C1335.79503,1055.57553 1337.47147,1054.31671 1339.42842,1054.05166 C1341.38537,1053.7866 1343.33994,1054.55363 1344.58603,1056.07564 L1402.69601,1127.32656 Z" id="Path" fill="#101A19"></path>
            <path d="M1231.33177,1384.45571 C1225.83035,1394.68037 1193.38446,1384.45571 1193.38446,1384.45571 C1209.20105,1356.12231 1175.69239,1352.54984 1171.5038,1343.49547 C1167.31522,1334.44111 1190.25865,1341.64764 1202.76189,1342.94113 C1212.26434,1343.92663 1221.51674,1352.11868 1230.45655,1353.90492 C1232.51958,1364.43755 1234.5201,1378.41946 1231.33177,1384.45571 Z" id="Path" fill="#101A19"></path>
            <path d="M1450.51387,855.539587 C1421.31749,895.140363 1344,1054.7228 1344,1054.7228 L1400.02716,1123 C1400.02716,1123 1496.7674,1026.72915 1525.21675,991.162934 C1539.46343,971.710076 1552.41883,951.348981 1564,930.210016 C1554.10187,873.291659 1514.88285,823.573444 1483.07187,771 C1472.23995,808.924881 1460.97227,841.325516 1450.51387,855.539587 Z" id="Path" fill="#793816"></path>
            <path d="M1486.5,758 L1483,770.44123 C1514.6875,823.067631 1554.0625,872.894756 1564.25,930 C1574.6875,911.835805 1584.875,893.17396 1593,877.933454 C1559.0625,836.130922 1528.25,795.074864 1486.5,758 Z" id="Path" fill="#57280F"></path>
            <path d="M2011.85843,812.502308 C2011.85843,812.502308 2017.68289,967.550144 2023.25949,1028.88707 C2028.8361,1090.22399 2049.84131,1277.83187 2040.91875,1298.05011 C2039.74146,1300.77895 2019.47979,1308.03519 2011.73451,1311.50826 C1962.78431,1333.89717 1798.8321,1369 1727.14174,1369 L1727.14174,1369 L1721.99887,1369 C1684.82153,1368.5879 1649.79335,1351.4903 1626.57695,1322.42363 C1607.98827,1299.53857 1607.05883,1279.8785 1607.98827,1254.20258 C1610.4048,1199.19161 1638.53567,1145.48304 1638.53567,1060.02067 C1638.53567,1008.85489 1609.59929,843.946009 1609.59929,843.946009 C1609.59929,843.946009 1602.41166,857.900314 1591.94004,877.498361 C1556.8589,834.745635 1518.42343,794.864659 1477,758.235566 C1495.58869,692.991436 1523.03798,616.459825 1535.24455,590.783903 C1555.38229,548.796949 1585.31007,505.941727 1635.31364,489.754733 C1666.53867,479.822954 1698.39769,472.011472 1730.67359,466.37352 C1730.58885,467.633149 1730.58885,468.897057 1730.67359,470.156687 L1730.67359,470.156687 C1731.23125,482.002342 1737.86121,516.919114 1793.56531,515.554693 C1842.51551,514.37633 1877.89598,471.645146 1892.70496,455.272095 C1896.56204,451.08555 1900.14277,446.652146 1903.42444,442 C1903.42444,442 2060.80864,484.793203 2113.35265,522.624875 C2165.89667,560.456546 2189.0086,801.152807 2190,808.905198 C2145.01538,830.549876 2079.52125,839.108517 2031.74833,861.497424 C2022.80606,846.204525 2016.10753,829.703928 2011.85843,812.502308 L2011.85843,812.502308 Z" id="Path" fill="#3D506E"></path>
            <path d="M2055.22787,889.461088 C2069.48185,922.820221 2085.16746,966.286303 2087.59499,972.734909 C2093.81944,990.468574 2079.87668,1033.81065 2079.87668,1053.34248 C2079.87668,1072.87431 2079.87668,1219.51809 2082.30421,1234.08946 C2084.73175,1248.66082 2071.7849,1306.82229 2063.63087,1324.67996 C2055.47685,1342.53764 2029.58315,1374.71866 2021.49137,1389.22803 C2013.39958,1403.73739 2014.20876,1410.248 2009.04247,1434.49228 C2003.87618,1458.73656 1991.98749,1501.58258 1999.33233,1502.38866 C2006.67718,1503.19473 2021.98932,1496.18807 2021.98932,1496.18807 C2021.98932,1496.18807 2017.13425,1527.68703 2013.15061,1544.67663 C2046.32691,1561.66622 2123.44781,1508.34121 2134.83855,1501.27255 C2146.22929,1494.20389 2148.59458,1390.65416 2146.1048,1347.80814 C2143.61502,1304.96211 2160.73225,1278.29961 2171.31381,1215.23969 C2181.89537,1152.17976 2199.32382,1067.78984 2201.75136,1024.13774 C2203.86767,986.934242 2191.97897,872.719515 2184.8831,814 C2141.93442,840.166458 2096.74493,862.240531 2055.22787,889.461088 Z" id="Path" fill="#793816"></path>
            <path d="M2184.50515,811 C2139.65979,832.593194 2088.69072,837.171694 2041,859.507347 C2046.58828,869.709617 2051.5862,880.224479 2055.96907,891 C2097.2268,863.776489 2142.13402,841.502707 2185,815.20727 L2184.50515,811 Z" id="Path" fill="#57280F"></path>
            <path d="M1878,316.171967 C1874.96863,307.253556 1872.24658,298.888703 1870.08131,292 C1858.38886,302.886611 1826.21918,315.987448 1826.21918,315.987448 C1826.21918,315.987448 1815.70217,346.740586 1810.07247,357.750209 C1805.06142,367.65272 1761.63235,388.503347 1738,398.159833 C1740.84555,411.579483 1741.57603,425.357296 1740.16527,439 C1807.0411,424.361506 1852.75917,376.448117 1878,316.171967 Z" id="Path" fill="#57280F"></path>
            <path d="M1895.39493,359.468655 C1889.8564,345.248195 1884.44233,329.785773 1879.71279,316 C1854.32267,376.856116 1808.08526,425.230519 1741.06281,440.196156 C1739.93927,451.221146 1736.29897,461.842633 1730.42136,471.245195 L1730.42136,471.245195 C1730.98143,483.105928 1699.30601,553.587246 1755.31364,551.972696 C1804.47588,550.792832 1882.13979,471.245195 1900,447.772121 C1887.74055,419.517496 1895.39493,359.468655 1895.39493,359.468655 Z" id="Path" fill="#793816"></path>
            <path d="M2031.06588,1303 C2037.695,1318.37996 2026.66711,1377.41915 2007.39929,1419.46596 C1959.32267,1523.52874 1833.92695,1743.49933 1809.14519,1795.77878 C1804.20087,1805.58571 1799.77535,1815.64619 1795.88695,1825.91853 C1787.83287,1853.3916 1796.94017,1944.18296 1785.60251,2063.74972 C1774.26486,2183.31649 1740.80948,2368 1740.80948,2368 L1716.39944,2363.47284 L1616.7148,2344.86805 L1600.17297,2341.82927 L1600.17297,2063.74972 C1600.17297,1995.84225 1586.97668,1873.23671 1582.08228,1805.32924 C1579.66606,1771.09643 1630.96431,1647.18855 1669.87168,1530.84662 L1669.87168,1530.84662 C1690.44054,1469.26478 1711.13332,1410.2876 1725.63065,1369.10901 L1725.63065,1369.10901 C1797.74558,1368.98498 1982.12189,1325.38776 2031.06588,1303 Z" id="Path" fill="#3D506E"></path>
            <path d="M543.333466,587.557966 C537.86392,578.27246 538.796229,559.140578 537.988227,543 C510.081109,571.479707 469.618895,591.359415 431.891454,591.11014 C424.681597,613.233326 410.448346,630.121729 400.814485,633.29999 C353.142414,649.689843 416.601585,714.314474 469.805357,697.114476 C533.14022,676.736217 592,628.937672 592,628.937672 C592,628.937672 555.142714,607.313036 543.333466,587.557966 Z" id="Path" fill="#793816"></path>
            <path d="M537,543.831197 C536.841698,539.219318 536.347975,534.625609 535.52286,530.087565 C534.107268,528.838144 522.043962,541.394826 520.813013,540.020463 C493.793669,551.765021 448.310082,548.079229 434.646542,546.704865 C437.856996,561.763975 436.94169,577.428032 432,591.996379 C469.297773,592.308735 509.365182,572.380469 537,543.831197 Z" id="Path" fill="#57280F"></path>
            <path d="M613.916189,389.967625 C612.993745,401.809207 611.254005,413.572883 608.709403,425.174575 C600.713267,466.208028 573.687566,459.513748 573.687566,459.513748 C573.687566,459.513748 564.823633,497.262045 557.261395,519.514326 C556.241837,522.295818 554.844387,524.923795 553.108363,527.324318 C538.417788,548.708821 494.284075,575.05205 455.915019,577.531413 C443.422262,578.962128 430.772489,577.103168 419.219572,572.138799 L419.219572,572.138799 C403.537228,564.514759 394.425352,549.328662 380.416617,528.068127 C358.411747,494.348794 361.01514,434.720121 360.643226,421.641483 C360.643226,410.546335 350.663553,377.384859 352.151206,339.574578 C352.384026,332.724163 353.025685,325.893761 354.072758,319.119835 C361.01514,273.251626 396.96676,254.594421 426.719824,256.082039 C448.724695,257.135768 482.50682,257.197752 498.685049,296.681603 C514.863278,336.165454 558.067207,323.768641 558.377135,334.367916 C558.687063,344.967192 568.914679,395.298254 568.914679,395.298254 C573.95358,383.284263 584.279529,374.286478 596.870163,370.938516 C599.71567,370.052924 602.724161,369.819878 605.672111,370.256691 C612.304565,371.372404 614.474059,378.066684 613.916189,389.967625 Z" id="Path" fill="#793816"></path>
            <path d="M605.105356,370.165746 C602.160444,369.728526 599.155054,369.96179 596.312479,370.848206 C575.19719,376.245846 560.707519,418 560.707519,418 C553.771366,395.718144 552.683719,372.021256 557.549514,349.195606 C559.469085,338.772578 514.204344,351.056861 497.918945,311.474172 C481.633546,271.891482 448.072001,271.891482 426.027886,270.836771 C396.305484,269.347767 360.700524,273.070277 353.765297,318.981234 C352.719303,325.761472 352.078305,332.59824 351.845725,339.455039 C345.81652,316.7651 346.897401,292.766302 354.941808,270.712687 C366.892691,237.148055 402.002278,208.670853 437.235708,195.642068 C453.876792,190.385646 471.245311,187.809866 488.692616,188.010923 C533.090454,190.182387 583.680458,205.50672 603.805001,257.063484 C620.523852,299.624181 613.526703,340.944043 605.105356,370.165746 Z" id="Path" fill="#1E1006"></path>
            <path d="M330.468377,345.283416 C319.661652,333.751242 314.071967,320.483041 320.593267,312.050913 C327.114566,303.618786 305.563224,284.026489 320.220621,276.15237 C334.878017,268.278251 325.251337,240.687833 337.610752,241.80385 C349.970167,242.919867 334.81591,206.091309 358.416802,209.811366 C382.017695,213.531422 381.023973,186.561014 406.736524,194.993141 C412.947285,197.163174 422.884503,172.734805 447.603333,180.546923 C472.322162,188.359041 471.266333,173.478816 489.525971,181.476937 C507.785609,189.475058 514.369016,171.494786 526.790538,184.018975 C539.21206,196.543165 552.130444,175.958853 558.589635,188.97905 C565.048827,201.999248 584.612725,190.343071 587.34546,201.379238 C590.078195,212.415405 610.573707,208.509346 610.263168,227.047627 C609.95263,245.585907 628.212268,232.689712 623.74052,253.274024 C619.268772,273.858335 652.682667,280.492436 638.460024,293.822637 C624.237381,307.152839 655.353295,313.414934 643.055988,329.597179 C630.75868,345.779424 651.440515,353.033534 641.751728,357.993609 C632.06294,362.953684 649.701502,368.905774 636.037827,379.87994 C622.374153,390.854106 619.455095,355.079565 592.935145,366.611739 C566.415194,378.143914 595.605772,315.894972 595.605772,315.894972 L576.228197,259.412117 L536.044572,228.411647 L477.601309,218.057491 L430.896385,219.235508 L404.065897,230.209675 L379.595498,256.374071 L365.186532,270.510285 L353.820839,287.994549 L348.728015,301.882759 L330.468377,345.283416 Z" id="Path" fill="#1E1006"></path>
            <path d="M462,303.193772 C462,303.193772 536.150869,299.643599 547.170772,269 C555.949338,297.712803 492.133519,323 492.133519,323 L462,303.193772 Z" id="Path" fill="#793816"></path>
            <path d="M485,335.193772 C485,335.193772 559.150869,331.643599 570.170772,301 C578.949338,329.712803 515.133519,355 515.133519,355 L485,335.193772 Z" id="Path" fill="#793816"></path>
            <path d="M729.947142,1289.60403 C729.947142,1292.0833 723.786901,1295.18239 713.622503,1298.40545 C681.742987,1307.20005 649.216112,1313.41801 616.352296,1317 C626.639898,1292.88906 651.527273,1220.80418 620.356453,1141.77734 C582.039753,1044.71378 610.808079,945.72878 620.356453,921.555863 C632.676935,890.564943 670.685622,846 670.685622,846 C670.685622,846 636.927501,980.500592 646.537477,1055.62258 C656.147453,1130.74457 732.288034,1270.20371 729.947142,1289.60403 Z" id="Path" stroke="#5461C8" stroke-width="9" fill="#3D506E"></path>
            <path d="M432,964.45502 C404.969143,996.183833 360.473143,998.874837 340.416,999 C339.675429,995.119948 336.836571,977.53455 335.849143,974.843546 C332.684318,966.51898 328.715283,958.532254 324,951 C346.957714,970.212516 401.574857,975.031291 432,964.45502 Z" id="Path" fill="#3D506E"></path>
            <path d="M1946.34548,286 L1957.47068,330.92151 L1966,407.788577 L1966,438.312959 L1956.97623,471 C1956.97623,471 1941.70998,463.955912 1939.48494,455.428858 C1938.00158,449.249833 1948.69414,433.925852 1950.61014,430.712759 C1956.79081,419.343353 1952.9588,415.94489 1952.9588,415.326987 L1947.21078,428.982632 C1945.17116,431.948564 1928.17433,451.721443 1928.17433,451.721443 L1927,428.797261 L1940.9683,412.052104 L1934.78764,344.082832 C1935.01372,339.929776 1935.97639,335.849954 1937.63074,332.033734 C1939.91759,328.202739 1943.81141,320.726119 1940.47385,316.153641 C1937.13629,311.581162 1946.34548,286 1946.34548,286 Z" id="Path" fill="#1E1006"></path>
            <path d="M1819.48815,210.300333 L1836.69271,185 C1836.69271,185 1868.92011,205.773558 1859.13345,216.563406 C1849.3468,227.353253 1867.6734,233.430294 1861.19052,244.344163 C1854.70764,255.258032 1882.13521,272.310953 1875.58999,278.512015 C1869.04478,284.713077 1885.43898,276.279633 1885.43898,276.279633 L1886,327.562415 L1878.51975,413.509134 C1877.37334,418.343802 1877.14082,423.348411 1877.83406,428.267662 L1879.64179,440.979839 C1879.96861,443.041835 1879.0264,445.098772 1877.24773,446.206342 C1875.46905,447.313912 1873.19748,447.258172 1871.47586,446.06471 L1868.92011,444.390423 C1868.92011,444.390423 1868.92011,393.04563 1864.05795,395.960129 C1859.19579,398.874628 1856.88938,360.117991 1858.82177,351.06444 C1860.75417,342.01089 1853.5856,328.492574 1853.5856,328.492574 L1840.68218,305.858698 L1815,241.305643 L1832.95259,219.601926 L1819.48815,210.300333 Z" id="Path" fill="#1E1006"></path>
            <path d="M1664.48383,412.611598 C1664.48383,412.611598 1670.81806,379.049899 1675.94879,381.0971 C1681.07951,383.144302 1672.14825,435.503034 1672.5283,442.389076 C1672.9717,451.260283 1686.90701,461 1686.90701,461 L1708,446.917734 L1702.6159,430.664194 L1690.70755,347.225219 L1686.71698,323.465273 L1684.75337,277 C1684.75337,277 1670.31132,300.387728 1672.5283,305.474713 C1674.74528,310.561699 1669.55121,317.199595 1666.19407,320.487525 C1662.83693,323.775455 1664.48383,345.984491 1664.48383,345.984491 L1661,401.196898 L1664.48383,412.611598 Z" id="Path" fill="#1E1006"></path>
            <path d="M1620.77496,120.080479 C1622.62136,121.527545 1624.14428,123.344365 1625.24588,125.414221 C1628.59907,131.058064 1652.0093,128.639274 1652.0093,128.639274 L1656.23183,157.106569 L1664.05594,138.500494 L1791.35295,148.423734 L1787.19251,182.038709 C1787.19251,182.038709 1834.57184,187.372451 1842.39594,212.614692 C1850.22005,237.856934 1836.18633,281.891312 1836.18633,281.891312 L1853.07647,284 C1853.07647,284 1867.79325,228.181775 1881.76487,217.700353 C1898.8413,205.296303 1901.94611,206.908829 1901.94611,206.908829 C1901.94611,206.908829 1899.27597,183.961337 1901.94611,175.526583 C1904.61624,167.091829 1929.64097,130.996043 1924.23861,125.414221 C1918.83624,119.832398 1928.77162,107.242288 1922.87249,105.939862 C1916.97336,104.637437 1928.27485,80.6976208 1914.17904,78.9610538 C1915.23467,61.9675053 1911.6331,42.3070861 1903.99528,41.3147621 C1896.35746,40.3224381 1891.57606,32.0117246 1883.81404,35.4228383 C1876.05203,38.8339521 1890.64461,24.6933351 1881.95116,23.5769706 C1877.01907,22.9988691 1872.08415,24.6342625 1868.47631,28.0424286 C1870.09081,26.1818211 1876.11413,18.4292898 1868.97308,17.4989861 C1864.01428,16.9664044 1859.00063,17.6695887 1854.38049,19.5456543 C1854.87726,18.6773708 1862.45298,4.84685511 1848.91603,10.0565561 C1835.37908,15.2662571 1837.11778,7.45170561 1827.1203,12.2892851 C1817.12283,17.1268646 1828.17594,0.753518615 1814.70108,4.47473361 C1801.22623,8.19594861 1780.48613,0.195336366 1780.48613,0.195336366 C1780.48613,0.195336366 1758.6904,-1.78931163 1757.63477,6.89352336 C1756.57913,15.5763583 1757.63477,19.2975733 1749.1276,16.6307026 C1740.62043,13.9638318 1744.2841,2.98624761 1736.14951,6.39736136 C1728.01493,9.8084751 1728.69798,25.0034363 1728.69798,25.8096996 C1727.89073,25.3755578 1718.76261,19.6076746 1714.60217,24.1351528 C1710.44173,28.6626311 1711.00059,44.1056733 1703.73535,40.4464786 C1696.47011,36.7872838 1681.56704,32.5699068 1675.04695,35.6709193 C1668.52686,38.7719318 1668.21638,41.8729443 1666.2914,48.0749693 C1664.36642,54.2769943 1649.83593,65.9368013 1640.64571,64.7584165 C1631.45549,63.5800318 1627.29505,74.1234743 1627.29505,74.1234743 C1627.29505,74.1234743 1625.43217,84.4188358 1623.81767,97.7531895 C1622.20317,111.087543 1613.696,114.808758 1620.77496,120.080479 Z" id="Path" fill="#1E1006"></path>
            <path d="M1850,111 C1895.56976,133.89769 1898.78936,130.112435 1895.01252,141.4682 C1891.23568,152.823965 1921.8219,138.675799 1912.03926,156.98154 C1902.25663,175.287281 1928.13728,164.055623 1924.11277,179.196643 C1920.08827,194.337663 1948.87895,174.790854 1934.88606,202.156386 C1920.89317,229.521918 1958.7235,217.793833 1937.858,231.259412 C1916.9925,244.724991 1941.75867,258.686997 1930.98539,265.76108 C1920.2121,272.835163 1961.9431,294.802053 1936.80544,307.398885 C1928.38494,311.680566 1943.55422,411.83469 1934.01924,411.524423 C1924.48427,411.214156 1918.97379,442.551103 1912.84417,441.992623 C1906.71454,441.434142 1913.7729,423.376615 1912.84417,419.96368 C1911.91543,416.550745 1922.68872,341.404126 1922.68872,341.404126 L1915.56844,307.957365 L1915.93994,241.870536 C1915.93994,241.870536 1919.15954,222.261675 1913.15374,212.333137 C1909.5522,206.542119 1902.95672,203.333531 1896.18891,204.08004 L1850,111 Z" id="Path" fill="#1E1006"></path>
            <path d="M1905.42597,250 C1905.42597,250 1915.35799,257.697646 1910.66618,266.264382 C1905.97436,274.831117 1930.46928,269.306194 1920.65913,283.459931 C1910.84897,297.613668 1909.20379,310.339615 1905.18224,318.223495 C1901.16069,326.107375 1914.01747,332.811776 1905.97436,343.054612 C1897.93126,353.297448 1905.12131,396.627748 1905.6697,398.924626 C1905.6697,399.731638 1907.25395,447.904006 1905.6697,450.573351 C1901.83095,456.78113 1900.73416,441.137526 1897.93126,434.184813 L1891.41147,432.446635 C1884.09956,433.253646 1877.88443,428.535734 1882.6981,422.886655 C1889.42302,414.59152 1891.45196,403.340058 1888.06018,393.151392 C1881.96691,376.824932 1887.51178,327.162697 1887.51178,327.162697 L1887.51178,308.539359 L1887.51178,289.916021 L1889.64442,278.493707 C1889.64442,278.493707 1904.14639,252.917656 1905.42597,250 Z" id="Path" fill="#1E1006"></path>
            <line x1="1904.16" y1="289" x2="1905.84" y2="265" id="Path" fill="#1E1006"></line>
            <path d="M1903.31424,136.807146 L1913.17535,63 C1913.17535,63 1950.52431,101.265786 1940.84809,112.101566 C1931.17188,122.937347 1958.90625,136.187959 1952.4349,147.085658 C1945.96354,157.983358 1971.72569,192.4721 1965.31597,198.725893 C1958.90625,204.979687 1970,231.047479 1970,231.047479 L1969.13715,253.957416 L1960.01562,292.470876 L1967.84288,313.461331 L1952.25,316 L1950.40104,291.727851 C1950.40104,291.727851 1940.35503,286.464758 1942.26562,277.424621 C1944.17622,268.384484 1937.08854,254.886197 1937.08854,254.886197 L1924.33073,232.285854 L1899,167.76652 L1916.75,146.094958 L1903.31424,136.807146 Z" id="Path" fill="#1E1006"></path>
            <path d="M1907.13815,189.292777 L1924.18486,164 C1924.18486,164 1956.11655,184.767354 1946.41969,195.553979 C1936.72284,206.340605 1954.88128,212.415831 1948.45789,223.32644 C1942.03449,234.23705 1969.2104,251.222886 1962.787,257.484088 C1956.36361,263.74529 1973.90442,283.582762 1973.90442,283.582762 L1973.03973,306.51984 L1975.20145,337.51589 C1974.02795,342.351274 1984.46597,400.37588 1985.14537,405.273256 L1986.93651,417.981637 C1987.26033,420.043017 1986.32677,422.09934 1984.56441,423.206579 C1982.80205,424.313819 1980.55132,424.258095 1978.8455,423.064989 L1976.3132,421.391202 L1962.72524,341.297408 C1957.75739,337.700864 1955.05564,331.735018 1955.62245,325.613407 C1957.53711,316.56256 1941.29333,307.449721 1941.29333,307.449721 L1928.5083,284.822604 L1903,220.288828 L1920.78787,198.591592 L1907.13815,189.292777 Z" id="Path" fill="#1E1006"></path>
            <path d="M1621.70588,387.098421 L1646.99308,360.625462 C1640.32872,370.00907 1626.87543,400.459187 1627.18685,407.357071 C1627.62284,416.243534 1641.32526,426 1641.32526,426 L1662.06574,411.893517 L1656.77163,395.612026 L1663,365.59691 L1659.07612,287.048035 L1657.14533,241 C1657.14533,241 1642.94464,264.427948 1645.12457,269.523682 C1647.3045,274.619416 1642.19723,281.268727 1638.89619,284.562311 C1636.49403,287.993059 1634.72251,291.822696 1633.66436,295.872355 L1626.19031,357.207592 L1609,370.941216 L1621.70588,387.098421 Z" id="Path" fill="#1E1006"></path>
            <path d="M1656.01893,226.291737 C1658.54087,232.234963 1658.54087,238.947603 1656.01893,244.890829 C1652.36112,256.54626 1659.18077,286.800782 1660.6067,299.13818 C1662.03263,311.475577 1682.80156,382.710098 1691.60512,398.333335 C1699.23073,412.15866 1724.95941,418.978327 1743.80645,416.498448 C1746.32825,416.208848 1748.81842,415.690062 1751.24607,414.948524 C1769.84512,409.244802 1854.90478,352.951552 1859.67854,338.506257 C1864.0328,322.747286 1867.08096,306.65628 1868.79207,290.396606 C1868.79207,290.396606 1878.21559,296.224322 1893.59081,274.339391 C1902.64234,261.196032 1916.71562,233.173401 1915.97166,218.542115 C1915.91236,210.540287 1909.5836,203.993286 1901.5884,203.662842 C1893.69994,204.620292 1886.25348,207.82701 1880.13749,212.900391 C1866.1882,223.191888 1855.33876,272.417484 1855.33876,272.417484 L1847.58915,283.700933 C1847.58915,283.700933 1850.31701,238.31915 1842.50541,213.086382 C1834.69381,187.853614 1787.39023,182.521875 1787.39023,182.521875 L1791.60601,148.857519 L1664.4505,139 L1656.6389,157.289107 C1654.92248,169.262402 1652.33237,181.094074 1648.8893,192.689378 C1645.23148,201.368954 1639.83776,211.722449 1656.01893,226.291737 Z" id="Path" fill="#793816"></path>
            <path d="M1625,126.298356 L1634.86323,142.895099 L1656.01644,158 L1663.83259,139.351974 L1791,149.297588 C1791,149.297588 1755.20703,117.160823 1722.3296,111.131295 C1675.06054,102.739683 1641.37668,112.374496 1625,126.298356 Z" id="Path" fill="#000000"></path>
        </g>
    </g>
</svg>